<svg width="118" height="95" viewBox="0 0 118 95" fill="none" xmlns="http://www.w3.org/2000/svg">
<path d="M4.72 18.8047H9.43999V23.5047H14.16V28.2046H18.88V32.9046H23.6V37.6045H28.32V42.3045H33.04V47.0044H28.32V51.7044H23.6V56.4043H18.88V61.1043H14.16V65.8043H9.43999V70.5042H4.72V75.2042H0V94.004H4.72V89.304H9.43999V84.6041H14.16V79.9041H18.88V75.2042H23.6V70.5042H28.32V65.8043H33.04V61.1043H37.76V56.4043H42.48V51.7044H47.2V47.0044H51.9199V42.3045H47.2V37.6045H42.48V32.9046H37.76V28.2046H33.04V23.5047H28.32V18.8047H23.6V14.1047H18.88V9.40479H14.16V4.70484H9.43999V0.00488281H4.72V18.8047Z" fill="#6120FE"/>
<path d="M4.71997 18.8047H9.43997V0.00488281H4.71997V18.8047Z" fill="#FFE600"/>
<path d="M0 75.2036H4.72L4.71997 84.6038H9.43997V89.3037H4.71997L4.72 94.0034H0V75.2036Z" fill="#FFE600"/>
<path d="M4.72 75.2036H9.43997V70.5037H4.71997L4.72 75.2036Z" fill="#FFE600"/>
<path d="M14.16 4.70461V9.40431H18.88V14.1043L14.16 14.1043L14.16 9.40431L9.44003 9.40456V4.70461H14.16Z" fill="#FFE600"/>
<path d="M14.16 79.9038L14.16 84.6035L9.43997 84.6038L9.44003 79.9036L14.16 79.9038V75.2039H18.88V79.9038H14.16Z" fill="#FFE600"/>
<path d="M23.6 14.104V18.804H18.88L18.88 14.1043L23.6 14.104Z" fill="#FFE600"/>
<path d="M28.3199 18.8047V23.5047H23.5999L23.6 18.804L28.3199 18.8047Z" fill="#FFE600"/>
<path d="M23.5999 70.5039L23.6 75.2036L18.88 75.2039L18.88 70.5037L23.5999 70.5039V65.804H28.3199V70.5039H23.5999Z" fill="#FFE600"/>
<path d="M33.0399 23.5044V28.2044H28.3199L28.3199 23.5047L33.0399 23.5044Z" fill="#FFE600"/>
<path d="M47.1999 37.604V42.304H42.4799V37.6043H37.76L37.76 32.9046H33.04L33.0399 28.2044L37.76 28.2046V32.9046L42.48 32.9043L42.4799 37.6043L47.1999 37.604Z" fill="#FFE600"/>
<path d="M42.48 51.7041V56.4038H37.76L37.76 61.1035H33.04V56.4036L37.76 56.4038V51.7039L42.48 51.7041L42.4799 47.0042H47.1999V51.7041H42.48Z" fill="#FFE600"/>
<path d="M51.9199 42.3042V47.0042L47.1999 47.0042V42.304L51.9199 42.3042Z" fill="#FFE600"/>
<path d="M33.04 61.1035L33.0399 65.8037L28.3199 65.804L28.3199 61.1038L33.04 61.1035Z" fill="#FFE600"/>
<path d="M14.16 18.8047V23.5044H18.88V28.2044H14.16L14.16 23.5044L9.44003 23.5047L9.43997 18.8047H14.16Z" fill="#FFE600"/>
<path d="M14.16 65.804V70.5039L9.43997 70.5037L9.44003 65.804H14.16Z" fill="#FFE600"/>
<path d="M23.6 28.2046V32.9043H28.3199V37.6043H23.5999L23.6 32.9043L18.88 32.9046L18.88 28.2044L23.6 28.2046Z" fill="#FFE600"/>
<path d="M18.88 61.1038V65.8037L14.16 65.804L14.16 61.1038H18.88Z" fill="#FFE600"/>
<path d="M23.6 61.1035V56.4038H28.3199V51.7039H23.5999L23.6 56.4038L18.88 56.4036L18.88 61.1038L23.6 61.1035Z" fill="#FFE600"/>
<path d="M33.0399 37.604V42.304H28.3199L28.3199 37.6043L33.0399 37.604Z" fill="#FFE600"/>
<path d="M37.76 47.0042V42.3042L33.0399 42.304L33.04 47.0042H37.76Z" fill="#FFE600"/>
<path d="M33.04 47.0042L33.0399 51.7041L28.3199 51.7039L28.3199 47.0042L33.04 47.0042Z" fill="#FFE600"/>
<path d="M37.76 18.8047H42.48V23.5047H47.2V28.2046H51.92V32.9046H56.64V37.6045H61.36V42.3045H66.08V47.0044H61.36V51.7044H56.64V56.4043H51.92V61.1043H47.2V65.8043H42.48V70.5042H37.76V75.2042H33.04V94.004H37.76V89.304H42.48V84.6041H47.2V79.9041H51.92V75.2042H56.64V70.5042H61.36V65.8043H66.08V61.1043H70.8V56.4043H75.52V51.7044H80.24V47.0044H84.96V42.3045H80.24V37.6045H75.52V32.9046H70.8V28.2046H66.08V23.5047H61.36V18.8047H56.64V14.1047H51.92V9.40479H47.2V4.70484H42.48V0.00488281H37.76V18.8047Z" fill="#6120FE"/>
<path d="M37.76 18.8052H42.4799V23.5051H47.1999V18.8052H42.4799L42.48 9.40505L47.1999 9.40505V14.1048L51.9199 14.1048V9.4048L47.1999 9.40505L47.1999 4.7051H42.48V0.00537109H37.76V18.8052Z" fill="#FFE600"/>
<path d="M33.04 75.2046H37.76L37.76 84.6043H42.48V89.3042H37.76L37.76 94.0044H33.04V75.2046Z" fill="#FFE600"/>
<path d="M37.76 75.2046L37.76 70.5046H42.48L42.4799 65.8049H47.1999V70.5049L42.48 70.5046V75.2046H37.76Z" fill="#FFE600"/>
<path d="M47.1999 79.9043L47.1999 84.604L42.48 84.6043L42.4799 79.9041L47.1999 79.9043V75.2044H51.9199V79.9043H47.1999Z" fill="#FFE600"/>
<path d="M56.64 14.105V18.805H51.92L51.9199 14.1048L56.64 14.105Z" fill="#FFE600"/>
<path d="M61.36 18.8052V23.5051H56.64L56.64 18.805L61.36 18.8052Z" fill="#FFE600"/>
<path d="M56.64 70.5046V75.2046L51.9199 75.2044L51.92 70.5046H56.64Z" fill="#FFE600"/>
<path d="M66.08 23.5054V28.2051H70.7999L70.7999 32.9048H75.5199L75.5199 37.6045H80.2399V42.3045H75.5199V37.6045L70.7999 37.6048V32.9048L66.08 32.9051L66.08 28.2051L61.36 28.2053L61.36 23.5051L66.08 23.5054Z" fill="#FFE600"/>
<path d="M61.36 65.8049V70.5049L56.64 70.5046L56.64 65.8049H61.36Z" fill="#FFE600"/>
<path d="M75.5199 51.7046L75.5199 56.4043H70.7999L70.7999 61.104H66.08V56.4041L70.7999 56.4043V51.7044L75.5199 51.7046V47.0047H80.2399V51.7046H75.5199Z" fill="#FFE600"/>
<path d="M84.9599 42.3047V47.0047L80.2399 47.0047V42.3045L84.9599 42.3047Z" fill="#FFE600"/>
<path d="M66.08 61.104L66.08 65.8042L61.36 65.8049L61.36 61.1043L66.08 61.104Z" fill="#FFE600"/>
<path d="M51.9199 23.5054V28.2053H47.1999L47.1999 23.5051L51.9199 23.5054Z" fill="#FFE600"/>
<path d="M56.64 28.2051V32.9051H51.92L51.9199 28.2053L56.64 28.2051Z" fill="#FFE600"/>
<path d="M51.9199 61.1043V65.8042L47.1999 65.8049L47.1999 61.1043H51.9199Z" fill="#FFE600"/>
<path d="M61.36 32.9048V37.6048H56.64L56.64 32.9051L61.36 32.9048Z" fill="#FFE600"/>
<path d="M56.64 56.4041V61.104L51.9199 61.1043L51.92 56.4041H56.64Z" fill="#FFE600"/>
<path d="M66.08 37.6045V42.3045H61.36L61.36 37.6048L66.08 37.6045Z" fill="#FFE600"/>
<path d="M70.7999 47.0047V42.3047L66.08 42.3045L66.08 47.0047L61.36 47.0047V51.7046H66.08L66.08 47.0047H70.7999Z" fill="#FFE600"/>
<path d="M61.36 56.4043L61.36 51.7046L56.64 51.7044L56.64 56.4041L61.36 56.4043Z" fill="#FFE600"/>
<path d="M70.7998 18.8052H75.5198V23.5051H80.2398V28.2051H84.9598V32.9051H89.6798V37.605H94.3998V42.305H99.1198V47.0049H94.3998V51.7049H89.6798V56.4048H84.9598V61.1048H80.2398V65.8047H75.5198V70.5047H70.7998V75.2047H66.0798V94.0045H70.7998V89.3045H75.5198V84.6046H80.2398V79.9046H84.9598V75.2047H89.6798V70.5047H94.3998V65.8047H99.1198V61.1048H103.84V56.4048H108.56V51.7049H113.28V47.0049H118V42.305H113.28V37.605H108.56V32.9051H103.84V28.2051H99.1198V23.5051H94.3998V18.8052H89.6798V14.1052H84.9598V9.40528H80.2398V4.70533H75.5198V0.00537109H70.7998V18.8052Z" fill="#6120FE"/>
<path d="M70.7999 18.8052H75.5198V23.5051H80.2398V18.8052H75.5198L75.5199 9.40505L80.2398 9.40505V4.7051H75.5199V0.00537109H70.7999V18.8052Z" fill="#FFE600"/>
<path d="M66.0798 75.2046H70.7998V94.0044H66.0798V75.2046Z" fill="#FFE600"/>
<path d="M70.7999 84.6047H75.5199V89.3047H70.7999V84.6047Z" fill="#FFE600"/>
<path d="M84.9599 9.4048V14.1048L80.2399 14.1048L80.2398 9.40505L84.9599 9.4048Z" fill="#FFE600"/>
<path d="M80.2398 79.9045V84.6045L75.5199 84.6047L75.5198 79.9045H80.2398Z" fill="#FFE600"/>
<path d="M89.6799 14.105V18.805H84.9599L84.9599 14.1048L89.6799 14.105Z" fill="#FFE600"/>
<path d="M84.9599 75.2044V79.9043L80.2398 79.9045L80.2399 75.2044H84.9599Z" fill="#FFE600"/>
<path d="M94.3998 18.8052V23.5051H89.6798L89.6799 18.805L94.3998 18.8052Z" fill="#FFE600"/>
<path d="M89.6799 70.5049V75.2046L84.9599 75.2044L84.9599 70.5046L89.6799 70.5049L89.6798 65.8049H94.3998V70.5049H89.6799Z" fill="#FFE600"/>
<path d="M99.1198 23.5054V28.2051H103.84V32.9051H99.1198L99.1198 28.2051L94.3998 28.2053L94.3998 23.5051L99.1198 23.5054Z" fill="#FFE600"/>
<path d="M113.28 37.6045V42.3045H108.56V37.6048H103.84L103.84 32.9051L108.56 32.9048L108.56 37.6048L113.28 37.6045Z" fill="#FFE600"/>
<path d="M108.56 51.7046V56.4043H103.84V51.7044L108.56 51.7046L108.56 47.0047H113.28V51.7046H108.56Z" fill="#FFE600"/>
<path d="M118 42.3047V47.0047L113.28 47.0047V42.3045L118 42.3047Z" fill="#FFE600"/>
<path d="M99.1198 61.1043V65.8042L94.3998 65.8049L94.3998 61.1043H99.1198Z" fill="#FFE600"/>
<path d="M103.84 56.4043L103.84 61.104L99.1198 61.1043L99.1198 56.4041L103.84 56.4043Z" fill="#FFE600"/>
<path d="M75.5198 70.5049L75.5199 75.2046H70.7998L70.7999 70.5046L75.5198 70.5049V65.8049H80.2398V70.5049H75.5198Z" fill="#FFE600"/>
<path d="M84.9599 23.5054V28.2053H80.2399L80.2398 23.5051L84.9599 23.5054Z" fill="#FFE600"/>
<path d="M89.6799 28.2051V32.9048H94.3998V37.6048H89.6798L89.6799 32.9048L84.9599 32.9051L84.9599 28.2053L89.6799 28.2051Z" fill="#FFE600"/>
<path d="M84.9599 61.1043V65.8042L80.2398 65.8049L80.2399 61.1043H84.9599Z" fill="#FFE600"/>
<path d="M89.6799 61.104V56.4043H94.3998V51.7044H89.6798L89.6799 56.4043L84.9599 56.4041L84.9599 61.1043L89.6799 61.104Z" fill="#FFE600"/>
<path d="M99.1198 37.6045V42.3045H94.3998L94.3998 37.6048L99.1198 37.6045Z" fill="#FFE600"/>
<path d="M103.84 47.0047V42.3047L99.1198 42.3045L99.1198 47.0047L94.3998 47.0047L94.3998 51.7044L99.1198 51.7046L99.1198 47.0047H103.84Z" fill="#FFE600"/>
</svg>
