<svg width="50" height="50" viewBox="0 0 50 50" fill="none" xmlns="http://www.w3.org/2000/svg">
<path d="M45 0H5V5H0V45H5V50H45V45H50V5H45V0Z" fill="#E31CB8"/>
<rect x="5" y="5" width="40" height="40" fill="#6120FE"/>
<path d="M40 33L35.7143 33L35.7143 28.8L31.4286 28.8L31.4286 24.6L27.1429 24.6L27.1429 20.4L22.8571 20.4L22.8571 24.6L18.5714 24.6L18.5714 28.8L14.2857 28.8L14.2857 33L10 33L10 24.6L14.2857 24.6L14.2857 20.4L18.5714 20.4L18.5714 16.2L22.8571 16.2L22.8571 12L27.1429 12L27.1429 16.2L31.4286 16.2L31.4286 20.4L35.7143 20.4L35.7143 24.6L40 24.6L40 33Z" fill="#FFE600"/>
</svg>
