<svg width="57" height="30" viewBox="0 0 57 30" fill="none" xmlns="http://www.w3.org/2000/svg">
<path d="M8.14286 0L48.8571 0V2.72727H51.5714V5.45455H54.2857V8.18182H57V21.8182H54.2857V24.5455H51.5714V27.2727H48.8571V30H8.14286V27.2727H5.42857V24.5455H2.71429V21.8182H0V8.18182H2.71429V5.45455H5.42857V2.72727H8.14286V0Z" fill="#31CEFF"/>
<path d="M11.0526 3L45.9474 3V5.66667H48.6316V8.33333H51.3158V11H54V19H51.3158V21.6667H48.6316V24.3333H45.9474V27H11.0526V24.3333H8.36842V21.6667H5.68421V19H3V11H5.68421V8.33333H8.36842V5.66667H11.0526V3Z" fill="#E31CB8"/>
<path d="M30 19V11H37.6V12.1429H38.8667V15.5714H36.3333V16.7143H37.6V17.8571H38.8667V19H35.0667V17.8571H33.8V16.7143H32.5333V19H30ZM32.5333 15.5714H35.0667V14.4286H36.3333V12.1429H32.5333V15.5714Z" fill="white"/>
<path d="M41.4 19V17.8571H40.1333V11H42.6667V17.8571H46.4667V11H49V17.8571H47.7333V19H41.4Z" fill="white"/>
<path d="M8 19V11H16.8667V12.1429H10.5333V14.4286H15.6V15.5714H10.5333V17.8571H16.8667V19H8Z" fill="white"/>
<path d="M18.1333 19V11H20.6667V12.1429H21.9333V13.2857H23.2V14.4286H24.4667V11H27V19H24.4667V16.7143H23.2V15.5714H21.9333V14.4286H20.6667V19H18.1333Z" fill="white"/>
</svg>
