<svg width="57" height="30" viewBox="0 0 57 30" fill="none" xmlns="http://www.w3.org/2000/svg"><path d="M8.1 0H49v2.7h2.7v2.8h2.7v2.7H57v13.6h-2.7v2.7h-2.7v2.8h-2.7V30H8v-2.7H5.4v-2.8H2.7v-2.7H0V8.2h2.7V5.5h2.7V2.7h2.7V0z" fill="#31CEFF"/><path d="M11 3h35v2.7h2.6v2.6h2.7V11H54v8h-2.7v2.7h-2.7v2.6H46V27H11.1v-2.7H8.4v-2.6H5.7V19H3v-8h2.7V8.3h2.7V5.7H11V3z" fill="#E31CB8"/><path d="M30 19v-8h7.6v1.1h1.3v3.5h-2.6v1.1h1.3V18h1.3V19H35v-1.1h-1.3v-1.2h-1.3V19H30zm2.5-3.4h2.6v-1.2h1.2v-2.3h-3.8v3.5zM41.4 19v-1.1h-1.3V11h2.6v6.9h3.8V11H49v6.9h-1.3V19h-6.3zM8 19v-8h8.9v1.1h-6.4v2.3h5.1v1.2h-5v2.3h6.3V19H8zM18.1 19v-8h2.6v1.1h1.2v1.2h1.3v1.1h1.3V11H27v8h-2.5v-2.3h-1.3v-1.1h-1.3v-1.2h-1.2V19H18z" fill="#fff"/></svg>
