<svg width="80" height="80" viewBox="0 0 80 80" fill="none" xmlns="http://www.w3.org/2000/svg">
<rect y="33" width="80" height="20" fill="#6120FE"/>
<rect x="5" y="38" width="70" height="15" fill="#E31CB8"/>
<rect x="10" y="38" width="60" height="5" fill="#6120FE"/>
<rect x="10" y="58" width="60" height="5" fill="#6120FE"/>
<rect x="5" y="53" width="70" height="5" fill="#6120FE"/>
<rect x="10" y="53" width="60" height="5" fill="#E31CB8"/>
<rect x="5" y="18" width="70" height="5" fill="#6120FE"/>
<rect x="5" y="23" width="5" height="5" fill="#6120FE"/>
<rect x="70" y="23" width="5" height="5" fill="#6120FE"/>
<rect x="75" y="38" width="15" height="5" transform="rotate(-90 75 38)" fill="#6120FE"/>
<rect y="38" width="15" height="5" transform="rotate(-90 0 38)" fill="#6120FE"/>
<rect x="70" y="33" width="5" height="5" fill="#6120FE"/>
<rect x="5" y="33" width="5" height="5" fill="#6120FE"/>
<rect x="10" y="33" width="60" height="5" fill="#FFE600"/>
<rect x="10" y="23" width="60" height="5" fill="#FFE600"/>
<rect x="5" y="28" width="70" height="5" fill="#FFE600"/>
<rect x="15" y="28" width="50" height="5" fill="#E31CB8"/>
<rect x="50" y="43" width="10" height="15" fill="#FFE600"/>
<rect x="40" y="43" width="5" height="15" fill="#FFE600"/>
</svg>
