<svg width="80" height="80" viewBox="0 0 80 80" fill="none" xmlns="http://www.w3.org/2000/svg">
<rect y="25" width="80" height="30" fill="#6120FE"/>
<rect x="10" y="45" width="60" height="5" fill="#6120FE"/>
<rect x="10" y="10" width="60" height="5" fill="#6120FE"/>
<rect x="10" y="65" width="60" height="5" fill="#6120FE"/>
<rect x="5" y="15" width="70" height="10" fill="#6120FE"/>
<rect x="5" y="55" width="70" height="10" fill="#6120FE"/>
<rect x="20" width="40" height="5" fill="#6120FE"/>
<rect x="20" y="75" width="40" height="5" fill="#6120FE"/>
<rect x="15" y="5" width="50" height="5" fill="#6120FE"/>
<rect x="15" y="70" width="50" height="5" fill="#6120FE"/>
<rect x="70" y="40" width="5" height="5" fill="#6120FE"/>
<rect x="5" y="40" width="5" height="5" fill="#6120FE"/>
<rect x="10" y="50" width="60" height="10" fill="#FFE600"/>
<rect x="15" y="15" width="50" height="5" fill="#FFE600"/>
<rect x="15" y="60" width="50" height="5" fill="#FFE600"/>
<rect x="20" y="10" width="40" height="5" fill="#FFE600"/>
<rect x="20" y="65" width="40" height="5" fill="#FFE600"/>
<rect x="25" y="5" width="30" height="5" fill="#FFE600"/>
<rect x="25" y="70" width="30" height="5" fill="#FFE600"/>
<rect x="10" y="20" width="60" height="10" fill="#FFE600"/>
<rect x="5" y="30" width="70" height="20" fill="#FFE600"/>
<rect x="15" y="25" width="5" height="10" fill="#E31CB8"/>
<rect x="15" y="45" width="5" height="10" fill="#E31CB8"/>
<rect x="10" y="35" width="5" height="10" fill="#E31CB8"/>
<rect x="25" y="15" width="10" height="5" fill="#E31CB8"/>
<rect x="20" y="20" width="5" height="5" fill="#E31CB8"/>
<rect x="20" y="55" width="5" height="5" fill="#E31CB8"/>
<rect x="25" y="60" width="10" height="5" fill="#E31CB8"/>
<rect x="60" y="25" width="5" height="10" fill="#E31CB8"/>
<rect x="45" y="15" width="10" height="5" fill="#E31CB8"/>
<rect x="60" y="45" width="5" height="10" fill="#E31CB8"/>
<rect x="65" y="35" width="5" height="10" fill="#E31CB8"/>
<rect x="55" y="20" width="5" height="5" fill="#E31CB8"/>
<rect x="55" y="55" width="5" height="5" fill="#E31CB8"/>
<rect x="45" y="60" width="10" height="5" fill="#E31CB8"/>
<rect x="35" y="10" width="10" height="5" fill="#E31CB8"/>
<rect x="35" y="65" width="10" height="5" fill="#E31CB8"/>
</svg>
