<svg width="153" height="95" viewBox="0 0 153 95" fill="none" xmlns="http://www.w3.org/2000/svg">
<rect x="89.2585" y="61.1606" width="63.7414" height="12.2311" fill="#6120FE"/>
<rect x="93.2422" y="65.2378" width="55.7737" height="8.15407" fill="#E31CB8"/>
<rect x="97.2263" y="65.2378" width="47.806" height="4.07703" fill="#6120FE"/>
<rect x="97.2263" y="77.4683" width="47.806" height="4.07703" fill="#6120FE"/>
<rect x="93.2422" y="73.3921" width="55.7737" height="4.07703" fill="#6120FE"/>
<rect x="97.2263" y="73.3921" width="47.806" height="4.07703" fill="#E31CB8"/>
<rect x="101.21" y="40.7754" width="39.8384" height="4.07703" fill="#6120FE"/>
<rect x="93.2422" y="44.8521" width="7.96767" height="4.07703" fill="#6120FE"/>
<rect x="141.049" y="44.8521" width="7.96767" height="4.07703" fill="#6120FE"/>
<rect x="149.016" y="65.2378" width="16.3081" height="3.98384" transform="rotate(-90 149.016 65.2378)" fill="#6120FE"/>
<rect x="89.2585" y="65.2378" width="16.3081" height="3.98384" transform="rotate(-90 89.2585 65.2378)" fill="#6120FE"/>
<rect x="145.032" y="61.1606" width="3.98384" height="4.07703" fill="#6120FE"/>
<rect x="93.2422" y="61.1606" width="3.98384" height="4.07703" fill="#6120FE"/>
<rect x="101.21" y="61.1606" width="39.8384" height="4.07703" fill="#FFE600"/>
<rect x="101.21" y="44.8521" width="39.8384" height="4.07703" fill="#FFE600"/>
<rect x="141.049" y="48.9302" width="3.98384" height="4.07703" fill="#FFE600"/>
<rect x="145.032" y="48.9302" width="3.98384" height="12.2311" fill="#FFE600"/>
<rect x="93.2422" y="48.9302" width="3.98384" height="12.2311" fill="#FFE600"/>
<rect x="141.049" y="57.083" width="3.98384" height="8.15407" fill="#FFE600"/>
<rect x="97.2263" y="57.083" width="3.98384" height="8.15407" fill="#FFE600"/>
<rect x="97.2263" y="48.9302" width="3.98384" height="4.07703" fill="#FFE600"/>
<rect x="97.2263" y="53.0073" width="3.98384" height="4.07703" fill="#E31CB8"/>
<rect x="141.049" y="53.0073" width="3.98384" height="4.07703" fill="#E31CB8"/>
<rect x="101.21" y="53.0073" width="39.8384" height="4.07703" fill="#FFE600"/>
<rect x="101.21" y="48.9302" width="39.8384" height="4.07703" fill="#E31CB8"/>
<rect x="101.21" y="57.083" width="39.8384" height="4.07703" fill="#E31CB8"/>
<rect x="129.097" y="69.3145" width="7.96767" height="8.15407" fill="#FFE600"/>
<rect x="121.129" y="69.3145" width="3.98384" height="8.15407" fill="#FFE600"/>
<rect x="89.2585" y="48.9297" width="63.7414" height="12.2311" fill="#6120FE"/>
<rect x="93.2424" y="53.0078" width="55.7737" height="8.15407" fill="#E31CB8"/>
<rect x="97.2263" y="53.0078" width="47.806" height="4.07703" fill="#6120FE"/>
<rect x="97.2263" y="65.2388" width="47.806" height="4.07703" fill="#6120FE"/>
<rect x="93.2424" y="61.1611" width="55.7737" height="4.07703" fill="#6120FE"/>
<rect x="97.2263" y="61.1611" width="47.806" height="4.07703" fill="#E31CB8"/>
<rect x="101.21" y="28.5454" width="39.8384" height="4.07703" fill="#6120FE"/>
<rect x="93.2424" y="32.6206" width="7.96767" height="4.07703" fill="#6120FE"/>
<rect x="141.049" y="32.6206" width="7.96767" height="4.07703" fill="#6120FE"/>
<rect x="149.016" y="53.0078" width="16.3081" height="3.98384" transform="rotate(-90 149.016 53.0078)" fill="#6120FE"/>
<rect x="89.2585" y="53.0078" width="16.3081" height="3.98384" transform="rotate(-90 89.2585 53.0078)" fill="#6120FE"/>
<rect x="145.032" y="48.9297" width="3.98384" height="4.07703" fill="#6120FE"/>
<rect x="93.2424" y="48.9297" width="3.98384" height="4.07703" fill="#6120FE"/>
<rect x="101.21" y="48.9297" width="39.8384" height="4.07703" fill="#FFE600"/>
<rect x="101.21" y="32.6206" width="39.8384" height="4.07703" fill="#FFE600"/>
<rect x="141.049" y="36.6992" width="3.98384" height="4.07703" fill="#FFE600"/>
<rect x="145.032" y="36.6992" width="3.98384" height="12.2311" fill="#FFE600"/>
<rect x="93.2424" y="36.6992" width="3.98384" height="12.2311" fill="#FFE600"/>
<rect x="141.049" y="44.853" width="3.98384" height="8.15407" fill="#FFE600"/>
<rect x="97.2263" y="44.853" width="3.98384" height="8.15407" fill="#FFE600"/>
<rect x="97.2263" y="36.6992" width="3.98384" height="4.07703" fill="#FFE600"/>
<rect x="97.2263" y="40.7759" width="3.98384" height="4.07703" fill="#E31CB8"/>
<rect x="141.049" y="40.7759" width="3.98384" height="4.07703" fill="#E31CB8"/>
<rect x="101.21" y="40.7759" width="39.8384" height="4.07703" fill="#FFE600"/>
<rect x="101.21" y="36.6992" width="39.8384" height="4.07703" fill="#E31CB8"/>
<rect x="101.21" y="44.853" width="39.8384" height="4.07703" fill="#E31CB8"/>
<rect x="129.097" y="57.083" width="7.96767" height="8.15407" fill="#FFE600"/>
<rect x="121.129" y="57.083" width="3.98384" height="8.15407" fill="#FFE600"/>
<rect x="49.4202" y="69.3149" width="63.7414" height="12.2311" fill="#6120FE"/>
<rect x="53.4038" y="73.3926" width="55.7737" height="8.15407" fill="#E31CB8"/>
<rect x="57.3879" y="73.3926" width="47.806" height="4.07703" fill="#6120FE"/>
<rect x="57.3879" y="85.624" width="47.806" height="4.07703" fill="#6120FE"/>
<rect x="53.4041" y="81.5464" width="55.7737" height="4.07703" fill="#6120FE"/>
<rect x="57.3879" y="81.5464" width="47.806" height="4.07703" fill="#E31CB8"/>
<rect x="105.194" y="69.3154" width="3.98384" height="4.07703" fill="#6120FE"/>
<rect x="53.4041" y="69.3154" width="3.98384" height="4.07703" fill="#6120FE"/>
<rect x="89.2585" y="77.4683" width="7.96767" height="8.15407" fill="#FFE600"/>
<rect x="81.2908" y="77.4683" width="3.98384" height="8.15407" fill="#FFE600"/>
<rect x="49.4202" y="57.085" width="63.7414" height="12.2311" fill="#6120FE"/>
<rect x="53.4038" y="61.1611" width="55.7737" height="8.15407" fill="#E31CB8"/>
<rect x="57.3879" y="61.1606" width="47.806" height="4.07703" fill="#6120FE"/>
<rect x="57.3879" y="73.3931" width="47.806" height="4.07703" fill="#6120FE"/>
<rect x="53.4041" y="69.3154" width="55.7737" height="4.07703" fill="#6120FE"/>
<rect x="57.3879" y="69.3154" width="47.806" height="4.07703" fill="#E31CB8"/>
<rect x="105.194" y="57.0835" width="3.98384" height="4.07703" fill="#6120FE"/>
<rect x="53.4041" y="57.085" width="3.98384" height="4.07703" fill="#6120FE"/>
<rect x="89.2585" y="65.2378" width="7.96767" height="8.15407" fill="#FFE600"/>
<rect x="81.2908" y="65.2378" width="3.98384" height="8.15407" fill="#FFE600"/>
<rect x="49.4202" y="44.854" width="63.7414" height="12.2311" fill="#6120FE"/>
<rect x="53.4038" y="48.9302" width="55.7737" height="8.15407" fill="#E31CB8"/>
<rect x="57.3879" y="48.9302" width="47.806" height="4.07703" fill="#6120FE"/>
<rect x="57.3879" y="61.1621" width="47.806" height="4.07703" fill="#6120FE"/>
<rect x="53.4041" y="57.084" width="55.7737" height="4.07703" fill="#6120FE"/>
<rect x="57.3879" y="57.084" width="47.806" height="4.07703" fill="#E31CB8"/>
<rect x="105.194" y="44.854" width="3.98384" height="4.07703" fill="#6120FE"/>
<rect x="53.4041" y="44.854" width="3.98384" height="4.07703" fill="#6120FE"/>
<rect x="89.2585" y="53.0073" width="7.96767" height="8.15407" fill="#FFE600"/>
<rect x="81.2908" y="53.0073" width="3.98384" height="8.15407" fill="#FFE600"/>
<rect x="49.4202" y="32.6206" width="63.7414" height="12.2311" fill="#6120FE"/>
<rect x="53.4043" y="36.6987" width="55.7737" height="8.15407" fill="#E31CB8"/>
<rect x="57.3879" y="36.6987" width="47.806" height="4.07703" fill="#6120FE"/>
<rect x="57.3879" y="48.9297" width="47.806" height="4.07703" fill="#6120FE"/>
<rect x="53.4043" y="44.8525" width="55.7737" height="4.07703" fill="#6120FE"/>
<rect x="57.3879" y="44.8525" width="47.806" height="4.07703" fill="#E31CB8"/>
<rect x="61.3716" y="12.2358" width="39.8384" height="4.07703" fill="#6120FE"/>
<rect x="53.4043" y="16.312" width="7.96767" height="4.07703" fill="#6120FE"/>
<rect x="101.21" y="16.312" width="7.96767" height="4.07703" fill="#6120FE"/>
<rect x="109.178" y="36.6987" width="16.3081" height="3.98384" transform="rotate(-90 109.178 36.6987)" fill="#6120FE"/>
<rect x="49.4202" y="36.6987" width="16.3081" height="3.98384" transform="rotate(-90 49.4202 36.6987)" fill="#6120FE"/>
<rect x="105.194" y="32.6206" width="3.98384" height="4.07703" fill="#6120FE"/>
<rect x="53.4043" y="32.6206" width="3.98384" height="4.07703" fill="#6120FE"/>
<rect x="61.3716" y="32.6206" width="39.8384" height="4.07703" fill="#FFE600"/>
<rect x="61.3716" y="16.312" width="39.8384" height="4.07703" fill="#FFE600"/>
<rect x="101.21" y="20.3906" width="3.98384" height="4.07703" fill="#FFE600"/>
<rect x="105.194" y="20.3906" width="3.98384" height="12.2311" fill="#FFE600"/>
<rect x="53.4043" y="20.3906" width="3.98384" height="12.2311" fill="#FFE600"/>
<rect x="101.21" y="28.5449" width="3.98384" height="8.15407" fill="#FFE600"/>
<rect x="57.3879" y="28.5449" width="3.98384" height="8.15407" fill="#FFE600"/>
<rect x="57.3879" y="20.3906" width="3.98384" height="4.07703" fill="#FFE600"/>
<rect x="57.3879" y="24.4673" width="3.98384" height="4.07703" fill="#E31CB8"/>
<rect x="101.21" y="24.4673" width="3.98384" height="4.07703" fill="#E31CB8"/>
<rect x="61.3716" y="24.4673" width="39.8384" height="4.07703" fill="#FFE600"/>
<rect x="61.3716" y="20.3906" width="39.8384" height="4.07703" fill="#E31CB8"/>
<rect x="61.3716" y="28.5449" width="39.8384" height="4.07703" fill="#E31CB8"/>
<rect x="89.2585" y="40.7749" width="7.96767" height="8.15407" fill="#FFE600"/>
<rect x="81.2908" y="40.7749" width="3.98384" height="8.15407" fill="#FFE600"/>
<rect x="49.4202" y="20.3896" width="63.7414" height="12.2311" fill="#6120FE"/>
<rect x="53.4043" y="24.4678" width="55.7737" height="8.15407" fill="#E31CB8"/>
<rect x="57.3877" y="24.4678" width="47.806" height="4.07703" fill="#6120FE"/>
<rect x="57.3877" y="36.6982" width="47.806" height="4.07703" fill="#6120FE"/>
<rect x="53.4043" y="32.6196" width="55.7737" height="4.07703" fill="#6120FE"/>
<rect x="57.3877" y="32.6196" width="47.806" height="4.07703" fill="#E31CB8"/>
<rect x="61.3716" y="0.00488281" width="39.8384" height="4.07703" fill="#6120FE"/>
<rect x="53.4043" y="4.08154" width="7.96767" height="4.07703" fill="#6120FE"/>
<rect x="101.21" y="4.08154" width="7.96767" height="4.07703" fill="#6120FE"/>
<rect x="109.177" y="24.4678" width="16.3081" height="3.98384" transform="rotate(-90 109.177 24.4678)" fill="#6120FE"/>
<rect x="49.4202" y="24.4678" width="16.3081" height="3.98384" transform="rotate(-90 49.4202 24.4678)" fill="#6120FE"/>
<rect x="105.194" y="20.3896" width="3.98384" height="4.07703" fill="#6120FE"/>
<rect x="53.4043" y="20.3896" width="3.98384" height="4.07703" fill="#6120FE"/>
<rect x="61.3716" y="20.3896" width="39.8384" height="4.07703" fill="#FFE600"/>
<rect x="61.3716" y="4.08154" width="39.8384" height="4.07703" fill="#FFE600"/>
<rect x="101.21" y="8.16016" width="3.98384" height="4.07703" fill="#FFE600"/>
<rect x="105.194" y="8.16016" width="3.98384" height="12.2311" fill="#FFE600"/>
<rect x="53.4043" y="8.16016" width="3.98384" height="12.2311" fill="#FFE600"/>
<rect x="101.21" y="16.3125" width="3.98384" height="8.15407" fill="#FFE600"/>
<rect x="57.3877" y="16.3125" width="3.98384" height="8.15407" fill="#FFE600"/>
<rect x="57.3877" y="8.16016" width="3.98384" height="4.07703" fill="#FFE600"/>
<rect x="57.3877" y="12.2358" width="3.98384" height="4.07703" fill="#E31CB8"/>
<rect x="101.21" y="12.2358" width="3.98384" height="4.07703" fill="#E31CB8"/>
<rect x="61.3716" y="12.2358" width="39.8384" height="4.07703" fill="#FFE600"/>
<rect x="61.3716" y="8.16016" width="39.8384" height="4.07703" fill="#E31CB8"/>
<rect x="61.3716" y="16.3125" width="39.8384" height="4.07703" fill="#E31CB8"/>
<rect x="89.2585" y="28.5444" width="7.96767" height="8.15407" fill="#FFE600"/>
<rect x="81.2908" y="28.5444" width="3.98384" height="8.15407" fill="#FFE600"/>
<rect width="64.8626" height="12.0219" transform="matrix(0.491357 -0.870965 0.860952 0.508699 17.2712 83.8164)" fill="#6120FE"/>
<rect width="56.7547" height="8.01463" transform="matrix(0.491357 -0.870965 0.860952 0.508699 22.7131 82.3208)" fill="#E31CB8"/>
<rect width="48.6469" height="4.00731" transform="matrix(0.491357 -0.870965 0.860952 0.508699 24.7051 78.79)" fill="#6120FE"/>
<rect width="48.6469" height="4.00731" transform="matrix(0.491357 -0.870965 0.860952 0.508699 35.0554 84.9062)" fill="#6120FE"/>
<rect width="56.7547" height="4.00731" transform="matrix(0.491357 -0.870965 0.860952 0.508699 29.6135 86.3989)" fill="#6120FE"/>
<rect width="48.6469" height="4.00731" transform="matrix(0.491357 -0.870965 0.860952 0.508699 31.6055 82.8682)" fill="#E31CB8"/>
<rect width="40.5391" height="4.00731" transform="matrix(0.491357 -0.870965 0.860952 0.508699 5.99658 63.0298)" fill="#6120FE"/>
<rect width="8.10782" height="4.00731" transform="matrix(0.491357 -0.870965 0.860952 0.508699 5.46265 72.1294)" fill="#6120FE"/>
<rect width="8.10782" height="4.00731" transform="matrix(0.491357 -0.870965 0.860952 0.508699 29.366 29.7603)" fill="#6120FE"/>
<rect width="16.0293" height="4.05391" transform="matrix(-0.860952 -0.508699 0.491357 -0.870965 50.6003 32.8901)" fill="#6120FE"/>
<rect width="16.0293" height="4.05391" transform="matrix(-0.860952 -0.508699 0.491357 -0.870965 20.7214 85.8535)" fill="#6120FE"/>
<rect width="4.05391" height="4.00731" transform="matrix(0.491357 -0.870965 0.860952 0.508699 45.1582 34.3843)" fill="#6120FE"/>
<rect width="4.05391" height="4.00731" transform="matrix(0.491357 -0.870965 0.860952 0.508699 19.2634 80.2832)" fill="#6120FE"/>
<rect width="40.5391" height="4.00731" transform="matrix(0.491357 -0.870965 0.860952 0.508699 23.2473 73.2222)" fill="#FFE600"/>
<rect width="40.5391" height="4.00731" transform="matrix(0.491357 -0.870965 0.860952 0.508699 9.44678 65.0674)" fill="#FFE600"/>
<rect width="4.05391" height="4.00731" transform="matrix(0.491357 -0.870965 0.860952 0.508699 32.8159 31.7974)" fill="#FFE600"/>
<rect width="4.05391" height="12.0219" transform="matrix(0.491357 -0.870965 0.860952 0.508699 34.8079 28.2661)" fill="#FFE600"/>
<rect width="4.05391" height="12.0219" transform="matrix(0.491357 -0.870965 0.860952 0.508699 8.91284 74.1685)" fill="#FFE600"/>
<rect width="4.05391" height="8.01463" transform="matrix(0.491357 -0.870965 0.860952 0.508699 39.7161 35.874)" fill="#FFE600"/>
<rect width="4.05391" height="8.01463" transform="matrix(0.491357 -0.870965 0.860952 0.508699 17.8052 74.7144)" fill="#FFE600"/>
<rect width="4.05391" height="4.00731" transform="matrix(0.491357 -0.870965 0.860952 0.508699 10.905 70.6372)" fill="#FFE600"/>
<rect width="4.05391" height="4.00731" transform="matrix(0.491357 -0.870965 0.860952 0.508699 14.355 72.6763)" fill="#E31CB8"/>
<rect width="4.05391" height="4.00731" transform="matrix(0.491357 -0.870965 0.860952 0.508699 36.2661 33.8369)" fill="#E31CB8"/>
<rect width="40.5391" height="4.00731" transform="matrix(0.491357 -0.870965 0.860952 0.508699 16.3472 69.1445)" fill="#FFE600"/>
<rect width="40.5391" height="4.00731" transform="matrix(0.491357 -0.870965 0.860952 0.508699 12.8967 67.106)" fill="#E31CB8"/>
<rect width="40.5391" height="4.00731" transform="matrix(0.491357 -0.870965 0.860952 0.508699 19.7971 71.1836)" fill="#E31CB8"/>
<rect width="8.10782" height="8.01463" transform="matrix(0.491357 -0.870965 0.860952 0.508699 44.0906 52.583)" fill="#FFE600"/>
<rect width="4.05391" height="8.01463" transform="matrix(0.491357 -0.870965 0.860952 0.508699 40.1064 59.6436)" fill="#FFE600"/>
</svg>
