<svg width="80" height="80" viewBox="0 0 80 80" fill="none" xmlns="http://www.w3.org/2000/svg">
<rect y="43" width="80" height="20" fill="#6120FE"/>
<rect x="5" y="53" width="70" height="10" fill="#E31CB8"/>
<rect x="10" y="53" width="60" height="5" fill="#6120FE"/>
<rect x="10" y="68" width="60" height="5" fill="#6120FE"/>
<rect x="5" y="63" width="70" height="5" fill="#6120FE"/>
<rect x="10" y="63" width="60" height="5" fill="#E31CB8"/>
<rect x="10" y="18" width="60" height="5" fill="#6120FE"/>
<rect x="15" y="8" width="50" height="5" fill="#6120FE"/>
<rect x="10" y="13" width="60" height="5" fill="#6120FE"/>
<rect x="5" y="23" width="10" height="10" fill="#6120FE"/>
<rect x="65" y="23" width="10" height="10" fill="#6120FE"/>
<rect x="70" y="48" width="30" height="5" transform="rotate(-90 70 48)" fill="#6120FE"/>
<rect x="75" y="43" width="20" height="5" transform="rotate(-90 75 43)" fill="#6120FE"/>
<rect x="5" y="48" width="30" height="5" transform="rotate(-90 5 48)" fill="#6120FE"/>
<rect y="43" width="20" height="5" transform="rotate(-90 0 43)" fill="#6120FE"/>
<rect x="70" y="48" width="5" height="5" fill="#6120FE"/>
<rect x="5" y="48" width="5" height="5" fill="#6120FE"/>
<rect x="15" y="48" width="50" height="5" fill="#FFE600"/>
<rect x="10" y="43" width="60" height="5" fill="#FFE600"/>
<rect x="15" y="13" width="50" height="5" fill="#FFE600"/>
<rect x="10" y="18" width="60" height="10" fill="#FFE600"/>
<rect x="10" y="28" width="60" height="15" fill="#FFE600"/>
<rect x="70" y="23" width="5" height="20" fill="#FFE600"/>
<rect x="5" y="23" width="5" height="20" fill="#FFE600"/>
<rect x="15" y="38" width="5" height="5" fill="#E31CB8"/>
<rect x="10" y="28" width="5" height="10" fill="#E31CB8"/>
<rect x="15" y="23" width="5" height="5" fill="#E31CB8"/>
<rect x="60" y="38" width="5" height="5" fill="#E31CB8"/>
<rect x="65" y="28" width="5" height="10" fill="#E31CB8"/>
<rect x="60" y="23" width="5" height="5" fill="#E31CB8"/>
<rect x="20" y="23" width="40" height="5" fill="#FFE600"/>
<rect x="20" y="18" width="40" height="5" fill="#E31CB8"/>
<rect x="20" y="43" width="40" height="5" fill="#E31CB8"/>
<rect x="50" y="58" width="10" height="10" fill="#FFE600"/>
<rect x="40" y="58" width="5" height="10" fill="#FFE600"/>
</svg>
