<svg width="153" height="95" viewBox="0 0 153 95" fill="none" xmlns="http://www.w3.org/2000/svg"><path fill="#6120FE" d="M89 61h64v12H89z"/><path fill="#E31CB8" d="M93 65h56v8H93z"/><path fill="#6120FE" d="M97 65h48v4H97zM97 78h48v4H97zM93 73h56v5H93z"/><path fill="#E31CB8" d="M97 73h48v5H97z"/><path fill="#6120FE" d="M101 41h40v4h-40zM93 45h8v4h-8zM141 45h8v4h-8zM149 65V49h4v16zM89 65V49h4v16zM145 61h4v4h-4zM93 61h4v4h-4z"/><path fill="#FFE600" d="M101 61h40v4h-40zM101 45h40v4h-40zM141 49h4v4h-4zM145 49h4v12h-4zM93 49h4v12h-4zM141 57h4v8h-4zM97 57h4v8h-4zM97 49h4v4h-4z"/><path fill="#E31CB8" d="M97 53h4v4h-4zM141 53h4v4h-4z"/><path fill="#FFE600" d="M101 53h40v4h-40z"/><path fill="#E31CB8" d="M101 49h40v4h-40zM101 57h40v4h-40z"/><path fill="#FFE600" d="M129 69h8v9h-8zM121 69h4v9h-4z"/><path fill="#6120FE" d="M89 49h64v12H89z"/><path fill="#E31CB8" d="M93 53h56v8H93z"/><path fill="#6120FE" d="M97 53h48v4H97zM97 65h48v4H97zM93 61h56v4H93z"/><path fill="#E31CB8" d="M97 61h48v4H97z"/><path fill="#6120FE" d="M101 29h40v4h-40zM93 33h8v4h-8zM141 33h8v4h-8zM149 53V37h4v16zM89 53V37h4v16zM145 49h4v4h-4zM93 49h4v4h-4z"/><path fill="#FFE600" d="M101 49h40v4h-40zM101 33h40v4h-40zM141 37h4v4h-4zM145 37h4v12h-4zM93 37h4v12h-4zM141 45h4v8h-4zM97 45h4v8h-4zM97 37h4v4h-4z"/><path fill="#E31CB8" d="M97 41h4v4h-4zM141 41h4v4h-4z"/><path fill="#FFE600" d="M101 41h40v4h-40z"/><path fill="#E31CB8" d="M101 37h40v4h-40zM101 45h40v4h-40z"/><path fill="#FFE600" d="M129 57h8v8h-8zM121 57h4v8h-4z"/><path fill="#6120FE" d="M49 69h64v13H49z"/><path fill="#E31CB8" d="M53 73h56v9H53z"/><path fill="#6120FE" d="M57 73h48v5H57zM57 86h48v4H57zM53 82h56v4H53z"/><path fill="#E31CB8" d="M57 82h48v4H57z"/><path fill="#6120FE" d="M105 69h4v4h-4zM53 69h4v4h-4z"/><path fill="#FFE600" d="M89 78h8v8h-8zM81 78h4v8h-4z"/><path fill="#6120FE" d="M49 57h64v12H49z"/><path fill="#E31CB8" d="M53 61h56v8H53z"/><path fill="#6120FE" d="M57 61h48v4H57zM57 73h48v5H57zM53 69h56v4H53z"/><path fill="#E31CB8" d="M57 69h48v4H57z"/><path fill="#6120FE" d="M105 57h4v4h-4zM53 57h4v4h-4z"/><path fill="#FFE600" d="M89 65h8v8h-8zM81 65h4v8h-4z"/><path fill="#6120FE" d="M49 45h64v12H49z"/><path fill="#E31CB8" d="M53 49h56v8H53z"/><path fill="#6120FE" d="M57 49h48v4H57zM57 61h48v4H57zM53 57h56v4H53z"/><path fill="#E31CB8" d="M57 57h48v4H57z"/><path fill="#6120FE" d="M105 45h4v4h-4zM53 45h4v4h-4z"/><path fill="#FFE600" d="M89 53h8v8h-8zM81 53h4v8h-4z"/><path fill="#6120FE" d="M49 33h64v12H49z"/><path fill="#E31CB8" d="M53 37h56v8H53z"/><path fill="#6120FE" d="M57 37h48v4H57zM57 49h48v4H57zM53 45h56v4H53z"/><path fill="#E31CB8" d="M57 45h48v4H57z"/><path fill="#6120FE" d="M61 12h40v4H61zM53 16h8v4h-8zM101 16h8v4h-8zM109 37V20h4v17zM49 37V20h4v17zM105 33h4v4h-4zM53 33h4v4h-4z"/><path fill="#FFE600" d="M61 33h40v4H61zM61 16h40v4H61zM101 20h4v5h-4zM105 20h4v13h-4zM53 20h4v13h-4zM101 29h4v8h-4zM57 29h4v8h-4zM57 20h4v5h-4z"/><path fill="#E31CB8" d="M57 25h4v4h-4zM101 25h4v4h-4z"/><path fill="#FFE600" d="M61 25h40v4H61z"/><path fill="#E31CB8" d="M61 20h40v5H61zM61 29h40v4H61z"/><path fill="#FFE600" d="M89 41h8v8h-8zM81 41h4v8h-4z"/><path fill="#6120FE" d="M49 20h64v13H49z"/><path fill="#E31CB8" d="M53 25h56v8H53z"/><path fill="#6120FE" d="M57 25h48v4H57zM57 37h48v4H57zM53 33h56v4H53z"/><path fill="#E31CB8" d="M57 33h48v4H57z"/><path fill="#6120FE" d="M61 0h40v4H61zM53 4h8v4h-8zM101 4h8v4h-8zM109 24V8h4v16zM49 24V8h4v16zM105 20h4v5h-4zM53 20h4v5h-4z"/><path fill="#FFE600" d="M61 20h40v5H61zM61 4h40v4H61zM101 8h4v4h-4zM105 8h4v12h-4zM53 8h4v12h-4zM101 16h4v9h-4zM57 16h4v9h-4zM57 8h4v4h-4z"/><path fill="#E31CB8" d="M57 12h4v4h-4zM101 12h4v4h-4z"/><path fill="#FFE600" d="M61 12h40v4H61z"/><path fill="#E31CB8" d="M61 8h40v4H61zM61 16h40v4H61z"/><path fill="#FFE600" d="M89 29h8v8h-8zM81 29h4v8h-4z"/><path fill="#6120FE" d="M17 84l32-57 10 6-31 57z"/><path fill="#E31CB8" d="M23 82l28-49 7 4-28 49z"/><path fill="#6120FE" d="M25 79l24-43 3 2-24 43zM35 85l24-42 3 2-24 42zM30 86l28-49 3 2-28 49z"/><path fill="#E31CB8" d="M32 83l23-42 4 2-24 42z"/><path fill="#6120FE" d="M6 63l20-35 3 2L9 65zM5 72l4-7 4 2-4 7zM29 30l4-7 4 2-4 7zM51 33l-14-8 2-4 14 8zM21 86L7 78l2-4 14 8zM45 34l2-3 4 2-2 3z"/><path fill="#6120FE" d="M19 80l2-3 4 2-2 3z"/><path fill="#FFE600" d="M23 73l20-35 4 2-20 35zM9 65l20-35 4 2-20 35zM33 32l2-4 3 2-2 4zM35 28l2-3 10 6-2 3zM9 74l2-3 10 6-2 3z"/><path fill="#FFE600" d="M40 36l2-4 7 4-2 4zM18 75l2-4 7 4-2 4zM11 71l2-4 3 2-2 4z"/><path fill="#E31CB8" d="M14 73l2-4 4 2-2 4zM36 34l2-4 4 2-2 4z"/><path fill="#FFE600" d="M16 69l20-35 4 2-20 35z"/><path fill="#E31CB8" d="M13 67l20-35 3 2-20 35zM20 71l20-35 3 2-20 35z"/><path fill="#FFE600" d="M44 53l4-7 7 4-4 7zM40 60l2-4 7 4-2 4z"/></svg>
