<svg width="293" height="167" viewBox="0 0 293 167" fill="none" xmlns="http://www.w3.org/2000/svg">
<rect width="2.53975" height="2.54038" transform="matrix(-0.803939 -0.594712 0.593817 -0.8046 32.813 124.628)" fill="#E31CB8"/>
<rect width="2.53975" height="2.54038" transform="matrix(-0.803939 -0.594712 0.593817 -0.8046 29.2632 125.161)" fill="#E31CB8"/>
<rect width="2.53975" height="2.54038" transform="matrix(0.803939 0.594712 0.593817 -0.8046 67.5088 150.293)" fill="#E31CB8"/>
<rect width="2.53975" height="2.54038" transform="matrix(0.803939 0.594712 0.593817 -0.8046 68.0415 153.847)" fill="#E31CB8"/>
<rect width="2.53954" height="5.08" transform="matrix(-0.803939 -0.594712 0.593817 -0.8046 45.7524 145.572)" fill="#E31CB8"/>
<rect width="2.53984" height="2.5403" transform="matrix(0.778913 0.627132 -0.626246 0.779626 255.119 44.4209)" fill="#E31CB8"/>
<rect width="2.53984" height="2.5403" transform="matrix(0.778913 0.627132 -0.626246 0.779626 258.687 44.0322)" fill="#E31CB8"/>
<rect width="2.53984" height="2.5403" transform="matrix(-0.778913 -0.627132 -0.626246 0.779626 221.502 17.3535)" fill="#E31CB8"/>
<rect width="2.53984" height="2.5403" transform="matrix(-0.778913 -0.627132 -0.626246 0.779626 221.117 13.7827)" fill="#E31CB8"/>
<rect width="2.53876" height="5.07879" transform="matrix(0.778913 0.627132 -0.626246 0.779626 243.047 22.9634)" fill="#E31CB8"/>
<rect width="24.8243" height="4.65184" transform="matrix(0.499563 -0.866277 0.865773 0.500437 33.7441 38.564)" fill="#6120FE"/>
<rect width="21.7212" height="3.10123" transform="matrix(0.499563 -0.866277 0.865773 0.500437 35.8618 37.9961)" fill="#E31CB8"/>
<rect width="18.6182" height="1.55061" transform="matrix(0.499563 -0.866277 0.865773 0.500437 36.6367 36.6523)" fill="#6120FE"/>
<rect width="18.6182" height="1.55061" transform="matrix(0.499563 -0.866277 0.865773 0.500437 40.6641 38.98)" fill="#6120FE"/>
<rect width="21.7212" height="1.55061" transform="matrix(0.499563 -0.866277 0.865773 0.500437 38.5464 39.5479)" fill="#6120FE"/>
<rect width="18.6182" height="1.55061" transform="matrix(0.499563 -0.866277 0.865773 0.500437 39.3218 38.2041)" fill="#E31CB8"/>
<rect width="15.5152" height="1.55061" transform="matrix(0.499563 -0.866277 0.865773 0.500437 29.3574 30.6514)" fill="#6120FE"/>
<rect width="3.10346" height="1.55125" transform="matrix(0.499563 -0.866277 0.865773 0.500437 29.1499 34.1167)" fill="#6120FE"/>
<rect width="3.10346" height="1.55125" transform="matrix(0.499563 -0.866277 0.865773 0.500437 38.4502 17.9873)" fill="#6120FE"/>
<rect width="6.20281" height="1.55179" transform="matrix(-0.865773 -0.500437 0.499563 -0.866277 46.7124 19.1792)" fill="#6120FE"/>
<rect width="6.20281" height="1.55179" transform="matrix(-0.865773 -0.500437 0.499563 -0.866277 35.0859 39.3403)" fill="#6120FE"/>
<rect width="1.55119" height="1.55107" transform="matrix(0.499563 -0.866277 0.865773 0.500437 44.5947 19.7476)" fill="#6120FE"/>
<rect width="1.55119" height="1.55107" transform="matrix(0.499563 -0.866277 0.865773 0.500437 34.5195 37.2202)" fill="#6120FE"/>
<rect width="15.5152" height="1.55061" transform="matrix(0.499563 -0.866277 0.865773 0.500437 36.0688 34.5322)" fill="#FFE600"/>
<rect width="15.5152" height="1.55061" transform="matrix(0.499563 -0.866277 0.865773 0.500437 30.7002 31.4277)" fill="#FFE600"/>
<rect width="1.55119" height="1.55107" transform="matrix(0.499563 -0.866277 0.865773 0.500437 39.7925 18.7637)" fill="#FFE600"/>
<rect width="1.55098" height="4.6513" transform="matrix(0.499563 -0.866277 0.865773 0.500437 40.5674 17.4199)" fill="#FFE600"/>
<rect width="1.55098" height="4.6513" transform="matrix(0.499563 -0.866277 0.865773 0.500437 30.4912 34.8921)" fill="#FFE600"/>
<rect width="1.55098" height="3.10087" transform="matrix(0.499563 -0.866277 0.865773 0.500437 42.4775 20.3159)" fill="#FFE600"/>
<rect width="1.55098" height="3.10087" transform="matrix(0.499563 -0.866277 0.865773 0.500437 33.9517 35.1001)" fill="#FFE600"/>
<rect width="1.55119" height="1.55107" transform="matrix(0.499563 -0.866277 0.865773 0.500437 31.2666 33.5479)" fill="#FFE600"/>
<rect width="1.55119" height="1.55107" transform="matrix(0.499563 -0.866277 0.865773 0.500437 32.6089 34.3237)" fill="#E31CB8"/>
<rect width="1.55119" height="1.55107" transform="matrix(0.499563 -0.866277 0.865773 0.500437 41.1353 19.54)" fill="#E31CB8"/>
<rect width="15.5152" height="1.55061" transform="matrix(0.499563 -0.866277 0.865773 0.500437 33.3838 32.9805)" fill="#FFE600"/>
<rect width="15.5152" height="1.55061" transform="matrix(0.499563 -0.866277 0.865773 0.500437 32.042 32.2041)" fill="#E31CB8"/>
<rect width="15.5152" height="1.55061" transform="matrix(0.499563 -0.866277 0.865773 0.500437 34.7266 33.7563)" fill="#E31CB8"/>
<rect width="3.10303" height="3.10123" transform="matrix(0.499563 -0.866277 0.865773 0.500437 44.1792 26.6758)" fill="#FFE600"/>
<rect width="1.55098" height="3.10087" transform="matrix(0.499563 -0.866277 0.865773 0.500437 42.6294 29.3633)" fill="#FFE600"/>
<rect width="24.8243" height="4.65184" transform="matrix(0.499563 -0.866277 0.865773 0.500437 248.596 148.216)" fill="#6120FE"/>
<rect width="21.7212" height="3.10123" transform="matrix(0.499563 -0.866277 0.865773 0.500437 250.714 147.648)" fill="#E31CB8"/>
<rect width="18.6182" height="1.55061" transform="matrix(0.499563 -0.866277 0.865773 0.500437 251.489 146.304)" fill="#6120FE"/>
<rect width="18.6182" height="1.55061" transform="matrix(0.499563 -0.866277 0.865773 0.500437 255.516 148.632)" fill="#6120FE"/>
<rect width="21.7212" height="1.55061" transform="matrix(0.499563 -0.866277 0.865773 0.500437 253.398 149.2)" fill="#6120FE"/>
<rect width="18.6182" height="1.55061" transform="matrix(0.499563 -0.866277 0.865773 0.500437 254.173 147.856)" fill="#E31CB8"/>
<rect width="15.5152" height="1.55061" transform="matrix(0.499563 -0.866277 0.865773 0.500437 244.209 140.304)" fill="#6120FE"/>
<rect width="3.10346" height="1.55125" transform="matrix(0.499563 -0.866277 0.865773 0.500437 244.001 143.769)" fill="#6120FE"/>
<rect width="3.10346" height="1.55125" transform="matrix(0.499563 -0.866277 0.865773 0.500437 253.302 127.64)" fill="#6120FE"/>
<rect width="6.20281" height="1.55179" transform="matrix(-0.865773 -0.500437 0.499563 -0.866277 261.564 128.832)" fill="#6120FE"/>
<rect width="6.20281" height="1.55179" transform="matrix(-0.865773 -0.500437 0.499563 -0.866277 249.938 148.993)" fill="#6120FE"/>
<rect width="1.55119" height="1.55107" transform="matrix(0.499563 -0.866277 0.865773 0.500437 259.447 129.4)" fill="#6120FE"/>
<rect width="1.55119" height="1.55107" transform="matrix(0.499563 -0.866277 0.865773 0.500437 249.371 146.873)" fill="#6120FE"/>
<rect width="15.5152" height="1.55061" transform="matrix(0.499563 -0.866277 0.865773 0.500437 250.921 144.185)" fill="#FFE600"/>
<rect width="15.5152" height="1.55061" transform="matrix(0.499563 -0.866277 0.865773 0.500437 245.552 141.08)" fill="#FFE600"/>
<rect width="1.55119" height="1.55107" transform="matrix(0.499563 -0.866277 0.865773 0.500437 254.645 128.416)" fill="#FFE600"/>
<rect width="1.55098" height="4.6513" transform="matrix(0.499563 -0.866277 0.865773 0.500437 255.419 127.072)" fill="#FFE600"/>
<rect width="1.55098" height="4.6513" transform="matrix(0.499563 -0.866277 0.865773 0.500437 245.343 144.544)" fill="#FFE600"/>
<rect width="1.55098" height="3.10087" transform="matrix(0.499563 -0.866277 0.865773 0.500437 257.33 129.968)" fill="#FFE600"/>
<rect width="1.55098" height="3.10087" transform="matrix(0.499563 -0.866277 0.865773 0.500437 248.804 144.752)" fill="#FFE600"/>
<rect width="1.55119" height="1.55107" transform="matrix(0.499563 -0.866277 0.865773 0.500437 246.119 143.2)" fill="#FFE600"/>
<rect width="1.55119" height="1.55107" transform="matrix(0.499563 -0.866277 0.865773 0.500437 247.461 143.976)" fill="#E31CB8"/>
<rect width="1.55119" height="1.55107" transform="matrix(0.499563 -0.866277 0.865773 0.500437 255.987 129.192)" fill="#E31CB8"/>
<rect width="15.5152" height="1.55061" transform="matrix(0.499563 -0.866277 0.865773 0.500437 248.236 142.633)" fill="#FFE600"/>
<rect width="15.5152" height="1.55061" transform="matrix(0.499563 -0.866277 0.865773 0.500437 246.894 141.856)" fill="#E31CB8"/>
<rect width="15.5152" height="1.55061" transform="matrix(0.499563 -0.866277 0.865773 0.500437 249.579 143.409)" fill="#E31CB8"/>
<rect width="3.10303" height="3.10123" transform="matrix(0.499563 -0.866277 0.865773 0.500437 259.031 136.328)" fill="#FFE600"/>
<rect width="1.55098" height="3.10087" transform="matrix(0.499563 -0.866277 0.865773 0.500437 257.481 139.016)" fill="#FFE600"/>
<rect width="18.7815" height="3.51859" transform="matrix(-0.375426 -0.926852 0.926548 -0.376178 87.5186 19.7295)" fill="#6120FE"/>
<rect width="16.4338" height="2.34573" transform="matrix(-0.375426 -0.926852 0.926548 -0.376178 88.1646 18.2007)" fill="#E31CB8"/>
<rect width="14.0861" height="1.17286" transform="matrix(-0.375426 -0.926852 0.926548 -0.376178 87.7241 17.1113)" fill="#6120FE"/>
<rect width="14.0861" height="1.17286" transform="matrix(-0.375426 -0.926852 0.926548 -0.376178 90.9849 15.7881)" fill="#6120FE"/>
<rect width="16.4338" height="1.17286" transform="matrix(-0.375426 -0.926852 0.926548 -0.376178 90.3379 17.3184)" fill="#6120FE"/>
<rect width="14.0861" height="1.17286" transform="matrix(-0.375426 -0.926852 0.926548 -0.376178 89.8979 16.229)" fill="#E31CB8"/>
<rect width="11.7394" height="1.17342" transform="matrix(-0.375426 -0.926852 0.926548 -0.376178 80.7632 18.6709)" fill="#6120FE"/>
<rect width="2.34787" height="1.17342" transform="matrix(-0.375426 -0.926852 0.926548 -0.376178 82.7324 20.4062)" fill="#6120FE"/>
<rect width="2.34787" height="1.17342" transform="matrix(-0.375426 -0.926852 0.926548 -0.376178 77.4434 7.34863)" fill="#6120FE"/>
<rect width="4.69115" height="1.17338" transform="matrix(-0.926548 0.376178 -0.375426 -0.926852 81.9956 2.96777)" fill="#6120FE"/>
<rect width="4.69115" height="1.17338" transform="matrix(-0.926548 0.376178 -0.375426 -0.926852 88.605 19.2881)" fill="#6120FE"/>
<rect width="1.17347" height="1.17334" transform="matrix(-0.375426 -0.926852 0.926548 -0.376178 81.3491 4.49707)" fill="#6120FE"/>
<rect width="1.17347" height="1.17334" transform="matrix(-0.375426 -0.926852 0.926548 -0.376178 87.0786 18.6416)" fill="#6120FE"/>
<rect width="11.7394" height="1.17342" transform="matrix(-0.375426 -0.926852 0.926548 -0.376178 86.1968 16.4648)" fill="#FFE600"/>
<rect width="11.7394" height="1.17342" transform="matrix(-0.375426 -0.926852 0.926548 -0.376178 81.8506 18.2295)" fill="#FFE600"/>
<rect width="1.17347" height="1.17334" transform="matrix(-0.375426 -0.926852 0.926548 -0.376178 78.5298 6.90869)" fill="#FFE600"/>
<rect width="1.17338" height="3.51837" transform="matrix(-0.375426 -0.926852 0.926548 -0.376178 78.0889 5.8208)" fill="#FFE600"/>
<rect width="1.17338" height="3.51837" transform="matrix(-0.375426 -0.926852 0.926548 -0.376178 83.8184 19.9648)" fill="#FFE600"/>
<rect width="1.17338" height="2.34558" transform="matrix(-0.375426 -0.926852 0.926548 -0.376178 80.7031 6.02637)" fill="#FFE600"/>
<rect width="1.17338" height="2.34558" transform="matrix(-0.375426 -0.926852 0.926548 -0.376178 85.5513 17.9937)" fill="#FFE600"/>
<rect width="1.17347" height="1.17334" transform="matrix(-0.375426 -0.926852 0.926548 -0.376178 83.3774 18.8755)" fill="#FFE600"/>
<rect width="1.17347" height="1.17334" transform="matrix(-0.375426 -0.926852 0.926548 -0.376178 84.4644 18.4351)" fill="#E31CB8"/>
<rect width="1.17347" height="1.17334" transform="matrix(-0.375426 -0.926852 0.926548 -0.376178 79.6162 6.46729)" fill="#E31CB8"/>
<rect width="11.7394" height="1.17342" transform="matrix(-0.375426 -0.926852 0.926548 -0.376178 84.0234 17.3472)" fill="#FFE600"/>
<rect width="11.7394" height="1.17342" transform="matrix(-0.375426 -0.926852 0.926548 -0.376178 82.937 17.7886)" fill="#E31CB8"/>
<rect width="11.7394" height="1.17342" transform="matrix(-0.375426 -0.926852 0.926548 -0.376178 85.1099 16.9062)" fill="#E31CB8"/>
<rect width="2.34769" height="2.34573" transform="matrix(-0.375426 -0.926852 0.926548 -0.376178 85.2856 7.9668)" fill="#FFE600"/>
<rect width="1.17338" height="2.34558" transform="matrix(-0.375426 -0.926852 0.926548 -0.376178 86.1665 10.1426)" fill="#FFE600"/>
<rect width="18.7815" height="3.51859" transform="matrix(-0.375426 -0.926852 0.926548 -0.376178 216.151 163.909)" fill="#6120FE"/>
<rect width="16.4338" height="2.34573" transform="matrix(-0.375426 -0.926852 0.926548 -0.376178 216.796 162.38)" fill="#E31CB8"/>
<rect width="14.0861" height="1.17286" transform="matrix(-0.375426 -0.926852 0.926548 -0.376178 216.356 161.292)" fill="#6120FE"/>
<rect width="14.0861" height="1.17286" transform="matrix(-0.375426 -0.926852 0.926548 -0.376178 219.617 159.968)" fill="#6120FE"/>
<rect width="16.4338" height="1.17286" transform="matrix(-0.375426 -0.926852 0.926548 -0.376178 218.97 161.498)" fill="#6120FE"/>
<rect width="14.0861" height="1.17286" transform="matrix(-0.375426 -0.926852 0.926548 -0.376178 218.53 160.409)" fill="#E31CB8"/>
<rect width="11.7394" height="1.17342" transform="matrix(-0.375426 -0.926852 0.926548 -0.376178 209.395 162.851)" fill="#6120FE"/>
<rect width="2.34787" height="1.17342" transform="matrix(-0.375426 -0.926852 0.926548 -0.376178 211.364 164.585)" fill="#6120FE"/>
<rect width="2.34787" height="1.17342" transform="matrix(-0.375426 -0.926852 0.926548 -0.376178 206.075 151.528)" fill="#6120FE"/>
<rect width="4.69115" height="1.17338" transform="matrix(-0.926548 0.376178 -0.375426 -0.926852 210.627 147.148)" fill="#6120FE"/>
<rect width="4.69115" height="1.17338" transform="matrix(-0.926548 0.376178 -0.375426 -0.926852 217.237 163.468)" fill="#6120FE"/>
<rect width="1.17347" height="1.17334" transform="matrix(-0.375426 -0.926852 0.926548 -0.376178 209.981 148.677)" fill="#6120FE"/>
<rect width="1.17347" height="1.17334" transform="matrix(-0.375426 -0.926852 0.926548 -0.376178 215.71 162.821)" fill="#6120FE"/>
<rect width="11.7394" height="1.17342" transform="matrix(-0.375426 -0.926852 0.926548 -0.376178 214.829 160.645)" fill="#FFE600"/>
<rect width="11.7394" height="1.17342" transform="matrix(-0.375426 -0.926852 0.926548 -0.376178 210.482 162.409)" fill="#FFE600"/>
<rect width="1.17347" height="1.17334" transform="matrix(-0.375426 -0.926852 0.926548 -0.376178 207.162 151.088)" fill="#FFE600"/>
<rect width="1.17338" height="3.51837" transform="matrix(-0.375426 -0.926852 0.926548 -0.376178 206.721 150)" fill="#FFE600"/>
<rect width="1.17338" height="3.51837" transform="matrix(-0.375426 -0.926852 0.926548 -0.376178 212.45 164.145)" fill="#FFE600"/>
<rect width="1.17338" height="2.34558" transform="matrix(-0.375426 -0.926852 0.926548 -0.376178 209.335 150.206)" fill="#FFE600"/>
<rect width="1.17338" height="2.34558" transform="matrix(-0.375426 -0.926852 0.926548 -0.376178 214.183 162.174)" fill="#FFE600"/>
<rect width="1.17347" height="1.17334" transform="matrix(-0.375426 -0.926852 0.926548 -0.376178 212.009 163.057)" fill="#FFE600"/>
<rect width="1.17347" height="1.17334" transform="matrix(-0.375426 -0.926852 0.926548 -0.376178 213.096 162.615)" fill="#E31CB8"/>
<rect width="1.17347" height="1.17334" transform="matrix(-0.375426 -0.926852 0.926548 -0.376178 208.249 150.647)" fill="#E31CB8"/>
<rect width="11.7394" height="1.17342" transform="matrix(-0.375426 -0.926852 0.926548 -0.376178 212.655 161.527)" fill="#FFE600"/>
<rect width="11.7394" height="1.17342" transform="matrix(-0.375426 -0.926852 0.926548 -0.376178 211.569 161.968)" fill="#E31CB8"/>
<rect width="11.7394" height="1.17342" transform="matrix(-0.375426 -0.926852 0.926548 -0.376178 213.742 161.086)" fill="#E31CB8"/>
<rect width="2.34769" height="2.34573" transform="matrix(-0.375426 -0.926852 0.926548 -0.376178 213.917 152.146)" fill="#FFE600"/>
<rect width="1.17338" height="2.34558" transform="matrix(-0.375426 -0.926852 0.926548 -0.376178 214.798 154.323)" fill="#FFE600"/>
<rect width="34.5276" height="6.46851" transform="matrix(-0.375426 -0.926852 0.926548 -0.376178 22.9521 88.4312)" fill="#6120FE"/>
<rect width="30.2116" height="4.31234" transform="matrix(-0.375426 -0.926852 0.926548 -0.376178 24.1401 85.6196)" fill="#E31CB8"/>
<rect width="25.8957" height="2.15617" transform="matrix(-0.375426 -0.926852 0.926548 -0.376178 23.3296 83.6196)" fill="#6120FE"/>
<rect width="25.8957" height="2.15617" transform="matrix(-0.375426 -0.926852 0.926548 -0.376178 29.3228 81.187)" fill="#6120FE"/>
<rect width="30.2116" height="2.15617" transform="matrix(-0.375426 -0.926852 0.926548 -0.376178 28.1353 83.998)" fill="#6120FE"/>
<rect width="25.8957" height="2.15617" transform="matrix(-0.375426 -0.926852 0.926548 -0.376178 27.3252 81.998)" fill="#E31CB8"/>
<rect width="21.5797" height="2.15617" transform="matrix(-0.375426 -0.926852 0.926548 -0.376178 10.5322 86.4863)" fill="#6120FE"/>
<rect width="4.31595" height="2.15617" transform="matrix(-0.375426 -0.926852 0.926548 -0.376178 14.1514 89.6748)" fill="#6120FE"/>
<rect width="4.31595" height="2.15617" transform="matrix(-0.375426 -0.926852 0.926548 -0.376178 4.42871 65.6743)" fill="#6120FE"/>
<rect width="8.62469" height="2.15797" transform="matrix(-0.926548 0.376178 -0.375426 -0.926852 12.7974 57.6187)" fill="#6120FE"/>
<rect width="8.62469" height="2.15797" transform="matrix(-0.926548 0.376178 -0.375426 -0.926852 24.9502 87.6206)" fill="#6120FE"/>
<rect width="2.15797" height="2.15617" transform="matrix(-0.375426 -0.926852 0.926548 -0.376178 11.6099 60.4302)" fill="#6120FE"/>
<rect width="2.15797" height="2.15617" transform="matrix(-0.375426 -0.926852 0.926548 -0.376178 22.1416 86.4316)" fill="#6120FE"/>
<rect width="21.5797" height="2.15617" transform="matrix(-0.375426 -0.926852 0.926548 -0.376178 20.5215 82.4316)" fill="#FFE600"/>
<rect width="21.5797" height="2.15617" transform="matrix(-0.375426 -0.926852 0.926548 -0.376178 12.5308 85.6743)" fill="#FFE600"/>
<rect width="2.15797" height="2.15617" transform="matrix(-0.375426 -0.926852 0.926548 -0.376178 6.42676 64.8638)" fill="#FFE600"/>
<rect width="2.15797" height="6.46851" transform="matrix(-0.375426 -0.926852 0.926548 -0.376178 5.6167 62.8633)" fill="#FFE600"/>
<rect width="2.15797" height="6.46851" transform="matrix(-0.375426 -0.926852 0.926548 -0.376178 16.1489 88.8647)" fill="#FFE600"/>
<rect width="2.15797" height="4.31234" transform="matrix(-0.375426 -0.926852 0.926548 -0.376178 10.4219 63.2407)" fill="#FFE600"/>
<rect width="2.15797" height="4.31234" transform="matrix(-0.375426 -0.926852 0.926548 -0.376178 19.334 85.2427)" fill="#FFE600"/>
<rect width="2.15797" height="2.15617" transform="matrix(-0.375426 -0.926852 0.926548 -0.376178 15.3384 86.8647)" fill="#FFE600"/>
<rect width="2.15797" height="2.15617" transform="matrix(-0.375426 -0.926852 0.926548 -0.376178 17.3359 86.0537)" fill="#E31CB8"/>
<rect width="2.15797" height="2.15617" transform="matrix(-0.375426 -0.926852 0.926548 -0.376178 8.42383 64.0527)" fill="#E31CB8"/>
<rect width="21.5797" height="2.15617" transform="matrix(-0.375426 -0.926852 0.926548 -0.376178 16.5254 84.0537)" fill="#FFE600"/>
<rect width="21.5797" height="2.15617" transform="matrix(-0.375426 -0.926852 0.926548 -0.376178 14.5283 84.8643)" fill="#E31CB8"/>
<rect width="21.5797" height="2.15617" transform="matrix(-0.375426 -0.926852 0.926548 -0.376178 18.5239 83.2422)" fill="#E31CB8"/>
<rect width="4.31595" height="4.31234" transform="matrix(-0.375426 -0.926852 0.926548 -0.376178 18.8462 66.8076)" fill="#FFE600"/>
<rect width="2.15797" height="4.31234" transform="matrix(-0.375426 -0.926852 0.926548 -0.376178 20.4663 70.8081)" fill="#FFE600"/>
<rect width="34.5276" height="6.46851" transform="matrix(-0.375426 -0.926852 0.926548 -0.376178 283.011 108.029)" fill="#6120FE"/>
<rect width="30.2116" height="4.31234" transform="matrix(-0.375426 -0.926852 0.926548 -0.376178 284.199 105.218)" fill="#E31CB8"/>
<rect width="25.8957" height="2.15617" transform="matrix(-0.375426 -0.926852 0.926548 -0.376178 283.389 103.218)" fill="#6120FE"/>
<rect width="25.8957" height="2.15617" transform="matrix(-0.375426 -0.926852 0.926548 -0.376178 289.382 100.785)" fill="#6120FE"/>
<rect width="30.2116" height="2.15617" transform="matrix(-0.375426 -0.926852 0.926548 -0.376178 288.194 103.596)" fill="#6120FE"/>
<rect width="25.8957" height="2.15617" transform="matrix(-0.375426 -0.926852 0.926548 -0.376178 287.384 101.595)" fill="#E31CB8"/>
<rect width="21.5797" height="2.15617" transform="matrix(-0.375426 -0.926852 0.926548 -0.376178 270.591 106.084)" fill="#6120FE"/>
<rect width="4.31595" height="2.15617" transform="matrix(-0.375426 -0.926852 0.926548 -0.376178 274.21 109.273)" fill="#6120FE"/>
<rect width="4.31595" height="2.15617" transform="matrix(-0.375426 -0.926852 0.926548 -0.376178 264.488 85.272)" fill="#6120FE"/>
<rect width="8.62469" height="2.15797" transform="matrix(-0.926548 0.376178 -0.375426 -0.926852 272.856 77.2163)" fill="#6120FE"/>
<rect width="8.62469" height="2.15797" transform="matrix(-0.926548 0.376178 -0.375426 -0.926852 285.01 107.218)" fill="#6120FE"/>
<rect width="2.15797" height="2.15617" transform="matrix(-0.375426 -0.926852 0.926548 -0.376178 271.668 80.0278)" fill="#6120FE"/>
<rect width="2.15797" height="2.15617" transform="matrix(-0.375426 -0.926852 0.926548 -0.376178 282.201 106.029)" fill="#6120FE"/>
<rect width="21.5797" height="2.15617" transform="matrix(-0.375426 -0.926852 0.926548 -0.376178 280.581 102.029)" fill="#FFE600"/>
<rect width="21.5797" height="2.15617" transform="matrix(-0.375426 -0.926852 0.926548 -0.376178 272.59 105.273)" fill="#FFE600"/>
<rect width="2.15797" height="2.15617" transform="matrix(-0.375426 -0.926852 0.926548 -0.376178 266.486 84.4604)" fill="#FFE600"/>
<rect width="2.15797" height="6.46851" transform="matrix(-0.375426 -0.926852 0.926548 -0.376178 265.676 82.4609)" fill="#FFE600"/>
<rect width="2.15797" height="6.46851" transform="matrix(-0.375426 -0.926852 0.926548 -0.376178 276.208 108.462)" fill="#FFE600"/>
<rect width="2.15797" height="4.31234" transform="matrix(-0.375426 -0.926852 0.926548 -0.376178 270.481 82.8389)" fill="#FFE600"/>
<rect width="2.15797" height="4.31234" transform="matrix(-0.375426 -0.926852 0.926548 -0.376178 279.393 104.84)" fill="#FFE600"/>
<rect width="2.15797" height="2.15617" transform="matrix(-0.375426 -0.926852 0.926548 -0.376178 275.397 106.462)" fill="#FFE600"/>
<rect width="2.15797" height="2.15617" transform="matrix(-0.375426 -0.926852 0.926548 -0.376178 277.395 105.651)" fill="#E31CB8"/>
<rect width="2.15797" height="2.15617" transform="matrix(-0.375426 -0.926852 0.926548 -0.376178 268.483 83.6499)" fill="#E31CB8"/>
<rect width="21.5797" height="2.15617" transform="matrix(-0.375426 -0.926852 0.926548 -0.376178 276.585 103.651)" fill="#FFE600"/>
<rect width="21.5797" height="2.15617" transform="matrix(-0.375426 -0.926852 0.926548 -0.376178 274.587 104.462)" fill="#E31CB8"/>
<rect width="21.5797" height="2.15617" transform="matrix(-0.375426 -0.926852 0.926548 -0.376178 278.583 102.84)" fill="#E31CB8"/>
<rect width="4.31595" height="4.31234" transform="matrix(-0.375426 -0.926852 0.926548 -0.376178 278.905 86.4058)" fill="#FFE600"/>
<rect width="2.15797" height="4.31234" transform="matrix(-0.375426 -0.926852 0.926548 -0.376178 280.525 90.4053)" fill="#FFE600"/>
</svg>
