<svg width="293" height="167" viewBox="0 0 293 167" fill="none" xmlns="http://www.w3.org/2000/svg"><path fill="#E31CB8" d="M33 125l-2-2 1-2 2 2zM29 125l-2-1 2-2 2 1zM68 150l2 2 1-2-2-2zM68 154l2 1 2-2-2-1zM46 146l-2-2 3-4 2 1zM255 44l2 2-1 2-2-2zM259 44l2 2-2 2-2-2zM222 17l-2-1-2 2 2 1zM221 14l-2-2-1 2 2 2zM243 23l2 2-3 4-2-2z"/><path fill="#6120FE" d="M34 39l12-22 4 2-12 22z"/><path fill="#E31CB8" d="M36 38l11-19 2 2-10 19z"/><path fill="#6120FE" d="M37 37l9-16h1l-9 16zM41 39l9-16 1 1-9 16z"/><path fill="#6120FE" d="M39 40l10-19 2 1-11 18z"/><path fill="#E31CB8" d="M39 38l10-16 1 1-9 16z"/><path fill="#6120FE" d="M29 31l8-14 1 1-7 13zM29 34l2-3 1 1-1 3zM38 18l2-3 1 1-1 3zM47 19l-6-3 1-1 6 3zM35 39l-5-3 1-1 5 3z"/><path fill="#6120FE" d="M45 20v-2l2 1-1 2zM35 37v-1l2 1-1 1z"/><path fill="#FFE600" d="M36 35l8-14 1 1-8 13zM31 31l7-13 2 1-8 13zM40 19l1-2 1 1-1 2zM41 17v-1l4 2v2zM30 35l1-1 4 2v1z"/><path fill="#FFE600" d="M42 20l1-1 3 1-1 2zM34 35l1-1 2 1v2zM31 34l1-2 1 1v1z"/><path fill="#E31CB8" d="M33 34v-1l2 1-1 1zM41 20l1-2 1 1v1z"/><path fill="#FFE600" d="M33 33l8-13h2l-8 14z"/><path fill="#E31CB8" d="M32 32l8-13 1 1-8 13zM35 34l7-14 2 1-8 14z"/><path fill="#FFE600" d="M44 27l2-3 2 2-1 2zM43 29v-1l3 2-1 1z"/><path fill="#6120FE" d="M249 148l12-21 4 2-12 22z"/><path fill="#E31CB8" d="M251 148l11-19 2 1-11 19z"/><path fill="#6120FE" d="M251 146l10-16 1 1-9 16zM256 149l9-16h1l-9 16zM253 149l11-19 2 1-11 19z"/><path fill="#E31CB8" d="M254 148l9-16 2 1-9 16z"/><path fill="#6120FE" d="M244 140l8-13 1 1-7 13zM244 144l2-3 1 1-2 3zM253 128l2-3 1 1-1 2zM262 129l-6-3 1-2 5 3zM250 149l-5-3v-1l6 3z"/><path fill="#6120FE" d="M259 129l1-1 2 1-1 1zM249 147l1-2 2 1-1 2z"/><path fill="#FFE600" d="M251 144l8-13 1 1-8 13zM246 141l7-13h2l-8 14zM255 128v-1l2 1-1 1z"/><path fill="#FFE600" d="M255 127l1-1 4 2-1 1zM245 145l1-2 4 3-1 1zM257 130l1-1 3 1-1 2zM249 145l1-2 2 2-1 1zM246 143l1-1 1 1v1z"/><path fill="#E31CB8" d="M247 144l1-1h2l-1 2zM256 129l1-1 1 1-1 1z"/><path fill="#FFE600" d="M248 143l8-14 1 1-7 13z"/><path fill="#E31CB8" d="M247 142l8-14 1 1-8 14zM250 143l7-13 2 1-8 13z"/><path fill="#FFE600" d="M259 136l2-2 2 1-1 3zM257 139l1-1 3 1-1 2z"/><path fill="#6120FE" d="M88 20L80 2l4-1 7 17z"/><path fill="#E31CB8" d="M88 18L82 3l2-1 6 15z"/><path fill="#6120FE" d="M88 17L82 4h2l5 13zM91 16L86 3l1-1 5 13zM90 17L84 2h1l6 15z"/><path fill="#E31CB8" d="M90 16L85 3h1l5 13z"/><path fill="#6120FE" d="M81 19L76 8l1-1 5 11zM83 20l-1-2h1l1 2zM77 7V5h1l1 2zM82 3l-4 2-1-1 5-2zM89 19l-5 2v-1l4-2z"/><path fill="#6120FE" d="M81 4V3h1v1zM87 19v-1l1-1v1z"/><path fill="#FFE600" d="M86 16L82 6l1-1 4 11zM82 18L77 7h2l4 11zM79 7l-1-1 1-1 1 1z"/><path fill="#FFE600" d="M78 6V5l3-2v2zM84 20l-1-1 4-1v1z"/><path fill="#FFE600" d="M81 6l-1-1 2-1 1 1zM86 18l-1-1 2-1 1 1zM83 19v-1l1-1v1z"/><path fill="#E31CB8" d="M84 18v-1h1l1 1zM80 6l-1-1h1l1 1z"/><path fill="#FFE600" d="M84 17L80 7l1-1 4 11z"/><path fill="#E31CB8" d="M83 18L79 7l1-1 4 11zM85 17L81 6h1l4 10z"/><path fill="#FFE600" d="M85 8l-1-2 3-1v2zM86 10V9l2-1v1z"/><path fill="#6120FE" d="M216 164l-7-18 3-1 7 18z"/><path fill="#E31CB8" d="M217 162l-6-15 2-1 6 16z"/><path fill="#6120FE" d="M216 161l-5-13h1l5 13zM220 160l-6-13 1-1 6 14z"/><path fill="#6120FE" d="M219 161l-6-15h1l6 15z"/><path fill="#E31CB8" d="M219 160l-6-13h1l6 13z"/><path fill="#6120FE" d="M209 163l-4-11h1l5 10zM211 165v-3h1v2zM206 152l-1-3h1l1 2zM211 147l-5 2v-1l4-2zM217 163l-4 2-1-1 5-2zM210 149v-1l1-1v1z"/><path fill="#6120FE" d="M216 163l-1-1 1-1 1 1z"/><path fill="#FFE600" d="M215 161l-5-11 2-1 4 11zM210 162l-4-10 1-1 5 11zM207 151v-1h1v1zM207 150l-1-1 4-1v1zM212 164v-1l3-1 1 1z"/><path fill="#FFE600" d="M209 150v-1l2-1v1zM214 162v-1l2-1v1zM212 163v-1l1-1v2z"/><path fill="#E31CB8" d="M213 163v-1l1-1v1zM208 151v-1l1-1v1z"/><path fill="#FFE600" d="M213 162l-5-11 1-1 5 11z"/><path fill="#E31CB8" d="M212 162l-5-11h1l5 11zM214 161l-5-11h1l5 11z"/><path fill="#FFE600" d="M214 152l-1-2 2-1 1 2zM215 154l-1-1 2-1 1 1z"/><path fill="#6120FE" d="M23 88L10 56l6-2 13 32z"/><path fill="#E31CB8" d="M24 86L13 58l4-2 11 28z"/><path fill="#6120FE" d="M23 84l-9-24 2-1 9 24zM29 81l-9-24 2-1 9 24z"/><path fill="#6120FE" d="M28 84L17 56l2-1 11 28z"/><path fill="#E31CB8" d="M27 82l-9-24 2-1 9 24z"/><path fill="#6120FE" d="M11 86L2 66h2l9 20zM14 90l-1-4 2-1 1 4zM4 66l-1-4 2-1 1 4zM13 58l-8 3-1-2 8-3zM25 88l-8 3-1-2 8-3z"/><path fill="#6120FE" d="M12 60l-1-2h2l1 2zM22 86l-1-2h2l1 2z"/><path fill="#FFE600" d="M21 82l-9-20h2l9 20zM13 86L4 66l2-1 9 20zM6 65v-2l2-1v2z"/><path fill="#FFE600" d="M6 63l-1-2 6-3 1 2zM16 89l-1-2 6-3 1 2z"/><path fill="#FFE600" d="M10 63v-2l4-1v2zM19 85v-2l3-1 1 2zM15 87v-2l2-1v2z"/><path fill="#E31CB8" d="M17 86v-2l2-1v2zM8 64v-2l2-1v2z"/><path fill="#FFE600" d="M17 84L8 64l2-1 9 20z"/><path fill="#E31CB8" d="M15 85L6 65l2-1 9 20zM19 83l-9-20 2-1 9 20z"/><path fill="#FFE600" d="M19 67l-2-4 4-2 2 4zM20 71v-2l4-2v2z"/><path fill="#6120FE" d="M283 108l-13-32 6-2 13 32z"/><path fill="#E31CB8" d="M284 105l-11-28 4-1 11 28z"/><path fill="#6120FE" d="M283 103l-9-24 2-1 9 24zM289 101l-9-24 2-1 9 24z"/><path fill="#6120FE" d="M288 104l-11-28 2-1 11 28z"/><path fill="#E31CB8" d="M287 102l-9-24 2-1 9 24z"/><path fill="#6120FE" d="M271 106l-9-20 3-1 8 20zM274 109l-1-4 2-1 1 4zM264 85l-1-4 2-1 2 4zM273 77l-8 3-1-2 8-3zM285 107l-8 3-1-2 8-3zM272 80l-1-2 2-1 1 2z"/><path fill="#6120FE" d="M282 106l-1-2 2-1 1 2z"/><path fill="#FFE600" d="M281 102l-9-20 3-1 8 20zM273 105l-9-20 3-1 8 20zM266 84v-2h2l1 2zM266 82l-1-2 6-2 1 2zM276 108l-1-2 6-2 1 2z"/><path fill="#FFE600" d="M270 83v-2l4-2v2zM279 105v-2l4-2v2zM275 106v-2h2v2z"/><path fill="#E31CB8" d="M277 106v-2l2-1v2zM268 84v-2l2-1 1 2z"/><path fill="#FFE600" d="M277 104l-9-20 3-1 8 20z"/><path fill="#E31CB8" d="M275 104l-9-20h3l8 20zM279 103l-9-20 3-1 8 20z"/><path fill="#FFE600" d="M279 86l-2-4 4-1 2 4zM281 90l-1-2 4-1 1 2z"/></svg>
