<svg width="75" height="45" viewBox="0 0 75 45" fill="none" xmlns="http://www.w3.org/2000/svg"><path fill="#31CEFF" d="M5 5h65v35H5z"/><path d="M35 15v-5h-5v5h5zM15 15h5v5h5v5h-5v5h-5v-5h-5v-5h5v-5zM45 15v-5h-5v5h5z" fill="#6120FE"/><path fill-rule="evenodd" clip-rule="evenodd" d="M60 20v-5h-5v5h-5v5h5v5h5v-5h5v-5h-5zm0 0v5h-5v-5h5z" fill="#6120FE"/><path fill-rule="evenodd" clip-rule="evenodd" d="M65 5V0H10v5H5v5H0v25h5v5h5v5h15v-5h25v5h15v-5h5v-5h5V10h-5V5h-5zm0 0v5h5v25h-5v5H50v-5H25v5H10v-5H5V10h5V5h55z" fill="#6120FE"/></svg>
