<svg width="66" height="40" viewBox="0 0 75 45" fill="none" xmlns="http://www.w3.org/2000/svg">
<rect x="5" y="5" width="65" height="35" fill="#E31CB8"/>
<path d="M35 15V10H30V15H35Z" fill="#FFE600"/>
<path d="M15 15H20V20H25V25H20V30H15V25H10V20H15V15Z" fill="#FFE600"/>
<path d="M45 15V10H40V15H45Z" fill="#FFE600"/>
<path fill-rule="evenodd" clip-rule="evenodd" d="M60 20V15H55V20H50V25H55V30H60V25H65V20H60ZM60 20V25H55V20H60Z" fill="#FFE600"/>
<path fill-rule="evenodd" clip-rule="evenodd" d="M65 5V2.40413e-06L10 0V5H5V10H0V35H5V40H10V45H25V40H50V45H65V40H70V35H75V10H70V5L65 5ZM65 5V10H70V35H65V40H50V35H25V40H10V35H5V10H10V5L65 5Z" fill="#FFE600"/>
</svg>
