<svg width="55" height="50" viewBox="0 0 55 50" fill="none" xmlns="http://www.w3.org/2000/svg">
<path d="M35 5H45V10H50V25H45V30H40V35H35V40H30V45H25V40H20V35H15V30H10V25H5V10H10V5H20V10H35V5Z" fill="#E31CB8"/>
<rect x="40" y="10" width="5" height="10" fill="white"/>
<path d="M35 0H45V5H35V0Z" fill="#9A1FE2"/>
<path d="M35 5V10H30V5H35Z" fill="#9A1FE2"/>
<path d="M50 10H45V5H50V10Z" fill="#9A1FE2"/>
<path d="M50 25V10H55V25H50Z" fill="#9A1FE2"/>
<path d="M45 30V25H50V30H45Z" fill="#9A1FE2"/>
<path d="M40 35V30H45V35H40Z" fill="#9A1FE2"/>
<path d="M35 40V35H40V40H35Z" fill="#9A1FE2"/>
<path d="M30 45V40H35V45H30Z" fill="#9A1FE2"/>
<path d="M25 45H30V50H25V45Z" fill="#9A1FE2"/>
<path d="M20 40H25V45H20V40Z" fill="#9A1FE2"/>
<path d="M15 35H20V40H15V35Z" fill="#9A1FE2"/>
<path d="M10 30H15V35H10V30Z" fill="#9A1FE2"/>
<path d="M5 25H10V30H5V25Z" fill="#9A1FE2"/>
<path d="M5 10V25H0V10H5Z" fill="#9A1FE2"/>
<path d="M10 5H5V10H10V5Z" fill="#9A1FE2"/>
<path d="M20 5H10V0H20V5Z" fill="#9A1FE2"/>
<path d="M20 5V10H25V5H20Z" fill="#9A1FE2"/>
</svg>
