<svg width="55" height="50" viewBox="0 0 55 50" fill="none" xmlns="http://www.w3.org/2000/svg"><path d="M35 5h10v5h5v15h-5v5h-5v5h-5v5h-5v5h-5v-5h-5v-5h-5v-5h-5v-5H5V10h5V5h10v5h15V5z" fill="#E31CB8"/><path fill="#fff" d="M40 10h5v10h-5z"/><path d="M35 0h10v5H35V0zM35 5v5h-5V5h5zM50 10h-5V5h5v5zM50 25V10h5v15h-5zM45 30v-5h5v5h-5zM40 35v-5h5v5h-5zM35 40v-5h5v5h-5zM30 45v-5h5v5h-5zM25 45h5v5h-5v-5zM20 40h5v5h-5v-5zM15 35h5v5h-5v-5zM10 30h5v5h-5v-5zM5 25h5v5H5v-5zM5 10v15H0V10h5zM10 5H5v5h5V5zM20 5H10V0h10v5zM20 5v5h5V5h-5z" fill="#9A1FE2"/></svg>
