<svg width="50" height="50" viewBox="0 0 50 50" fill="none" xmlns="http://www.w3.org/2000/svg">
<path d="M5 50L45 50L45 45L50 45L50 5L45 5L45 -4.37114e-07L5 -3.93402e-06L5 5L3.93402e-06 5L4.37114e-07 45L5 45L5 50Z" fill="#E31CB8"/>
<rect x="45" y="45" width="40" height="40" transform="rotate(-180 45 45)" fill="#6120FE"/>
<path d="M14.2857 40V35.7143H10V31.4286H18.5714V35.7143H31.4286V22.8571H10V10H35.7143V14.2857H18.5714V18.5714H35.7143V22.8571H40V35.7143H35.7143V40H14.2857Z" fill="#FFE600"/>
</svg>
