<svg width="50" height="50" viewBox="0 0 50 50" fill="none" xmlns="http://www.w3.org/2000/svg">
<path d="M50 45L50 5L45 5L45 -2.18557e-07L5 -1.96701e-06L5 5L-2.18557e-07 5L-1.96701e-06 45L5 45L5 50L45 50L45 45L50 45Z" fill="#E31CB8"/>
<rect x="45" y="5" width="40" height="40" transform="rotate(90 45 5)" fill="#6120FE"/>
<path d="M18.5714 40V27.1429H22.8571V22.8571H27.1429V18.5714H31.4286V14.2857H18.5714V18.5714H10V10H40V18.5714H35.7143V22.8571H31.4286V27.1429H27.1429V40H18.5714Z" fill="#FFE600"/>
</svg>
