<svg width="50" height="50" viewBox="0 0 50 50" fill="none" xmlns="http://www.w3.org/2000/svg">
<path d="M50 45L50 5L45 5L45 -2.18557e-07L5 -1.96701e-06L5 5L-2.18557e-07 5L-1.96701e-06 45L5 45L5 50L45 50L45 45L50 45Z" fill="#E31CB8"/>
<rect x="45" y="5" width="40" height="40" transform="rotate(90 45 5)" fill="#6120FE"/>
<path d="M14.2857 40V35.7143H10V18.5714H14.2857V14.2857H18.5714V10H35.7143V14.2857H22.8571V18.5714H18.5714V22.8571H35.7143V27.1429H40V35.7143H35.7143V40H14.2857ZM18.5714 35.7143H31.4286V27.1429H18.5714V35.7143Z" fill="#FFE600"/>
</svg>
