<svg width="50" height="50" viewBox="0 0 50 50" fill="none" xmlns="http://www.w3.org/2000/svg">
<path d="M5 50L45 50L45 45L50 45L50 5L45 5L45 -4.37114e-07L5 -3.93402e-06L5 5L3.93402e-06 5L4.37114e-07 45L5 45L5 50Z" fill="#E31CB8"/>
<rect x="45" y="45" width="40" height="40" transform="rotate(-180 45 45)" fill="#6120FE"/>
<path d="M10 40V31.4286H14.2857V27.1429H18.5714V22.8571H27.1429V18.5714H31.4286V14.2857H18.5714V18.5714H10V14.2857H14.2857V10H35.7143V14.2857H40V22.8571H35.7143V27.1429H31.4286V31.4286H22.8571V35.7143H40V40H10Z" fill="#FFE600"/>
</svg>
