<svg width="106" height="100" viewBox="0 0 106 100" fill="none" xmlns="http://www.w3.org/2000/svg">
<path d="M39.0531 27.7776H66.9479V33.3331H72.5268V61.1109H66.9479V72.2221H39.0532V61.1109L33.4741 61.1109L33.4741 33.3331H39.0531V27.7776Z" fill="none"/>
<path d="M39.0523 22.2224H66.9471V27.7778H72.5258V33.3334H66.9468L66.9471 27.7778L39.0523 27.7779V22.2224Z" fill="#E31CB8"/>
<path d="M66.9471 72.2223H72.5258V61.1112H66.9468L66.9471 72.2223L50.2103 72.2223V44.4445H44.6314V72.2223L39.0523 72.2223V94.4445H44.6314V100H61.3682V94.4445H66.9471V72.2223Z" fill="#E31CB8"/>
<path d="M27.8943 61.1112V33.3334H33.4732V61.1112H27.8943Z" fill="#E31CB8"/>
<path d="M72.5258 33.3334V61.1112H78.1048V33.3334L72.5258 33.3334Z" fill="#E31CB8"/>
<path d="M55.7894 44.4444H61.3684V72.2221H55.7894V44.4444Z" fill="#E31CB8"/>
<path d="M33.4733 27.7778L39.0523 27.7779L39.0523 33.3334L33.4732 33.3334L33.4733 27.7778Z" fill="#E31CB8"/>
<path d="M39.0523 61.1111L33.4732 61.1112L33.4733 72.2222L39.0523 72.2223L39.0523 61.1111Z" fill="#E31CB8"/>
<rect x="44.6313" y="77.778" width="16.7369" height="16.6667" fill="#9A1FE2"/>
<rect x="44.6313" y="38.889" width="16.7369" height="5.55556" fill="#E31CB8"/>
</svg>
