<svg width="356" height="132" viewBox="0 0 356 132" fill="none" xmlns="http://www.w3.org/2000/svg"><path d="M10 48V4h13v38h25v6H10zm48 0v-6h-6V23h6v-6h31v6h6v12H64v7h25v6H58zm6-19h19v-6H64v6zm54 19V23h-13v-6h13V4h12v13h13v6h-13v25h-12zm41-25v-6h6V4h13v13h-6v6h-13zm35 25v-6h31v-7h-25v-6h-6v-6h6v-6h32v6h-25v6h25v6h6v7h-6v6h-38z" fill="#E31CB8"/><path d="M6 44V0h13v38h25v6H6zm48 0v-6h-6V19h6v-6h31v6h6v12H60v7h25v6H54zm6-19h19v-6H60v6zm54 19V19h-13v-6h13V0h12v13h13v6h-13v25h-12zm41-25v-6h6V0h13v13h-6v6h-13zm35 25v-6h31v-7h-25v-6h-6v-6h6v-6h32v6h-25v6h25v6h6v7h-6v6h-38z" fill="#FFE600"/><path d="M115 132V95h38v6h6v12h-6v7h-25v12h-13zm13-19h18v-12h-18v12zm41 13v-6h12V88h-6v-6h19v38h12v6h-37zm47 0v-6h-6v-7h6v-6h25v-6h-25v-6h32v6h6v25h-38zm7-6h18v-7h-18v7zm41 12v-6h25v-6h-25v-7h-6V95h12v18h19V95h12v31h-6v6h-31zm54-19V82h18v19h-6v12h-12zm0 13v-6h12v6h-12z" fill="#E31CB8"/><path d="M111 128V91h38v6h6v12h-6v7h-25v12h-13zm13-19h18V97h-18v12zm41 13v-6h12V84h-6v-6h19v38h12v6h-37zm47 0v-6h-6v-7h6v-6h25v-6h-25v-6h32v6h6v25h-38zm7-6h18v-7h-18v7zm41 12v-6h25v-6h-25v-7h-6V91h12v18h19V91h12v31h-6v6h-31zm54-19V78h18v19h-6v12h-12zm0 13v-6h12v6h-12z" fill="#FFE600"/></svg>
