<svg width="356" height="132" viewBox="0 0 356 132" fill="none" xmlns="http://www.w3.org/2000/svg">
<path d="M10.25 47.75V4H22.75V41.5H47.75V47.75H10.25ZM57.75 47.75V41.5H51.5V22.75H57.75V16.5H89V22.75H95.25V35.25H64V41.5H89V47.75H57.75ZM64 29H82.75V22.75H64V29ZM117.75 47.75V22.75H105.25V16.5H117.75V4H130.25V16.5H142.75V22.75H130.25V47.75H117.75ZM159 22.75V16.5H165.25V4H177.75V16.5H171.5V22.75H159ZM194 47.75V41.5H225.25V35.25H200.25V29H194V22.75H200.25V16.5H231.5V22.75H206.5V29H231.5V35.25H237.75V41.5H231.5V47.75H194Z" fill="#E31CB8"/>
<path d="M6.25 43.75V0H18.75V37.5H43.75V43.75H6.25ZM53.75 43.75V37.5H47.5V18.75H53.75V12.5H85V18.75H91.25V31.25H60V37.5H85V43.75H53.75ZM60 25H78.75V18.75H60V25ZM113.75 43.75V18.75H101.25V12.5H113.75V0H126.25V12.5H138.75V18.75H126.25V43.75H113.75ZM155 18.75V12.5H161.25V0H173.75V12.5H167.5V18.75H155ZM190 43.75V37.5H221.25V31.25H196.25V25H190V18.75H196.25V12.5H227.5V18.75H202.5V25H227.5V31.25H233.75V37.5H227.5V43.75H190Z" fill="#FFE600"/>
<path d="M115 132V94.5H152.5V100.75H158.75V113.25H152.5V119.5H127.5V132H115ZM127.5 113.25H146.25V100.75H127.5V113.25ZM168.75 125.75V119.5H181.25V88.25H175V82H193.75V119.5H206.25V125.75H168.75ZM216.25 125.75V119.5H210V113.25H216.25V107H241.25V100.75H216.25V94.5H247.5V100.75H253.75V125.75H216.25ZM222.5 119.5H241.25V113.25H222.5V119.5ZM263.75 132V125.75H288.75V119.5H263.75V113.25H257.5V94.5H270V113.25H288.75V94.5H301.25V125.75H295V132H263.75ZM317.5 113.25V82H336.25V100.75H330V113.25H317.5ZM317.5 125.75V119.5H330V125.75H317.5Z" fill="#E31CB8"/>
<path d="M111 128V90.5H148.5V96.75H154.75V109.25H148.5V115.5H123.5V128H111ZM123.5 109.25H142.25V96.75H123.5V109.25ZM164.75 121.75V115.5H177.25V84.25H171V78H189.75V115.5H202.25V121.75H164.75ZM212.25 121.75V115.5H206V109.25H212.25V103H237.25V96.75H212.25V90.5H243.5V96.75H249.75V121.75H212.25ZM218.5 115.5H237.25V109.25H218.5V115.5ZM259.75 128V121.75H284.75V115.5H259.75V109.25H253.5V90.5H266V109.25H284.75V90.5H297.25V121.75H291V128H259.75ZM313.5 109.25V78H332.25V96.75H326V109.25H313.5ZM313.5 121.75V115.5H326V121.75H313.5Z" fill="#FFE600"/>
</svg>
