<svg version="1.1" id="Слой_1" xmlns="http://www.w3.org/2000/svg" x="0" y="0" viewBox="0 0 128 94" xml:space="preserve"><style>.st1{fill:#ffe600}.st2{fill:#e31cb8}</style><path fill-rule="evenodd" clip-rule="evenodd" fill="#ffe600" d="M78.4 45.4l-3.8 1.8 1.8 3.8-3.7 1.8 1.8 3.8-3.8 1.9 1.8 3.8-3.8 1.8 1.8 3.8-3.7 1.8 1.8 3.8-3.8 1.8 1.8 3.8-3.8 1.8 1.9 3.8-7.6 3.7-1.8-3.8 3.8-1.8-3.6-7.6 3.7-1.9-3.6-7.6 3.8-1.8-3.6-7.6 3.7-1.8-3.6-7.6-11.3 5.5-1.8-3.8 3.8-1.8-1.8-3.8 3.7-1.9-1.8-3.8 3.8-1.8-1.8-3.8 3.8-1.8-1.9-3.8 3.8-1.8-1.8-3.8 3.8-1.8-1.8-3.8 3.7-1.8-1.8-3.8 7.6-3.7 1.8 3.8-3.8 1.8 1.8 3.8 1.8 3.8-3.7 1.8 3.6 7.6-3.8 1.9 3.6 7.6-3.7 1.8 3.6 7.6 3.7-1.8 5.3-2.6 2.3-1.1z"/><path class="st1" d="M56.4 18.7l-3.8 1.8zM56.4 18.7l-3.8 1.8zM124.3 38.1l-.8 2.9-2.9-.8L119 46l-2.8-.8-.9 2.9-.8 2.9-2.8-.8L110 56l-2.8-.8-1.6 5.8 8.6 2.4-.8 2.9-2.9-.8-.8 2.9-2.9-.8-.8 2.9-2.8-.8-.9 2.9-2.8-.8-.8 2.9-2.9-.8-.8 2.9-2.9-.8-.8 2.9-2.9-.8-.8 2.9-5.7-1.7.8-2.9 2.8.9.8-2.9.9-2.9 2.8.8 1.6-5.8 2.9.8 1.6-5.8 2.9.8 1.6-5.8-8.6-2.4.8-2.9 1.1.3 1.8.5.8-2.9 2.8.8.8-2.9 2.9.8.8-2.9 2.9.8.8-2.9 2.9.8.8-2.9 2.9.8.8-2.9 2.9.8.8-2.9zM91.3 78.9l-2.9-.8zM91.3 78.9l-2.9-.8zM95 76.8l-2.9-.8zM91.3 78.9l-2.9-.8zM95 76.8l-2.9-.8zM38.3 77.2l-2.8 5.2-2.7-1.4 1.5-2.7-5.3-2.9 1.5-2.6-5.2-2.9 1.4-2.7-5.2-2.9 1.5-2.6-2.7-1.5-2.6-1.4-4.3 7.9-2.6-1.5 1.4-2.6-2.6-1.5 1.4-2.6L8.4 57l1.5-2.6-2.6-1.5 1.4-2.6-2.6-1.5 1.4-2.6-2.6-1.5 1.5-2.6-2.6-1.5L5.2 38l-2.6-1.4 2.9-5.3 2.6 1.5-1.4 2.6 5.2 2.9-1.4 2.6 2.6 1.5 2.6 1.5-1.5 2.6 2.6 1.4 2.7 1.5L18 52l5.2 3 4.4-7.9 2.6 1.4-1.4 2.7 2.6 1.4-1.5 2.7 2.6 1.4-1.4 2.6 2.6 1.5-1.5 2.6 2.7 1.5-1.5 2.6L36 69l-1.4 2.6 2.6 1.5-1.5 2.6z"/><path class="st1" d="M30.5 72.8L29 75.4l1.5-2.6z"/><path class="st1" d="M30.5 72.8L29 75.4l1.5-2.6z"/><path class="st1" d="M30.5 72.8L29 75.4l1.5-2.6z"/><path class="st2" d="M14.2 46.5l1.5-2.6 5.2 2.9-1.4 2.6zM38.6 70.5l-1.4 2.6-2.6-1.5L36 69zM64.8 75.3l3.8-1.8 1.8 3.8-3.8 1.8zM59.2 73.3l-3.7 1.9-3.7-7.6 3.8-1.9zM74.3 66.1l-3.8 1.8-1.8-3.8 3.8-1.8zM23 61.7l-1.5 2.6-2.6-1.4-4.4 7.8-2.6-1.4-2.6-1.5 1.5-2.6 2.6 1.5 4.3-7.9zM69.4 26.4l-3.8 1.8-3.6-7.6 3.7-1.8zM80.2 49.2L76.4 51l-1.8-3.8 3.8-1.8-1.8-3.8 3.8-1.8 1.8 3.8-3.8 1.8zM5.5 31.3l-2.9 5.3L0 35.1l4.4-7.9 5.2 2.9-1.5 2.7zM106.8 67.6l2.9.8-.8 2.9-2.9-.8zM90 72.3l-2.8-.8 1.6-5.8 2.8.8zM99.5 71.8l2.8.8-.8 2.9-2.8-.8zM5.2 38l-1.4 2.6-2.6-1.4 1.4-2.6zM114.1 41.5l-2.9-.8.8-2.9 2.9.8zM92.1 76l2.9.8-.8 2.9-2.9-.8zM110.5 65.5l2.9.8-.8 2.9-2.9-.8zM66.8 69.7l3.7-1.8 1.9 3.8-3.8 1.8zM44.9 33.5l3.8-1.8 1.8 3.8-3.8 1.8zM59.5 54.5l-3.7 1.8-1.8-3.8L42.6 58l-1.8-3.8 15.1-7.3zM11 58.5l-1.4 2.6L7 59.6 8.4 57z"/><path class="st2" d="M6.7 35.4l1.4-2.6 5.3 2.9-1.5 2.6zM88.4 78.1l2.9.8-.8 2.9-2.9-.8zM103.2 69.7l2.8.8-.8 2.9-2.9-.8zM78.6 36l1.8 3.8L69 45.3l-3.7 1.8-3.6-7.6 3.7-1.8 1.8 3.8zM10.5 40.9l1.4-2.6 5.2 2.9-1.4 2.7zM74.5 56.6l1.8 3.8-3.8 1.9-1.8-3.8 3.8-1.9-1.8-3.8 3.7-1.8 1.8 3.8zM69.7 7.6l-3.8 1.8-1.8-3.8-7.6 3.7 1.8 3.8-3.7 1.8-1.8-3.8 3.7-1.8-1.8-3.8L66 0zM12.2 62.6l-1.4 2.6-2.7-1.5 1.5-2.6zM111.7 50.2l2.8.8-1.6 5.8-2.9-.8zM59.4 63.9l-3.8 1.8-3.6-7.5 3.8-1.9zM18 52l1.5-2.6 2.6 1.5 4.3-7.9 2.6 1.4 2.7 1.5-1.5 2.6-2.6-1.4-4.4 7.9zM7.5 46.2l-1.4 2.6-2.6-1.4 1.4-2.7z"/><path class="st2" d="M28.8 51.2l1.4-2.7 2.6 1.5-1.4 2.6zM106.7 45.7l-2.9-.8.8-2.9 2.9.8zM85.5 77.3l-2.8-.9 1.6-5.8 2.9.9zM59.1 82.8l-3.8 1.8-3.6-7.6 3.8-1.8zM120.6 40.2l2.9.8-1.6 5.8-2.9-.8z"/><path class="st2" d="M62.8 80.9l3.8-1.8 1.8 3.8-3.7 1.8 1.8 3.8L55.1 94l-3.6-7.6 3.8-1.8 1.8 3.8 7.6-3.7zM99.3 49.9l-2.8-.8.7-2.9 2.9.8zM128 36.1l-1.6 5.7-2.9-.8.8-2.9-5.7-1.6.8-2.9z"/><path class="st2" d="M103 47.8l-2.9-.8.8-2.9 2.9.8zM42.9 39.2l3.8-1.9 1.8 3.8-3.7 1.9zM26.7 67.2l-1.4 2.7-5.3-3 1.5-2.6zM39.8 74.5l-1.5 2.7-2.6-1.5 1.5-2.6zM117.8 39.4l-2.9-.8.8-2.9 2.9.8zM107.2 55.2l2.8.8-.8 2.9 8.7 2.4-1.6 5.8-2.9-.8.8-2.9-8.6-2.4zM4.7 51.5l1.4-2.7 2.6 1.5-1.4 2.6zM6.4 42.1l-1.5 2.6-2.6-1.4 1.5-2.7zM9.9 54.4L8.4 57l-2.6-1.4 1.5-2.7zM69.5 17l-3.8 1.8-3.6-7.6 3.8-1.8zM116.2 45.2l2.8.8-1.6 5.8-2.9-.8zM69.2 35.8l-3.8 1.9-3.6-7.6 3.8-1.9zM35.2 58.2l-1.5 2.6-2.6-1.5 1.4-2.6zM50.8 16.7l3.8-1.8 1.8 3.8-3.8 1.8 1.8 3.8-3.8 1.8-1.8-3.8 3.8-1.8zM38.3 77.2l2.7 1.4-4.4 7.9-5.2-2.9 1.4-2.6 2.7 1.4zM37.5 66.4L36 69l-2.6-1.5 1.5-2.6zM41 44.8l3.8-1.8 1.8 3.8-3.8 1.8 1.8 3.8-3.8 1.8-1.8-3.8 3.8-1.8zM110.4 43.6l-2.9-.8.8-2.9 2.9.8zM30.5 72.8L29 75.4l-5.2-2.9 1.5-2.6zM95.7 52l-2.9-.8.8-2.9 2.9.8zM94.5 67.3l-2.9-.8 1.6-5.8 2.9.8z"/><path class="st2" d="M36.3 62.3l-1.4 2.6-2.7-1.5 1.5-2.6zM34.3 78.3L32.8 81l-5.2-2.9 1.4-2.7zM95.8 73.9l2.9.8-.8 2.9-2.9-.8zM99 62.3l-2.9-.8.8-2.9-8.6-2.4.8-2.9.8-2.9 2.9.8-.8 2.9 8.6 2.4zM46.9 27.9l3.7-1.8 1.9 3.8-3.8 1.8zM81.9 79.3l5.7 1.7-.8 2.9-8.6-2.5.8-2.9.8-2.9 2.9.8zM32.5 56.7l-2.6-1.5 1.5-2.6 2.6 1.5-1.5 2.6z"/><path class="st2" d="M34 54.1l-1.5 2.6-2.6-1.4 1.5-2.7z"/></svg>
