<svg width="60" height="95" viewBox="0 0 60 95" fill="none" xmlns="http://www.w3.org/2000/svg"><path d="M60 0v10h-5v10h-5v10h-5v10h-5v5h15v10h-5v5h-5v5h-5v5h-5v5h-5v5h-5v5h-5v5h-5v5H0V85h5V75h5V65h5V55h5v-5H5V40h5v-5h5v-5h5v-5h5v-5h5v-5h5v-5h5V5h5V0h15z" fill="#FFE600"/><path fill-rule="evenodd" clip-rule="evenodd" d="M60 0H45v5h-5v5h-5v5h-5v5h-5v5h-5v5h-5v5h-5v5H5v10h15v5h-5v10h-5v10H5v10H0v10h15v-5h5v-5h5v-5h5v-5h5v-5h5v-5h5v-5h5v-5h5V45H40v-5h5V30h5V20h5V10h5V0zm-5 10h-5v10h-5v10h-5v10h-5v10h15v5h-5v5h-5v5h-5v5h-5v5h-5v5h-5v5h-5v5H5v-5h5V75h5V65h5V55h5V45H10v-5h5v-5h5v-5h5v-5h5v-5h5v-5h5v-5h5V5h10v5z" fill="#E31CB8"/></svg>
