<svg width="128" height="94" viewBox="0 0 128 94" fill="none" xmlns="http://www.w3.org/2000/svg">
<path fill-rule="evenodd" clip-rule="evenodd" d="M66.0468 2.96628e-08L54.725 5.46258L56.5341 9.25889L52.7606 11.0795L54.5699 14.8763L50.7963 16.697L52.6059 20.4943L63.9277 15.0318L62.1184 11.235L65.7374 18.8284L69.5113 17.0076L65.8923 9.41329L69.666 7.59255L66.0468 2.96628e-08Z" fill="#FFE600"/>
<path d="M65.5829 28.2453L69.3566 26.4246L65.7374 18.8298L61.9635 20.6506L63.7729 24.4476L61.9635 20.6519L46.8677 27.9353L48.6767 31.7312L44.9032 33.5518L46.7129 37.3492L65.5829 28.2453L61.8089 30.0659L65.4281 37.6607L69.202 35.8398L65.5829 28.2453Z" fill="#FFE600"/>
<path d="M42.6297 58.0028L53.9518 52.5401L55.7613 56.3372L70.857 49.0538L72.6664 52.8508L80.2143 49.2091L78.4049 45.4121L82.1789 43.5911L78.5594 35.9968L67.2377 41.4593L65.4281 37.6621L39.0105 50.4081L42.6297 58.0028Z" fill="#FFE600"/>
<path d="M51.9871 58.1584L70.857 49.0538L74.4759 56.6485L72.6664 52.8508L76.4405 51.0309L78.2502 54.8283L74.4759 56.6485L76.2858 60.4458L72.5119 62.2666L74.3215 66.064L59.2257 73.3474L55.6067 65.7531L51.9871 58.1584Z" fill="#FFE600"/>
<path d="M51.8325 67.5745L55.6067 65.7531L59.2257 73.3474L70.5477 67.8857L72.3573 71.6831L68.5831 73.5041L70.3927 77.3013L66.6197 79.1217L68.4286 82.9175L57.1068 88.3801L55.2975 84.5835L51.6777 76.989L55.4513 75.1683L51.8325 67.5745Z" fill="#FFE600"/>
<path d="M55.1424 93.9993L51.5231 86.405L55.2975 84.5835L57.1065 88.3812L64.6546 84.7393L66.4642 88.5367L55.1424 93.9993Z" fill="#FFE600"/>
<path d="M65.7374 18.8298L63.9277 15.0318L48.832 22.3154L50.6416 26.1128L65.7374 18.8298Z" fill="#FFE600"/>
<path d="M61.8087 30.0674L42.939 39.1717L44.7482 42.9683L40.9747 44.7889L42.7843 48.5863L65.4281 37.6607L61.8087 30.0674Z" fill="#FFE600"/>
<path d="M66.0468 2.96628e-08L54.725 5.46258L56.5341 9.25889L52.7608 11.0794L54.5705 14.8768L58.3444 13.0559L56.5353 9.25962L64.0833 5.61784L65.8918 9.41292L62.1181 11.2337L65.7374 18.8284L69.5113 17.0076L65.8918 9.41292L69.666 7.59255L66.0468 2.96628e-08Z" fill="#E31CB8"/>
<path d="M65.5829 28.2453L69.3567 26.4246L65.7374 18.8298L61.9635 20.6507L65.5829 28.2453L61.8089 30.0659L65.4281 37.6607L69.2021 35.8398L65.5829 28.2453Z" fill="#E31CB8"/>
<path d="M65.2734 47.0777L69.0474 45.2568L69.0469 45.2557L80.3691 39.793L78.5595 35.9956L67.2373 41.4584L65.4282 37.6621L61.6542 39.4829L65.2734 47.0777Z" fill="#E31CB8"/>
<path d="M53.9514 52.5399L42.6297 58.0024L40.8201 54.2051L55.9159 46.9216L59.5351 54.5166L55.7611 56.3374L53.9514 52.5399Z" fill="#E31CB8"/>
<path d="M51.9871 58.1587L55.7611 56.3374L59.3803 63.9326L55.6063 65.7535L51.9871 58.1587Z" fill="#E31CB8"/>
<path d="M51.8326 67.5747L55.6063 65.7535L59.2257 73.3486L55.4521 75.1693L59.0709 82.7632L55.297 84.584L51.6777 76.9893L55.4514 75.1685L51.8326 67.5747Z" fill="#E31CB8"/>
<path d="M55.1424 93.9995L51.5231 86.4053L55.297 84.584L57.1065 88.3814L64.6541 84.7398L62.8449 80.9433L66.6189 79.1225L68.4285 82.9199L64.6551 84.7405L66.4642 88.5369L55.1424 93.9995Z" fill="#E31CB8"/>
<path d="M66.6187 79.1206L64.8091 75.3232L68.5823 73.5027L66.7735 69.707L70.5474 67.8861L72.3571 71.6835L68.5838 73.5041L70.3926 77.2997L66.6187 79.1206Z" fill="#E31CB8"/>
<path d="M56.38 18.6753L54.5704 14.8779L50.7965 16.6988L52.6052 20.4943L48.832 22.3148L50.6416 26.1121L54.4155 24.2913L52.6068 20.4958L56.38 18.6753Z" fill="#E31CB8"/>
<path d="M70.5474 67.8861L68.7381 64.0879L72.512 62.267L74.3217 66.0644L70.5474 67.8861Z" fill="#E31CB8"/>
<path d="M52.4512 29.9112L50.6416 26.1138L46.8677 27.9346L48.6773 31.732L52.4512 29.9112Z" fill="#E31CB8"/>
<path d="M72.5119 62.2646L70.7023 58.4673L74.475 56.647L72.6666 52.852L76.4405 51.0312L78.2502 54.8286L74.4774 56.6488L76.2859 60.4438L72.5119 62.2646Z" fill="#E31CB8"/>
<path d="M50.4869 35.5296L48.6773 31.732L44.9034 33.553L46.7127 37.3498L42.9391 39.1705L44.7487 42.9679L48.5227 41.147L46.7127 37.3498L50.4869 35.5296Z" fill="#E31CB8"/>
<path d="M76.4404 51.0293L74.6308 47.2319L78.404 45.4114L76.595 41.6155L80.369 39.7946L82.1786 43.592L78.4054 45.4125L80.2143 49.2084L76.4404 51.0293Z" fill="#E31CB8"/>
<path d="M46.5582 46.7661L44.7487 42.9679L40.9746 44.7896L42.7835 48.5854L39.0105 50.4058L40.8201 54.2032L44.5941 52.3823L42.7852 48.5865L46.5582 46.7661Z" fill="#E31CB8"/>
<path d="M128 36.0567L119.358 33.6328L118.555 36.5316L124.316 38.1475L115.674 35.7244L114.871 38.623L111.99 37.8149L111.187 40.7132L108.306 39.9052L107.503 42.8037L104.623 41.9957L103.82 44.8945L115.343 48.1263L100.939 44.0867L100.136 46.985L97.2549 46.177L96.452 49.0756L93.5708 48.2675L92.7679 51.1663L110.053 56.014L89.8872 50.3589L88.2813 56.1563L96.9235 58.5809L96.1208 61.4786L116.287 67.1343L117.893 61.338L109.25 58.914L110.053 56.014L112.934 56.8228L114.54 51.0253L117.421 51.8331L119.027 46.0357L121.908 46.8443L123.513 41.047L126.394 41.8539L128 36.0567Z" fill="#FFE600"/>
<path d="M93.2398 60.671L113.406 66.3266L112.603 69.2254L109.722 68.4174L108.919 71.3158L106.038 70.5079L91.6338 66.4684L93.2398 60.671Z" fill="#FFE600"/>
<path d="M88.7531 65.6597L91.6338 66.4684L90.028 72.2652L87.1472 71.4572L88.7531 65.6597Z" fill="#FFE600"/>
<path d="M84.2661 70.65L87.1472 71.4572L85.541 77.2554L82.6604 76.4475L91.3029 78.8714L90.4999 81.7701L78.9766 78.5382L79.7795 75.6394L82.6604 76.4475L84.2661 70.65Z" fill="#FFE600"/>
<path d="M78.1736 81.4371L78.9766 78.5382L87.6191 80.9622L86.8161 83.861L78.1736 81.4371Z" fill="#FFE600"/>
<path d="M85.541 77.2554L86.3444 74.3567L94.9869 76.7806L94.184 79.6793L85.541 77.2554Z" fill="#FFE600"/>
<path d="M86.3444 74.3567L87.1472 71.4572L98.6706 74.6896L97.8676 77.5884L86.3444 74.3567Z" fill="#FFE600"/>
<path d="M90.028 72.2652L91.6338 66.4684L106.038 70.5079L105.235 73.4071L102.354 72.5991L101.551 75.4975L90.028 72.2652Z" fill="#FFE600"/>
<path d="M128 36.0567L119.358 33.6328L118.555 36.5306L115.674 35.7226L114.871 38.6214L117.752 39.4293L118.555 36.5316L124.316 38.1474L123.513 41.0457L126.394 41.8536L128 36.0567Z" fill="#E31CB8"/>
<path d="M119.027 46.0363L121.908 46.8443L123.514 41.0468L120.633 40.2389L119.027 46.0363Z" fill="#E31CB8"/>
<path d="M114.54 51.0251L117.421 51.8331L119.027 46.0363L116.146 45.2276L114.54 51.0251Z" fill="#E31CB8"/>
<path d="M110.053 56.0144L112.934 56.8223L114.54 51.0251L111.659 50.2169L110.053 56.0144Z" fill="#E31CB8"/>
<path d="M105.566 61.0041L114.208 63.4278L113.406 66.3257L116.287 67.1337L117.893 61.3371L109.25 58.9133L110.053 56.0144L107.172 55.2066L105.566 61.0041Z" fill="#E31CB8"/>
<path d="M100.607 56.4887L89.0841 53.2575L88.2811 56.1562L96.9234 58.58L96.1205 61.4782L99.0014 62.2862L100.607 56.4887Z" fill="#E31CB8"/>
<path d="M93.2397 60.671L96.1205 61.4782L94.5146 67.2764L91.6338 66.4684L90.028 72.2652L87.1472 71.4572L88.7531 65.6597L91.6338 66.4684L93.2397 60.671Z" fill="#E31CB8"/>
<path d="M84.2661 70.65L87.1472 71.4572L85.541 77.2554L82.6603 76.4475L81.8574 79.3461L78.9765 78.5381L79.7795 75.6394L82.6603 76.4475L84.2661 70.65Z" fill="#E31CB8"/>
<path d="M78.1736 81.4371L78.9765 78.5381L87.6191 80.9622L86.8161 83.861L78.1736 81.4371Z" fill="#E31CB8"/>
<path d="M87.6191 80.9622L88.422 78.0632L91.3029 78.8712L90.4999 81.7699L87.6191 80.9622Z" fill="#E31CB8"/>
<path d="M91.3029 78.8712L92.1059 75.9734L94.9868 76.7814L94.1838 79.6801L91.3029 78.8712Z" fill="#E31CB8"/>
<path d="M114.068 41.5199L114.871 38.6214L111.99 37.8132L111.187 40.7119L114.068 41.5199Z" fill="#E31CB8"/>
<path d="M94.9868 76.7814L95.7899 73.8821L98.6707 74.69L97.8677 77.5888L94.9868 76.7814Z" fill="#E31CB8"/>
<path d="M110.384 43.6114L111.187 40.7119L108.306 39.9047L107.503 42.8035L110.384 43.6114Z" fill="#E31CB8"/>
<path d="M98.6707 74.69L99.4736 71.7908L102.354 72.5987L101.552 75.4975L98.6707 74.69Z" fill="#E31CB8"/>
<path d="M106.7 45.7025L107.503 42.8035L104.622 41.9958L103.819 44.8945L106.7 45.7025Z" fill="#E31CB8"/>
<path d="M102.354 72.5987L103.157 69.6995L106.038 70.5074L105.235 73.4062L102.354 72.5987Z" fill="#E31CB8"/>
<path d="M103.016 47.7931L103.819 44.8945L100.938 44.0864L100.136 46.9851L103.016 47.7931Z" fill="#E31CB8"/>
<path d="M106.038 70.5074L106.841 67.6091L109.722 68.4171L108.919 71.3158L106.038 70.5074Z" fill="#E31CB8"/>
<path d="M99.3326 49.8842L100.136 46.9851L97.2548 46.1775L96.4518 49.0762L99.3326 49.8842Z" fill="#E31CB8"/>
<path d="M109.722 68.4171L110.525 65.5188L113.406 66.3268L112.603 69.2255L109.722 68.4171Z" fill="#E31CB8"/>
<path d="M95.6488 51.9745L96.4518 49.0762L93.5709 48.2678L92.7679 51.1665L95.6488 51.9745Z" fill="#E31CB8"/>
<path d="M91.9651 54.0653L92.7679 51.1665L89.8872 50.3586L89.0841 53.2575L91.9651 54.0653Z" fill="#E31CB8"/>
<path d="M4.35595 27.2039L5.02843e-08 35.0962L2.61454 36.5572L1.16254 39.188L3.77708 40.649L8.13303 32.7567L9.58517 30.1255L4.35595 27.2039Z" fill="#FFE600"/>
<path d="M11.9103 38.3095L13.3622 35.6787L8.13303 32.7567L6.68119 35.3875L11.9103 38.3095Z" fill="#FFE600"/>
<path d="M15.6876 43.8628L17.1394 41.2324L11.9103 38.3095L4.65033 51.4638L7.26487 52.9248L13.0726 42.4021L5.81304 55.5555L8.42748 57.0164L6.97546 59.6473L9.59 61.1083L16.8499 47.9544L8.1381 63.739L10.7523 65.1998L9.3005 67.8303L14.5296 70.7526L29.0494 44.4449L26.4349 42.9839L22.0791 50.876L19.4646 49.4151L20.9164 46.7847L15.6876 43.8628Z" fill="#FFE600"/>
<path d="M20.0481 66.9526L21.5 64.3218L18.8855 62.8608L29.0494 44.4449L31.6639 45.9064L30.2123 48.5364L32.8265 49.9972L29.9225 55.2588L27.3084 53.798L32.5371 56.7208L35.1516 58.1821L33.7001 60.8121L36.3142 62.2728L30.5062 72.7959L29.0542 75.4269L23.8251 72.5049L25.2774 69.8743L20.0481 66.9526Z" fill="#FFE600"/>
<path d="M27.6024 78.0576L29.0542 75.4269L34.8622 64.9046L37.4767 66.3656L36.025 68.9959L38.6394 70.4568L32.8314 80.9796L37.1873 73.0881L39.8019 74.5491L38.3505 77.1787L40.9645 78.6394L36.6086 86.5317L31.3793 83.6103L32.8314 80.9796L27.6024 78.0576Z" fill="#FFE600"/>
<path d="M6.68119 35.3875L2.32527 43.2803L4.93966 44.7412L3.48767 47.372L6.10221 48.833L11.9103 38.3095L6.68119 35.3875Z" fill="#FFE600"/>
<path d="M32.5371 56.7208L29.9225 55.2588L31.3746 52.6289L33.9891 54.0899L32.5371 56.7208Z" fill="#FFE600"/>
<path d="M4.35595 27.2036L5.02843e-08 35.0959L2.61454 36.5569L5.51865 31.2951L8.13319 32.7561L9.58517 30.1253L4.35595 27.2036Z" fill="#E31CB8"/>
<path d="M11.9103 38.3092L13.3622 35.6785L8.13319 32.7561L6.68119 35.3872L11.9103 38.3092Z" fill="#E31CB8"/>
<path d="M15.6876 43.8626L17.1394 41.2322L11.9103 38.3092L10.4583 40.941L15.6876 43.8626L14.2353 46.4932L19.4642 49.4151L18.0124 52.0454L23.2414 54.9675L29.0493 44.4444L26.4348 42.9834L22.0789 50.8756L19.4642 49.4151L20.9164 46.7844L15.6876 43.8626Z" fill="#E31CB8"/>
<path d="M18.8855 62.8607L14.5296 70.7529L11.9151 69.2919L17.723 58.7688L22.952 61.6909L21.5001 64.3216L26.7291 67.2436L25.2774 69.874L30.5062 72.7959L29.0542 75.4266L23.8251 72.5046L25.2774 69.874L20.0481 66.9524L21.5001 64.3216L18.8855 62.8607Z" fill="#E31CB8"/>
<path d="M27.6024 78.0574L29.0542 75.4266L34.2834 78.3486L32.8314 80.9794L35.4458 82.4402L38.3497 77.1788L35.7354 75.718L37.1874 73.0872L39.802 74.5482L38.3497 77.1788L40.9645 78.6392L36.6086 86.5315L31.3793 83.61L32.8314 80.9794L27.6024 78.0574Z" fill="#E31CB8"/>
<path d="M5.2291 38.0184L2.61454 36.5569L1.16258 39.1881L3.77701 40.6491L2.32512 43.2797L4.93966 44.7407L6.39164 42.1099L3.77701 40.6491L5.2291 38.0184Z" fill="#E31CB8"/>
<path d="M37.1874 73.0872L34.5727 71.6262L36.0245 68.9957L33.4102 67.5348L34.8622 64.9041L32.2478 63.4431L33.6997 60.8123L36.3143 62.2733L34.8622 64.9041L37.4768 66.3651L36.0245 68.9957L38.6392 70.4564L37.1874 73.0872Z" fill="#E31CB8"/>
<path d="M7.55437 46.2017L4.93966 44.7407L3.48785 47.3715L6.10223 48.8324L4.65033 51.463L7.26486 52.924L8.71685 50.2933L6.10223 48.8324L7.55437 46.2017Z" fill="#E31CB8"/>
<path d="M33.6997 60.8123L31.085 59.3508L32.5368 56.7203L29.9226 55.2595L31.3746 52.6287L33.9891 54.0897L32.5368 56.7203L35.1515 58.181L33.6997 60.8123Z" fill="#E31CB8"/>
<path d="M9.87939 54.3865L7.26485 52.9255L5.81287 55.5563L8.42725 57.0172L6.97547 59.6476L9.58971 61.1085L8.13789 63.7389L10.7521 65.1997L9.30055 67.8297L11.9151 69.2907L13.3671 66.66L10.7521 65.1997L12.2044 62.5692L9.58971 61.1085L11.042 58.4778L8.42725 57.0172L9.87939 54.3865Z" fill="#E31CB8"/>
<path d="M31.3746 52.6287L28.7601 51.1672L30.2119 48.5367L27.5977 47.0759L29.0493 44.4444L31.6642 45.9061L30.2119 48.5367L32.8266 49.9974L31.3746 52.6287Z" fill="#E31CB8"/>
</svg>
