<svg width="118" height="45" viewBox="0 0 118 45" fill="none" xmlns="http://www.w3.org/2000/svg"><path d="M2 28V2h22.5v3.7h3.7V17h-3.7v3.7h-15V28H2zm7.5-11.1h11.2V5.7H9.5V17zM35.7 28v-3.7h7.5V5.7h-7.5V2H58v3.7h-7.5v18.6h7.5V28H35.7zm30 0v-3.7h-3.8v-3.7h7.5v3.7h11.2v-7.4h-15V13H62V5.7h3.7V2h18.7v3.7h3.8v3.7h-7.5V5.7H69.4v7.4h15V17H88v7.4h-3.8V28H65.6zm26.1 0V2h22.5v3.7h3.7V17h-3.7v3.7h-15V28h-7.5zm7.5-11.1h11.2V5.7H99.3V17z" fill="#E31CB8"/><path d="M0 26V0h22.5v3.7h3.7V15h-3.7v3.7h-15V26H0zm7.5-11.1h11.2V3.7H7.5V15zM33.7 26v-3.7h7.5V3.7h-7.5V0H56v3.7h-7.5v18.6h7.5V26H33.7zm30 0v-3.7h-3.8v-3.7h7.5v3.7h11.2v-7.4h-15V11H60V3.7h3.7V0h18.7v3.7h3.8v3.7h-7.5V3.7H67.4v7.4h15V15H86v7.4h-3.8V26H63.6zm26.1 0V0h22.5v3.7h3.7V15h-3.7v3.7h-15V26h-7.5zm7.5-11.1h11.2V3.7H97.3V15z" fill="#FFE600"/><path d="M1.5 43.5V42H0v-9h3v3h6v1.5h1.5V42H9v1.5H1.5zM3 42h4.5v-4.5H3V42zM13.4 45v-1.5h6V42h-6v-1.5H12V36h3v4.5h4.5V36h3v7.5H21V45h-7.5zM38.8 43.5V42h-1.5v-1.5h-1.5V36h1.5v-1.5h1.5V33h6v1.5h1.5V36h-3v-1.5h-3V36h-1.5v4.5h1.5V42h3v-1.5h3V42h-1.5v1.5h-6zM52.3 34.5V33h3v1.5h-3zm-3 9V42h3v-4.5h-1.5V36h4.5v6h3v1.5h-9zM59.7 43.5V36h9v1.5h1.5v6h-3v-6h-1.5v6h-3v-6h-1.5v6h-1.5zM71.7 45v-9h9v1.5h1.5v3h-1.5V42h-6v3h-3zm3-4.5h4.5v-3h-4.5v3zM85.1 43.5V42h3v-7.5h-1.5V33h4.5v9h3v1.5h-9zM97 43.5V42h-1.4v-4.5H97V36h7.5v1.5h1.5v3h-7.5V42h6v1.5H97zm1.6-4.5h4.5v-1.5h-4.5V39zM109 43.5V42h-1.5v-7.5h1.5V33h7.5v1.5h1.5V42h-1.5v1.5H109zm1.5-1.5h4.5v-7.5h-4.5V42z" fill="#E31CB8"/></svg>
