<svg version="1.1" id="Слой_1" xmlns="http://www.w3.org/2000/svg" x="0" y="0" viewBox="0 0 426 158" xml:space="preserve"><style>.st1{fill:#e31cb8}.st2{fill:#ffe600}</style><path d="M43.8 6h-6v15.9H21.9v15.9H6v82.4h15.9v15.9h15.9V152h350.3v-15.9H404v-15.9h15.9V37.8H404V21.9h-15.9V6H43.8z" fill="#6120fe"/><path class="st1" d="M394.2 158H31.8v-15.9H15.9v-15.9H0V31.8h15.9V15.9h15.9V0h362.3v15.9H410v15.9h16v94.4h-15.9v15.9h-15.9V158zM43.8 146h338.3v-15.9H398v-15.9h16V43.8h-15.9V27.9h-15.9V12H43.8v15.9H27.9v15.9H12v70.4h15.9v15.9h15.9V146z"/><path class="st1" d="M207.4 101.1V59.8h11.8v35.4h23.6v5.9h-35.4zM257 101.1v-5.9h-5.9V65.7h5.9v-5.9h29.5v5.9h5.9v29.5h-5.9v5.9H257zm5.9-5.9h17.7V65.7h-17.7v29.5zM306.6 101.1v-5.9h-5.9v-5.9h11.8v5.9h17.7V83.4h-23.6v-5.9h-5.9V65.7h5.9v-5.9h29.5v5.9h5.9v5.9h-11.8v-5.9h-17.7v11.8h23.6v5.9h5.9v11.8h-5.9v5.9h-29.5zM350.3 101.1V59.8h41.3v5.9h-29.5v11.8h23.6v5.9h-23.6v11.8h29.5v5.9h-41.3zM51 101.1V83.4h-5.9v-5.9h-5.9V59.8H51v17.7h11.8V59.8h11.8v17.7h-5.9v5.9h-5.9v17.7H51zM88.8 101.1v-5.9h-5.9V65.7h5.9v-5.9h29.5v5.9h5.9v29.5h-5.9v5.9H88.8zm5.9-5.9h17.7V65.7H94.7v29.5zM138.4 101.1v-5.9h-5.9V59.8h11.8v35.4H162V59.8h11.8v35.4h-5.9v5.9h-29.5z"/><path class="st2" d="M203.4 97.1V55.8h11.8v35.4h23.6v5.9h-35.4zM253 97.1v-5.9h-5.9V61.7h5.9v-5.9h29.5v5.9h5.9v29.5h-5.9v5.9H253zm5.9-5.9h17.7V61.7h-17.7v29.5zM302.6 97.1v-5.9h-5.9v-5.9h11.8v5.9h17.7V79.4h-23.6v-5.9h-5.9V61.7h5.9v-5.9h29.5v5.9h5.9v5.9h-11.8v-5.9h-17.7v11.8h23.6v5.9h5.9v11.8h-5.9v5.9h-29.5zM346.3 97.1V55.8h41.3v5.9h-29.5v11.8h23.6v5.9h-23.6v11.8h29.5v5.9h-41.3zM47 97.1V79.4h-5.9v-5.9h-5.9V55.8H47v17.7h11.8V55.8h11.8v17.7h-5.9v5.9h-5.9v17.7H47zM84.8 97.1v-5.9h-5.9V61.7h5.9v-5.9h29.5v5.9h5.9v29.5h-5.9v5.9H84.8zm5.9-5.9h17.7V61.7H90.7v29.5zM134.4 97.1v-5.9h-5.9V55.8h11.8v35.4H158V55.8h11.8v35.4h-5.9v5.9h-29.5z"/></svg>
