<?xml version="1.0" encoding="utf-8"?>
<!-- Generator: Adobe Illustrator 24.0.1, SVG Export Plug-In . SVG Version: 6.00 Build 0)  -->
<svg version="1.1" id="Слой_1" xmlns="http://www.w3.org/2000/svg" xmlns:xlink="http://www.w3.org/1999/xlink" x="0px" y="0px"
	 viewBox="0 0 426 158" style="enable-background:new 0 0 426 158;" xml:space="preserve">
<style type="text/css">
	.st0{fill:#6120FE;}
	.st1{fill:#E31CB8;}
	.st2{fill:#FFE600;}
</style>
<path class="st0" d="M43.8,6h-6v6v9.9h-9.9h-6v6v9.9H12H6v6v70.4v6h6h9.9v9.9v6h6h9.9v9.9v6h6h338.3h6v-6v-9.9h9.9h6v-6v-9.9h9.9h6
	v-6V43.8v-6h-6h-9.9v-9.9v-6h-6h-9.9V12V6h-6H43.8z"/>
<path class="st1" d="M394.2,158H31.8v-15.9H15.9v-15.9H0V31.8h15.9V15.9h15.9V0h362.3v15.9h15.9v15.9H426v94.4h-15.9v15.9h-15.9V158
	z M43.8,146h338.3v-15.9h15.9v-15.9H414V43.8h-15.9V27.9h-15.9V12H43.8v15.9H27.9v15.9H12v70.4h15.9v15.9h15.9V146z"/>
<path class="st1" d="M207.4,101.1V59.8h11.8v35.4h23.6v5.9H207.4z"/>
<path class="st1" d="M257,101.1v-5.9h-5.9V65.7h5.9v-5.9h29.5v5.9h5.9v29.5h-5.9v5.9H257z M262.9,95.2h17.7V65.7h-17.7V95.2z"/>
<path class="st1" d="M306.6,101.1v-5.9h-5.9v-5.9h11.8v5.9h17.7V83.4h-23.6v-5.9h-5.9V65.7h5.9v-5.9h29.5v5.9h5.9v5.9h-11.8v-5.9
	h-17.7v11.8h23.6v5.9h5.9v11.8h-5.9v5.9H306.6z"/>
<path class="st1" d="M350.3,101.1V59.8h41.3v5.9h-29.5v11.8h23.6v5.9h-23.6v11.8h29.5v5.9H350.3z"/>
<path class="st1" d="M51,101.1V83.4h-5.9v-5.9h-5.9V59.8H51v17.7h11.8V59.8h11.8v17.7h-5.9v5.9h-5.9v17.7H51z"/>
<path class="st1" d="M88.8,101.1v-5.9h-5.9V65.7h5.9v-5.9h29.5v5.9h5.9v29.5h-5.9v5.9H88.8z M94.7,95.2h17.7V65.7H94.7V95.2z"/>
<path class="st1" d="M138.4,101.1v-5.9h-5.9V59.8h11.8v35.4H162V59.8h11.8v35.4h-5.9v5.9H138.4z"/>
<path class="st2" d="M203.4,97.1V55.8h11.8v35.4h23.6v5.9H203.4z"/>
<path class="st2" d="M253,97.1v-5.9h-5.9V61.7h5.9v-5.9h29.5v5.9h5.9v29.5h-5.9v5.9H253z M258.9,91.2h17.7V61.7h-17.7V91.2z"/>
<path class="st2" d="M302.6,97.1v-5.9h-5.9v-5.9h11.8v5.9h17.7V79.4h-23.6v-5.9h-5.9V61.7h5.9v-5.9h29.5v5.9h5.9v5.9h-11.8v-5.9
	h-17.7v11.8h23.6v5.9h5.9v11.8h-5.9v5.9H302.6z"/>
<path class="st2" d="M346.3,97.1V55.8h41.3v5.9h-29.5v11.8h23.6v5.9h-23.6v11.8h29.5v5.9H346.3z"/>
<path class="st2" d="M47,97.1V79.4h-5.9v-5.9h-5.9V55.8H47v17.7h11.8V55.8h11.8v17.7h-5.9v5.9h-5.9v17.7H47z"/>
<path class="st2" d="M84.8,97.1v-5.9h-5.9V61.7h5.9v-5.9h29.5v5.9h5.9v29.5h-5.9v5.9H84.8z M90.7,91.2h17.7V61.7H90.7V91.2z"/>
<path class="st2" d="M134.4,97.1v-5.9h-5.9V55.8h11.8v35.4H158V55.8h11.8v35.4h-5.9v5.9H134.4z"/>
</svg>
