<svg width="1168" height="567" viewBox="0 0 1168 567" fill="none" xmlns="http://www.w3.org/2000/svg"><path d="M750 561l-91-69-87-65-1-7 54-39 54-39 91 57 94 59 1 5-58 49a37835 37835 0 01-57 49zm0 0l-1-8 57-47 58-48" stroke="#31CEFF" stroke-width="1.6" stroke-linecap="round" stroke-linejoin="bevel"/><path d="M571 420l87 65 91 68" stroke="#31CEFF" stroke-width="1.6" stroke-linecap="round" stroke-linejoin="bevel"/><path clip-rule="evenodd" d="M743 437a35572 35572 0 01-52-32l-43 30 51 36 44-34z" stroke="#31CEFF" stroke-width="1.6" stroke-linecap="round" stroke-linejoin="bevel"/><path d="M648 435v4l52 37-1-5" stroke="#31CEFF" stroke-width="1.6" stroke-linecap="round" stroke-linejoin="bevel"/><path d="M743 437v4l-43 35" stroke="#31CEFF" stroke-width="1.6" stroke-linecap="round" stroke-linejoin="round"/><path clip-rule="evenodd" d="M767 418l29 17-17 13-29-18 17-12z" stroke="#31CEFF" stroke-width="1.6" stroke-linecap="round" stroke-linejoin="round"/><path d="M750 430l1 4 28 19v-5m0 5l17-14v-4" stroke="#31CEFF" stroke-width="1.6" stroke-linecap="round" stroke-linejoin="round"/><path clip-rule="evenodd" d="M687 366l-18-11-37 26-37 26 18 12 37-26 37-27z" stroke="#31CEFF" stroke-width="1.6" stroke-linecap="round" stroke-linejoin="round"/><path clip-rule="evenodd" d="M668 363c-3 0-5 2-5 3 0 2 3 4 6 4s5-1 4-3c0-2-2-3-5-4zm46 61c-4-5-12-7-18-4s-7 9-2 14c4 5 12 7 18 4s7-9 2-14z" stroke="#31CEFF" stroke-width="1.6" stroke-linecap="round" stroke-linejoin="round"/><path clip-rule="evenodd" d="M711 424c-4-4-11-6-16-3-5 2-6 8-2 12 4 5 11 6 16 4 5-3 6-8 2-13z" stroke="#31CEFF" stroke-width="1.6" stroke-linecap="round" stroke-linejoin="round"/><path clip-rule="evenodd" d="M708 426c-3-4-9-5-13-3s-5 7-2 10c3 4 9 5 13 3s5-7 2-10z" stroke="#31CEFF" stroke-width="1.6" stroke-linecap="round" stroke-linejoin="round"/><path clip-rule="evenodd" d="M705 427c-3-3-7-3-11-2-3 2-3 5-1 8 3 3 7 4 10 2 3-1 4-5 2-8z" stroke="#31CEFF" stroke-width="1.6" stroke-linecap="round" stroke-linejoin="round"/><path clip-rule="evenodd" d="M702 429c-2-2-6-3-8-2s-3 4-1 6 5 3 8 2c2-2 2-4 1-6zm-26-1l-4-2-5 3 4 3 5-4zm6 4l-4-2-5 3 4 3 5-4zm6 4l-4-2-5 3 4 3 5-4zm6 4l-4-3-5 4 4 2 5-3zm6 4l-4-3-6 4 5 2 5-3zm6 4l-4-3-6 4 5 2 5-3zm6 4l-4-3-6 3 5 3 5-3zm-37-14l-4-3-5 3 4 3 5-3zm6 4l-4-3a246 246 0 00-5 3l4 3 5-3zm6 3l-4-2-6 3 5 3 5-4zm6 4l-4-2-6 3 5 3 5-4zm6 4l-4-2-6 3 4 3 6-4zm64 10l-4-2-5 3 4 3 5-4zm7 4l-5-2-5 3 4 3 6-4zm6 4l-4-2-6 3 5 3 5-4zm6 4l-4-2-6 3 5 3 5-4zm6 4l-4-2-5 3 4 3 5-4zm-34-9l-4-2-5 3 4 3 5-4zm6 4l-4-2-5 3 4 3 5-4zm7 4l-5-2-5 3 4 3 6-4zm6 4l-4-2-6 3 5 3 5-4zm6 4l-4-2-6 3 5 3 5-4zm-34-8a195 195 0 01-5-3l-5 3 4 3 6-3zm6 4l-4-3-6 3 5 3 5-3zm6 4l-4-3a355 355 0 01-6 3l5 3 5-3zm6 4l-4-3a673 673 0 01-5 3l4 3 5-3zm6 4l-4-3-5 3 4 3 5-3zm6 4l-4-3-5 3 4 3 5-3zm6 4a172 172 0 01-4-3l-5 3 4 3 5-3z" stroke="#31CEFF" stroke-width="1.6" stroke-linecap="round" stroke-linejoin="round"/><path clip-rule="evenodd" d="M756 454l58 38-35 28-58-40 35-26z" stroke="#31CEFF" stroke-width="1.6" stroke-linecap="round" stroke-linejoin="round"/><path d="M721 480l1 3 57 41a99 99 0 010-4" stroke="#31CEFF" stroke-width="1.6" stroke-linecap="round" stroke-linejoin="bevel"/><path d="M814 492v3l-35 29" stroke="#31CEFF" stroke-width="1.6" stroke-linecap="round" stroke-linejoin="round"/><path clip-rule="evenodd" d="M649 376l4-3 6 4-4 2-6-3zm-5 3l4-2a333 333 0 006 4l-4 2a690 690 0 01-6-4zm-4 4l3-3 6 4-3 2-6-3zm-5 3l3-2 6 3-3 3-6-4zm-5 4l3-3 6 4-3 2-6-3zm-5 3l3-2 6 3-3 3a470 470 0 01-6-4zm-5 3l4-2 5 4-3 2-6-4zm-5 4l4-3 6 4-4 3-6-4zm-4 3l3-2 6 4-4 2-5-4zm54-4l-6-4-7 5 6 4 7-5z" stroke="#31CEFF" stroke-width="1.6" stroke-linecap="round" stroke-linejoin="round"/><path clip-rule="evenodd" d="M665 399l-6-4-11 7 6 4 11-7zm40-16l-6-3-7 5 6 3 7-5z" stroke="#31CEFF" stroke-width="1.6" stroke-linecap="round" stroke-linejoin="round"/><path clip-rule="evenodd" d="M705 383l-6-3-11 7 6 4 11-8zm29 17l-6-3-7 5 6 4 7-6z" stroke="#31CEFF" stroke-width="1.6" stroke-linecap="round" stroke-linejoin="round"/><path clip-rule="evenodd" d="M734 400l-6-3-11 8a435 435 0 006 3l11-8zm10 6l-6-4-8 6 7 3 7-5z" stroke="#31CEFF" stroke-width="1.6" stroke-linecap="round" stroke-linejoin="round"/><path clip-rule="evenodd" d="M744 406l-6-4-11 8 6 4 11-8zm-103 11c-2 0-3 1-3 2l3 2c2 0 3-1 3-2l-3-2zm2 9c-2-1-3 0-3 1l3 2 3-1-3-3zm-9 3c-2 0-3 1-3 2l3 2c2 0 3-1 3-2l-3-2zm37-22c-2 0-3 0-3 2l3 2c2 0 3-1 3-2l-3-2zm14-8c-1-1-2 0-2 1s1 2 3 2l3-1-4-2zm-62 35l4-3 5 4-4 2-5-3zm32 20c-2-1-3 0-3 1l3 2 3-1-3-2zm0 7l-3 1 3 3c2 0 3-1 3-2s-1-2-3-2zm43 19c-2 0-3 1-3 2s1 2 3 2 3-1 3-2l-3-2zm11-2c-2-1-3 0-3 1l4 2c1 1 2 0 2-1s-1-2-3-2zm14-10c-2 0-3 1-3 2l4 2c1 0 3-1 2-2 0-1-1-2-3-2zm-91-28l4-2 5 4-4 2a247 247 0 01-5-4zm64-45l4-3 6 4-3 2-7-3zm10 5l3-2 7 4-4 2-6-4zm0-13l4-3 6 4-3 3-7-4zm10 6l3-3 7 4-4 3a582 582 0 01-6-4zm36 46c-2 0-3 1-3 2l3 2c2 0 3-1 3-2s-1-2-3-2zm5 10c-1 0-3 1-2 2 0 1 1 2 3 2s3-1 3-2l-4-2zm31 8c-2 0-3 1-3 2l3 2 3-1-3-3zm7-13l-3 2 4 2 3-2-4-2zm13 23c-2 0-3 1-3 2s1 2 3 2 3-1 3-2l-3-2zm18-6c-1 0-3 1-2 2 0 1 1 2 3 2l3-1c0-2-2-2-4-3zm0 14l-3 1c0 2 1 2 3 3 2 0 3-1 3-2l-3-2zm13-6c-2 0-3 1-3 2l3 2c2 0 3 0 3-2l-3-2zm-20-17l-7-4-8 6 7 4 8-6z" stroke="#31CEFF" stroke-width="1.6" stroke-linecap="round" stroke-linejoin="round"/><path clip-rule="evenodd" d="M819 452l-7-4-12 8 7 5 12-9z" stroke="#31CEFF" stroke-width="1.6" stroke-linecap="round" stroke-linejoin="round"/><path d="M613 419l1 4-18-13-1-3m92-41v4l-37 27-36 26" stroke="#31CEFF" stroke-width="1.6" stroke-linecap="round" stroke-linejoin="round"/><path clip-rule="evenodd" d="M602 441l9-5 12 8a1218 1218 0 01-9 5l-12-8z" stroke="#31CEFF" stroke-width="1.6" stroke-linecap="round" stroke-linejoin="round"/><path clip-rule="evenodd" d="M607 443l-4 1 1 7 6 5v-7c1-1 3-2 2-3 0-1-2-3-5-3zm14 12l8-5 13 8-9 5-12-8z" stroke="#31CEFF" stroke-width="1.6" stroke-linecap="round" stroke-linejoin="round"/><path clip-rule="evenodd" d="M626 457c-2-1-4 0-4 1l1 7 6 5-1-7c2-1 3-1 3-3s-2-3-5-3zm15 13l9-5 12 9a943 943 0 00-9 5l-12-9z" stroke="#31CEFF" stroke-width="1.6" stroke-linecap="round" stroke-linejoin="round"/><path clip-rule="evenodd" d="M646 472l-4 1 1 7 6 5a625 625 0 01-1-7c2 0 4-1 3-3 0-1-2-3-5-3zm16 13l8-5 12 9-8 5-12-9z" stroke="#31CEFF" stroke-width="1.6" stroke-linecap="round" stroke-linejoin="round"/><path clip-rule="evenodd" d="M667 487c-3 0-5 0-5 2l1 6 7 5-1-7c2 0 3-1 3-3 0-1-3-3-5-3zm17 15l9-5 12 9-8 5-13-9z" stroke="#31CEFF" stroke-width="1.6" stroke-linecap="round" stroke-linejoin="round"/><path clip-rule="evenodd" d="M689 504c-2 0-4 0-4 2l1 6 6 5-1-7c2 0 4-1 4-3-1-1-3-3-6-3zm18 15l9-5 12 9-9 5-12-9z" stroke="#31CEFF" stroke-width="1.6" stroke-linecap="round" stroke-linejoin="round"/><path clip-rule="evenodd" d="M712 521c-3 0-5 0-4 2l1 6 6 5-1-7c2 0 4-1 3-2 0-2-2-4-5-4zm19 16l8-5a6033 6033 0 0013 9l-9 5-12-9z" stroke="#31CEFF" stroke-width="1.6" stroke-linecap="round" stroke-linejoin="round"/><path clip-rule="evenodd" d="M736 539c-3 0-5 0-5 2l1 6 7 5-1-7c2 0 3-1 3-3 0-1-3-3-5-3zm-34-173l8-5 11 8-8 4-11-7zm20 13l8-5 12 8a596 596 0 01-8 5l-12-8zm21 13l8-4 12 7-8 5-12-8zm22 14l8-5 12 8-8 4-12-7zm23 14l8-4 12 7-9 5-11-8zm24 16l8-5 12 8a677 677 0 01-8 4l-12-7zm23 14l8-5 12 8-8 5-12-8zm-93-35c-1 0-3 1-2 2 0 1 1 2 3 2l3-2-4-2zm3-7c-2 0-3 1-3 2l4 2c1 0 3 0 2-1l-3-3zm12 1c-2 0-3 1-3 2l3 2c2 0 3-1 3-2l-3-2zm-25 7l-2 2c0 1 1 2 3 2s3-1 3-2l-4-2zm-10-4l-2 2c0 1 1 2 3 2s3-1 3-2l-4-2zm-66 31l-3-1-3 1 3 2 3-2z" stroke="#31CEFF" stroke-width="1.6" stroke-linecap="round" stroke-linejoin="round"/><path clip-rule="evenodd" d="M651 443l1 2 1 3-2-2-1-3zm9 3l-3-2a75 75 0 00-2 2l2 2 3-2z" stroke="#31CEFF" stroke-width="1.6" stroke-linecap="round" stroke-linejoin="round"/><path clip-rule="evenodd" d="M655 446l1 1 1 3a39 39 0 01-2-1v-3zm9 3l-3-2-2 2 2 2 3-2z" stroke="#31CEFF" stroke-width="1.6" stroke-linecap="round" stroke-linejoin="round"/><path clip-rule="evenodd" d="M659 449l1 1 1 3-2-1v-3zm9 3l-3-2-2 2 2 1 3-1zM663 452l1 1 1 3-2-1v-3zm9 2l-2-1-3 2 2 1 3-2z" stroke="#31CEFF" stroke-width="1.6" stroke-linecap="round" stroke-linejoin="round"/><path clip-rule="evenodd" d="M667 455l2 1v3a29 29 0 01-2-1v-3zm9 2l-2-1-3 2 2 1 3-2z" stroke="#31CEFF" stroke-width="1.6" stroke-linecap="round" stroke-linejoin="round"/><path clip-rule="evenodd" d="M671 458l2 1v3l-2-1v-3zm9 2l-2-1-3 1 2 2 3-2z" stroke="#31CEFF" stroke-width="1.6" stroke-linecap="round" stroke-linejoin="round"/><path clip-rule="evenodd" d="M675 460l2 2v3l-2-2v-3zm9 3l-2-2-3 2 2 2 3-2z" stroke="#31CEFF" stroke-width="1.6" stroke-linecap="round" stroke-linejoin="round"/><path clip-rule="evenodd" d="M679 463l2 2v3l-2-2v-3zm9 3l-2-2-3 2 2 2 3-2z" stroke="#31CEFF" stroke-width="1.6" stroke-linecap="round" stroke-linejoin="round"/><path clip-rule="evenodd" d="M683 466l2 1v3l-2-1v-3zm9 3l-2-2-3 2 2 2 3-2z" stroke="#31CEFF" stroke-width="1.6" stroke-linecap="round" stroke-linejoin="round"/><path clip-rule="evenodd" d="M687 469l2 1v3l-1-1-1-3zm49-24l2-1 3 2-2 1-3-2zM741 446l-1 1v3l2-1-1-3zm-9 2l2-2 4 2-2 2-4-2z" stroke="#31CEFF" stroke-width="1.6" stroke-linecap="round" stroke-linejoin="round"/><path clip-rule="evenodd" d="M738 448l-2 2 1 3 1-2v-3zm-9 2l2-1 3 2-2 1-3-2zM734 451l-1 1v3l2-1a74 74 0 01-1-3zm-8 2l2-1 3 2-2 1-3-2z" stroke="#31CEFF" stroke-width="1.6" stroke-linecap="round" stroke-linejoin="round"/><path clip-rule="evenodd" d="M731 454l-2 1 1 3 1-1v-3zm-9 2l2-2 4 2-2 2-4-2z" stroke="#31CEFF" stroke-width="1.6" stroke-linecap="round" stroke-linejoin="round"/><path clip-rule="evenodd" d="M728 456l-2 1v3l2-1v-3zm-9 2l2-1 3 2-2 1-3-2zm5 1l-1 1v3l2-1-1-3zm-8 2l1-1 4 2-2 1-3-2z" stroke="#31CEFF" stroke-width="1.6" stroke-linecap="round" stroke-linejoin="round"/><path clip-rule="evenodd" d="M721 462l-2 1 1 3 1-1a75 75 0 010-3zm-9 2l2-2 3 2-1 2-4-2z" stroke="#31CEFF" stroke-width="1.6" stroke-linecap="round" stroke-linejoin="round"/><path clip-rule="evenodd" d="M718 464l-2 1v3l2-1-1-3zm-9 2l2-1 3 2-2 1-3-2zM714 467l-1 1v3l2-1-1-3zm-8 2l1-2 4 3-2 1a179 179 0 01-4-2z" stroke="#31CEFF" stroke-width="1.6" stroke-linecap="round" stroke-linejoin="round"/><path clip-rule="evenodd" d="M711 470l-2 1 1 3 1-1v-3zm-8-62l-2-1-3 2 2 1 3-2z" stroke="#31CEFF" stroke-width="1.6" stroke-linecap="round" stroke-linejoin="round"/><path clip-rule="evenodd" d="M701 407l2 1v3l-2-1v-3zM707 411a66 66 0 01-2-1l-3 2 3 1 2-2z" stroke="#31CEFF" stroke-width="1.6" stroke-linecap="round" stroke-linejoin="round"/><path clip-rule="evenodd" d="M706 410l1 1 1 3-2-1v-3zM712 414l-2-1-3 2 2 1 3-2z" stroke="#31CEFF" stroke-width="1.6" stroke-linecap="round" stroke-linejoin="round"/><path clip-rule="evenodd" d="M710 413l2 1 1 3-2-1-1-3z" stroke="#31CEFF" stroke-width="1.6" stroke-linecap="round" stroke-linejoin="round"/><path clip-rule="evenodd" d="M717 417l-3-1-2 1 2 2 3-2z" stroke="#31CEFF" stroke-width="1.6" stroke-linecap="round" stroke-linejoin="round"/><path clip-rule="evenodd" d="M715 416l2 1v3a27 27 0 01-2-1v-3z" stroke="#31CEFF" stroke-width="1.6" stroke-linecap="round" stroke-linejoin="round"/><path clip-rule="evenodd" d="M721 420l-2-1-3 1 3 2 2-2z" stroke="#31CEFF" stroke-width="1.6" stroke-linecap="round" stroke-linejoin="round"/><path clip-rule="evenodd" d="M719 419l2 1 1 3-2-1-1-3z" stroke="#31CEFF" stroke-width="1.6" stroke-linecap="round" stroke-linejoin="round"/><path clip-rule="evenodd" d="M726 423l-2-2-3 2 2 2 3-2z" stroke="#31CEFF" stroke-width="1.6" stroke-linecap="round" stroke-linejoin="round"/><path clip-rule="evenodd" d="M724 422l2 1v3l-1-1-1-3z" stroke="#31CEFF" stroke-width="1.6" stroke-linecap="round" stroke-linejoin="round"/><path clip-rule="evenodd" d="M731 426l-3-2-3 2 3 2 3-2z" stroke="#31CEFF" stroke-width="1.6" stroke-linecap="round" stroke-linejoin="round"/><path clip-rule="evenodd" d="M729 425l2 1v3l-2-1v-3z" stroke="#31CEFF" stroke-width="1.6" stroke-linecap="round" stroke-linejoin="round"/><path clip-rule="evenodd" d="M735 429l-2-2-3 2 2 2 3-2z" stroke="#31CEFF" stroke-width="1.6" stroke-linecap="round" stroke-linejoin="round"/><path clip-rule="evenodd" d="M733 428l2 1 1 3-2-2-1-3zm-54-19l2-1 3 2-2 1-3-2z" stroke="#31CEFF" stroke-width="1.6" stroke-linecap="round" stroke-linejoin="round"/><path clip-rule="evenodd" d="M680 408l-1 1v3l2-1-1-3z" stroke="#31CEFF" stroke-width="1.6" stroke-linecap="round" stroke-linejoin="round"/><path clip-rule="evenodd" d="M675 412l2-2 3 2-2 2-3-2z" stroke="#31CEFF" stroke-width="1.6" stroke-linecap="round" stroke-linejoin="round"/><path clip-rule="evenodd" d="M676 411l-1 1v3l2-1-1-3z" stroke="#31CEFF" stroke-width="1.6" stroke-linecap="round" stroke-linejoin="round"/><path clip-rule="evenodd" d="M671 414l2-1 3 2-2 1-3-2z" stroke="#31CEFF" stroke-width="1.6" stroke-linecap="round" stroke-linejoin="round"/><path clip-rule="evenodd" d="M673 413l-2 1 1 3 1-1v-3zM667 417l2-1 4 2-2 1-4-2z" stroke="#31CEFF" stroke-width="1.6" stroke-linecap="round" stroke-linejoin="round"/><path clip-rule="evenodd" d="M669 416l-2 1 1 3 1-1v-3z" stroke="#31CEFF" stroke-width="1.6" stroke-linecap="round" stroke-linejoin="round"/><path clip-rule="evenodd" d="M664 420l1-2 4 2-2 2-3-2z" stroke="#31CEFF" stroke-width="1.6" stroke-linecap="round" stroke-linejoin="round"/><path clip-rule="evenodd" d="M665 419l-1 1v3l1-1v-3z" stroke="#31CEFF" stroke-width="1.6" stroke-linecap="round" stroke-linejoin="round"/><path clip-rule="evenodd" d="M660 422l2-1 3 2-2 1-3-2z" stroke="#31CEFF" stroke-width="1.6" stroke-linecap="round" stroke-linejoin="round"/><path clip-rule="evenodd" d="M661 421l-1 1v3l2-1-1-3zM656 425l2-1 3 2-2 1-3-2z" stroke="#31CEFF" stroke-width="1.6" stroke-linecap="round" stroke-linejoin="round"/><path clip-rule="evenodd" d="M658 424l-2 1v3l2-1v-3z" stroke="#31CEFF" stroke-width="1.6" stroke-linecap="round" stroke-linejoin="round"/><path clip-rule="evenodd" d="M652 428l2-2 3 2-1 2-4-2z" stroke="#31CEFF" stroke-width="1.6" stroke-linecap="round" stroke-linejoin="round"/><path clip-rule="evenodd" d="M654 427l-2 1 1 3 1-1v-3z" stroke="#31CEFF" stroke-width="1.6" stroke-linecap="round" stroke-linejoin="round"/><path d="M616 440l3-2-2-9 30-21 7-2m15 10l-9-7 15-11 10 1m22 12l2-2h7l4-3m1 9l-4 4m13-1h-3l-4 4m19-3a721 721 0 01-7 5h-4l-2 1m28-12v2l-17 13-7-1m36-17l-31 24m-28-62l-11 8-10-6-2-4m-25 27l22-16 7 4" stroke="#31CEFF" stroke-width="1.6" stroke-linecap="round" stroke-linejoin="round"/><path d="M709 402l-4 4-11-7-1-5-8-5h-9l-12 9m-13 48l-13 10m11 9l-4-2 1-7 9-7m10 7l-7 6m11-3l-7 7v2l32 23 1 8" stroke="#31CEFF" stroke-width="1.6" stroke-linecap="round" stroke-linejoin="round"/><path d="M673 462l-6 5 33 22 1 10a8007 8007 0 0018 11l1 7" stroke="#31CEFF" stroke-width="1.6" stroke-linecap="round" stroke-linejoin="round"/><path d="M697 480l-6-1-14-9 3-3m44-5l11 7m-6-9l3 3h4l4 2m-7-10l11 8m-7-10l11 7m-33 10l10 7m-13 2l-1-6m0 0l10 7m75-36l6-1 9 6" stroke="#31CEFF" stroke-width="1.6" stroke-linecap="round" stroke-linejoin="round"/><path clip-rule="evenodd" d="M729 486a414 414 0 01-5-4l-7 5 5 3 7-4z" stroke="#31CEFF" stroke-width="1.6" stroke-linecap="round" stroke-linejoin="round"/><path clip-rule="evenodd" d="M723 490l-6-3-10 8 8 5 7-10zm22 6a427 427 0 01-6-4l-7 5 5 4 8-5z" stroke="#31CEFF" stroke-width="1.6" stroke-linecap="round" stroke-linejoin="round"/><path clip-rule="evenodd" d="M737 501l-5-4-10 8 8 5 7-9zm23 6l-6-4-7 5 6 3 7-4z" stroke="#31CEFF" stroke-width="1.6" stroke-linecap="round" stroke-linejoin="round"/><path clip-rule="evenodd" d="M753 511l-6-3-9 8 8 5 7-10zm22 6l-6-4-7 5 6 4 7-5z" stroke="#31CEFF" stroke-width="1.6" stroke-linecap="round" stroke-linejoin="round"/><path clip-rule="evenodd" d="M768 522l-6-4-10 9 8 5 8-10zm-10-67l5 4 7-5-5-4-7 5z" stroke="#31CEFF" stroke-width="1.6" stroke-linecap="round" stroke-linejoin="round"/><path clip-rule="evenodd" d="M765 450l5 4 5 1-8-5h-2zm8 15l6 4 7-5-6-3a785 785 0 00-7 4z" stroke="#31CEFF" stroke-width="1.6" stroke-linecap="round" stroke-linejoin="round"/><path clip-rule="evenodd" d="M780 461l6 3 5 1-8-5-3 1zm8 14l6 3 7-4-6-4-7 5z" stroke="#31CEFF" stroke-width="1.6" stroke-linecap="round" stroke-linejoin="round"/><path clip-rule="evenodd" d="M795 470a444 444 0 006 4l5 1-8-5h-3zm8 15l6 4 7-5-5-4a775 775 0 01-8 5z" stroke="#31CEFF" stroke-width="1.6" stroke-linecap="round" stroke-linejoin="round"/><path clip-rule="evenodd" d="M811 480l5 4 5 1a1122 1122 0 01-10-5zm329-189l-57-27-56-27-55-27-54-26a17801 17801 0 01-54 43l-54 41a25222 25222 0 0053 31l54 31 54 32 56 32 56-51 57-52z" stroke="#31CEFF" stroke-width="1.6" stroke-linecap="round" stroke-linejoin="round"/><path d="M1140 291l1 8-57 52-57 52v-9M810 268v7l53 31 54 32 54 32 56 33" stroke="#31CEFF" stroke-width="1.6" stroke-linecap="round" stroke-linejoin="round"/><path clip-rule="evenodd" d="M830 265l33 19a764 764 0 00-4 4l-38-22 34-27 22 11 13-10-22-11 19-16 22 11 13-10-22-10 19-15 38 19-4 3-34-17-11 8 22 11-20 17-23-11-11 8 23 12-22 17-22-12-10 8 34 19-4 4-34-19-11 9zm56 12l40-33 41-32 69 34 71 34-42 37-41 37-70-39-68-38z" stroke="#31CEFF" stroke-width="1.6" stroke-linecap="round" stroke-linejoin="round"/><path d="M1107 280l2 4-42 37-43 38-70-40a41090 41090 0 01-68-40l1-2m137 82v-5" stroke="#31CEFF" stroke-width="1.6" stroke-linecap="round" stroke-linejoin="round"/><path d="M1024 359v13l42-37 43-38v-13m-85 88l-70-40-69-39v-14" stroke="#31CEFF" stroke-width="1.6" stroke-linecap="round" stroke-linejoin="round"/><path d="M1024 372v4l44-38 44-39-3-2m-85 79l-71-41a56765 56765 0 01-70-40l2-2" stroke="#31CEFF" stroke-width="1.6" stroke-linecap="round" stroke-linejoin="round"/><path clip-rule="evenodd" d="M874 306l9-6 9 5-9 6a44 44 0 01-1-1v7l-6-3v-8h-2z" stroke="#31CEFF" stroke-width="1.6" stroke-linecap="round" stroke-linejoin="round"/><path clip-rule="evenodd" d="M883 303l-4 2c0 2 2 3 4 3s4-1 4-3l-4-2zm9 13l8-6 9 5-8 6-2-1v7l-6-3a396 396 0 010-7l-1-1z" stroke="#31CEFF" stroke-width="1.6" stroke-linecap="round" stroke-linejoin="round"/><path clip-rule="evenodd" d="M901 313c-2 0-4 1-4 3l4 2c2 0 4-1 3-2 0-2-1-3-3-3zm9 13l8-6 9 6-8 6-1-1v7l-7-3v-8l-1-1z" stroke="#31CEFF" stroke-width="1.6" stroke-linecap="round" stroke-linejoin="round"/><path clip-rule="evenodd" d="M919 324l-4 2 4 2 4-2-4-2zm9 13l9-6 9 5-8 6-2-1v8l-6-4a986 986 0 00-2-8z" stroke="#31CEFF" stroke-width="1.6" stroke-linecap="round" stroke-linejoin="round"/><path clip-rule="evenodd" d="M937 334c-2 0-4 1-4 3l4 2 4-2c0-1-2-3-4-3zm10 14l8-6 9 5-8 6-2-1v8l-6-4v-8h-1z" stroke="#31CEFF" stroke-width="1.6" stroke-linecap="round" stroke-linejoin="round"/><path clip-rule="evenodd" d="M956 345l-4 2c0 2 2 3 4 3s3-1 3-2c0-2-1-3-3-3zm10 14l8-6 10 5-9 6-1-1v8l-7-3a738 738 0 00-1-9z" stroke="#31CEFF" stroke-width="1.6" stroke-linecap="round" stroke-linejoin="round"/><path clip-rule="evenodd" d="M975 356c-2 0-4 1-4 3l4 2 4-2c0-2-2-3-4-3zm11 14l9-6 9 6-9 6-1-1v8l-7-3a1146 1146 0 00-1-10z" stroke="#31CEFF" stroke-width="1.6" stroke-linecap="round" stroke-linejoin="round"/><path clip-rule="evenodd" d="M995 368l-4 2c0 1 2 3 4 3s4-1 4-3l-4-2zm11 14l9-6 9 5-8 7-2-1v8l-6-4-1-8-1-1z" stroke="#31CEFF" stroke-width="1.6" stroke-linecap="round" stroke-linejoin="round"/><path clip-rule="evenodd" d="M1015 380c-2-1-4 0-4 2l4 2 4-2-4-2zm31-5l2-4h-4c-2 0-3 2-2 3l4 1z" stroke="#31CEFF" stroke-width="1.6" stroke-linecap="round" stroke-linejoin="round"/><path clip-rule="evenodd" d="M1053 371l-8-4-9 7a618 618 0 0010 3v9l5-5v-9l2-1zm7-9c2-1 2-3 2-4h-4c-2 0-3 2-2 3l4 1z" stroke="#31CEFF" stroke-width="1.6" stroke-linecap="round" stroke-linejoin="round"/><path clip-rule="evenodd" d="M1067 358l-8-4-9 7 9 5 1-2v9l6-5v-9l1-1zm7-9c2-1 3-3 2-4h-4c-1 0-3 2-2 3l4 1z" stroke="#31CEFF" stroke-width="1.6" stroke-linecap="round" stroke-linejoin="round"/><path clip-rule="evenodd" d="M1081 345l-8-4-8 8 8 4 1-2 1 9 5-5v-9l1-1zm7-9l2-3-4-1c-2 1-3 3-2 4h4z" stroke="#31CEFF" stroke-width="1.6" stroke-linecap="round" stroke-linejoin="round"/><path clip-rule="evenodd" d="M1095 333l-8-4-9 7 8 4 2-1v8l6-5v-8l1-1zm7-10c1 0 3-2 2-3l-4-1c-2 1-3 3-2 4h4z" stroke="#31CEFF" stroke-width="1.6" stroke-linecap="round" stroke-linejoin="round"/><path clip-rule="evenodd" d="M1109 320l-8-4-9 7 8 5 2-2v8l6-4v-9l1-1zm6-9l3-3c-1-1-3-2-4-1l-3 3c1 1 3 2 4 1z" stroke="#31CEFF" stroke-width="1.6" stroke-linecap="round" stroke-linejoin="round"/><path clip-rule="evenodd" d="M1123 307l-8-4-9 8 8 4 2-1v8l5-5v-8l2-2zm6-21l-6 6-12-6 6-6 12 6z" stroke="#31CEFF" stroke-width="1.6" stroke-linecap="round" stroke-linejoin="round"/><path clip-rule="evenodd" d="M1121 288c2 0 3-1 3-2l-5-2c-2 0-3 1-3 2l5 2zm-129-18l-5-2a637 637 0 01-5 4l4 2 6-4zm7 3l-5-2-6 4 5 3 6-5zm6 4l-4-2a1441 1441 0 00-6 4l5 2 5-4zm7 3l-4-2a552 552 0 01-6 4l5 3 5-5zm7 4l-4-2-6 4 5 2 5-4zm7 4l-5-3-5 5 5 2 5-4zm7 3l-5-2-5 4 5 3 5-5zm7 4l-5-3-5 5 4 2 6-4zm7 3l-5-2-5 4 4 3 6-5zm7 4a320 320 0 01-5-3l-5 5 4 2 6-4zm-71-25l-4-3-6 5 5 2 5-4zm7 3l-5-2-5 4 5 3a522 522 0 005-5zm14 7a249 249 0 01-5-2l-6 4 5 3 6-5zm7 4l-5-2-6 4 5 2 6-4zm6 4l-4-3-6 4 5 3 5-5zm7 3l-4-2-6 4 5 2 5-4zm7 4l-4-3-6 5 5 2 5-4zm7 3l-4-2-6 4 5 3 5-5zm7 4l-5-3-5 5 5 2 5-4zm-71-23l-5-2a508 508 0 01-5 4l5 2 5-4zm7 3l-5-2-5 4 5 3 5-5zm7 4l-5-2-5 4 4 2 6-4zm13 7l-4-2-6 4 5 2 5-4zm14 7l-5-2-5 4 5 3 5-5zm7 4l-5-3-5 5 5 2 5-4zm7 3l-5-2-5 4 5 3 5-5zm7 4l-5-2-5 4a320 320 0 004 2l6-4zm-70-24l-4-3-6 5 5 2 5-4zm7 3l-5-2-5 4 5 3 5-5zm20 11l-4-3-6 5 5 2 5-4zm7 3l-4-2-6 4 5 3 5-5zm7 4l-5-2-5 4 5 2 5-4zm7 4l-5-3-5 4 5 3 5-4zm7 3l-5-2-5 4 5 2 5-4zm7 4l-5-3-5 5 4 2 6-4zm-71-25l-5-2-5 4 4 3 6-5zm7 4l-5-2a382 382 0 00-6 4l5 2 6-4zm6 4l-4-3a272 272 0 00-6 5l5 2 5-4zm14 7a132 132 0 01-5-3l-5 5 4 2 6-4zm7 3l-5-2-5 4 4 3 6-5zm7 4l-5-3a484 484 0 00-6 5l5 2 6-4zm7 3l-5-2-6 4 5 3 6-5zm6 4l-4-2a152 152 0 00-6 4l5 2 5-4zm7 4l-4-3-6 5 5 2 5-4zm-71-87l-5-2-5 4 5 2 5-4zm7 3l-5-2-5 4 4 3 6-5zm7 4l-5-2-5 4 4 2 6-4zm6 3l-4-2-6 4 5 3 5-5zm7 4l-4-2-6 4 5 2 5-4zm-34-7l-5-3a568 568 0 00-5 5l4 2a454 454 0 016-4zm6 3l-4-2-6 4 5 2 5-4zm7 4a311 311 0 01-5-3l-5 5 5 2 5-4zm7 3l-5-2-5 4 4 2 6-4zm7 4l-5-3-5 5 4 2 6-4zm6 3a466 466 0 01-4-2l-6 4 5 2 5-4zm1-43c-11 0-21 6-21 13s10 13 22 13c11 0 21-5 21-13 0-7-10-13-22-13zm-32 45c-11 0-19 5-19 12 0 6 8 11 19 12 10 0 19-5 19-12 0-6-9-12-19-12z" stroke="#31CEFF" stroke-width="1.6" stroke-linecap="round" stroke-linejoin="round"/><path clip-rule="evenodd" d="M942 277c-7 0-13 3-13 8 0 4 6 8 13 8s12-4 12-8-5-8-12-8z" stroke="#31CEFF" stroke-width="1.6" stroke-linecap="round" stroke-linejoin="round"/><path clip-rule="evenodd" d="M942 281c-3 0-6 2-6 4s3 3 6 3 6-1 6-3-3-4-6-4zm100 8l1 1h0c4 2 5 3 13 3 9 0 22-7 22-13s-3-8-8-10h0l-1-1-44-21c-4-2-5-3-13-3-9 0-22 7-22 13 0 5 3 7 7 9l2 1 43 21zm-125-15l-10 9-6-4a5070 5070 0 0122-18h6l12 7-5 4-9-6a415 415 0 00-6 5l7 4-4 4a877 877 0 01-7-5z" stroke="#31CEFF" stroke-width="1.6" stroke-linecap="round" stroke-linejoin="round"/><path clip-rule="evenodd" d="M1042 286a27 27 0 001 0c3 2 6 4 14 4s18-5 18-10-5-7-9-10h-2l-12-6c-15-4-19 14-32 11l22 11zm-22-32l-9-4-10 8 9 5 10-9zm13 7l-9-5-10 9 9 4 10-8z" stroke="#31CEFF" stroke-width="1.6" stroke-linecap="round" stroke-linejoin="round"/><path clip-rule="evenodd" d="M1055 271l-9-4-10 8 9 5 10-9zm14 7l-10-4-10 8 9 4 11-8zm-95-47c-9 0-17 5-17 10 0 6 8 10 18 10 9 0 17-4 17-10 0-5-8-10-18-10z" stroke="#31CEFF" stroke-width="1.6" stroke-linecap="round" stroke-linejoin="round"/><path clip-rule="evenodd" d="M972 249l9-15-18 9 9 6zm9-101l-54-25-52-23 45-30 45-29 53 18 55 20-46 34-46 35z" stroke="#31CEFF" stroke-width="1.6" stroke-linecap="round" stroke-linejoin="round"/><path clip-rule="evenodd" d="M974 103l-34-15-33-14 29-19 28-19 34 12 34 12-29 22-29 21z" stroke="#31CEFF" stroke-width="1.6" stroke-linecap="round" stroke-linejoin="round"/><path d="M907 74v5l33 14 34 15a16944 16944 0 0058-43v-5" stroke="#31CEFF" stroke-width="1.6" stroke-linecap="round" stroke-linejoin="round"/><path d="M875 100l-1 6 52 23 54 25 47-35 46-35-1-5m-98 24v5m6 40v6" stroke="#31CEFF" stroke-width="1.6" stroke-linecap="round" stroke-linejoin="round"/><path clip-rule="evenodd" d="M884 104l-6-2 13-8 5 2-12 8z" stroke="#31CEFF" stroke-width="1.6" stroke-linecap="round" stroke-linejoin="round"/><path clip-rule="evenodd" d="M884 110l-6-2v-6l6 2v6zm4-13l-3 3h3l3-3h-3zm16-6l-6-2 12-9 6 3-12 8z" stroke="#31CEFF" stroke-width="1.6" stroke-linecap="round" stroke-linejoin="round"/><path clip-rule="evenodd" d="M907 84l-3 3h3l4-3h-4zm-13 25l-6-3 12-8 6 2-12 9z" stroke="#31CEFF" stroke-width="1.6" stroke-linecap="round" stroke-linejoin="round"/><path clip-rule="evenodd" d="M893 114l-5-2v-6l6 3-1 5zm4-12l-3 2h3l3-3-3 1zm16-7l-6-2 13-8 5 2-12 8z" stroke="#31CEFF" stroke-width="1.6" stroke-linecap="round" stroke-linejoin="round"/><path clip-rule="evenodd" d="M917 88l-3 3h3l3-3h-3zm-14 25l-6-3 13-8 5 2-12 9z" stroke="#31CEFF" stroke-width="1.6" stroke-linecap="round" stroke-linejoin="round"/><path clip-rule="evenodd" d="M903 118l-6-2v-6l6 3v5zm4-12l-3 3 3-1 3-3-3 1zm16-7a489 489 0 01-6-2l12-8 6 2-12 8z" stroke="#31CEFF" stroke-width="1.6" stroke-linecap="round" stroke-linejoin="round"/><path clip-rule="evenodd" d="M926 92l-3 3h3l3-3h-3zm-13 25l-6-2 12-9 6 3-12 8zm0 6l-7-3 1-5 6 2v6z" stroke="#31CEFF" stroke-width="1.6" stroke-linecap="round" stroke-linejoin="round"/><path clip-rule="evenodd" d="M916 110l-3 3h3l3-3h-3zm16-6l-6-3 13-8 6 2-13 9z" stroke="#31CEFF" stroke-width="1.6" stroke-linecap="round" stroke-linejoin="round"/><path clip-rule="evenodd" d="M936 97l-3 3 3-1 3-3-3 1zm-14 24l-6-2 13-9 5 3-12 8z" stroke="#31CEFF" stroke-width="1.6" stroke-linecap="round" stroke-linejoin="round"/><path clip-rule="evenodd" d="M922 127a499 499 0 01-6-2v-6l6 2v6zm4-13l-3 3h3l3-3h-3zm16-6l-6-3 12-8 6 2-12 9z" stroke="#31CEFF" stroke-width="1.6" stroke-linecap="round" stroke-linejoin="round"/><path clip-rule="evenodd" d="M946 101l-4 3 4-1 3-3-3 1zm-14 25l-6-3 12-8 6 2-12 9z" stroke="#31CEFF" stroke-width="1.6" stroke-linecap="round" stroke-linejoin="round"/><path clip-rule="evenodd" d="M932 131l-6-2v-6l6 3v5zm3-13l-3 4 3-1 3-3h-3zm17-6l-6-2 12-9 6 3-12 8z" stroke="#31CEFF" stroke-width="1.6" stroke-linecap="round" stroke-linejoin="round"/><path clip-rule="evenodd" d="M955 105l-3 3h3l3-3h-3zm-13 25l-6-2 12-9 6 3-12 8z" stroke="#31CEFF" stroke-width="1.6" stroke-linecap="round" stroke-linejoin="round"/><path clip-rule="evenodd" d="M942 136l-6-3v-5l6 2v6zm3-13l-3 3h3l4-3h-4zm17-6l-6-3 12-8 6 2-12 9z" stroke="#31CEFF" stroke-width="1.6" stroke-linecap="round" stroke-linejoin="round"/><path clip-rule="evenodd" d="M965 109l-3 3h3l4-3h-4zm0 20l-6-3 12-8 6 2-12 9z" stroke="#31CEFF" stroke-width="1.6" stroke-linecap="round" stroke-linejoin="round"/><path d="M966 119l7-4 8 3-6 5m-14 0l-7 5 10 4 6-5" stroke="#31CEFF" stroke-width="1.6" stroke-linecap="round" stroke-linejoin="round"/><path clip-rule="evenodd" d="M928 75l-4-1 7-6 5 2-8 5zm5 3l-4-2 8-5 4 1-8 6zm6 2l-4-2 7-5 5 2-8 5zm11 5l-4-2 7-6 5 2-8 6zm6 2l-5-2 8-5 4 1-7 6zm5 2l-4-1 7-6 5 2-8 5zm6 3l-5-2 8-6 4 2-7 6zm5 2l-4-2 8-5 4 1-8 6zm-34-26l-4-2 8-5 4 2-8 5zm6 2l-5-2 8-5 4 2-7 5zm11 5l-5-2 8-5 4 1-7 6zm11 4l-5-1 8-6 4 2-7 5zm5 3l-4-2 8-6 4 2-8 6zm6 2l-5-2 8-5 5 2-8 5zm5 2l-4-1 8-6 4 2-8 5zm-18-39c-6 0-10 3-10 7 0 3 4 5 10 5 6-1 10-4 10-7 0-4-4-6-10-5zm32 25a5 5 0 000 0h7c4 0 10-4 10-7 0-2-1-3-3-4v0h-1l-21-8-6-1c-4 1-11 5-11 7 0 3 2 4 4 5h1l20 8z" stroke="#31CEFF" stroke-width="1.6" stroke-linecap="round" stroke-linejoin="round"/><path clip-rule="evenodd" d="M986 56l-4-1-6 4 5 2 5-5zm6 3l-4-2-5 4 4 2 5-4zm10 4l-4-2-5 4 4 2 5-5zm7 2l-5-2-5 5 4 1 6-4z" stroke="#31CEFF" stroke-width="1.6" stroke-linecap="round" stroke-linejoin="round"/><path d="M974 50c-2 4-7 4-10 4s-6 2-3 5m13-6l-5 1" stroke="#31CEFF" stroke-width="1.6" stroke-linecap="round" stroke-linejoin="round"/><path clip-rule="evenodd" d="M965 56l-2 1 2 1 2-1-2-1zm29 73l-12-6 17-13 11 5 11-8-11-5 16-12 12 5 10-7a5640 5640 0 01-16-5l3-3 16 6 7-5-24-9 2-2 29 10-27 20-12-6-9 7 11 5-18 14-11-5-11 8 12 5-18 14a3209 3209 0 01-15-8l4-2 11 5 12-8zM372 371l-46-35-45-35-45 24a37046 37046 0 00-45 23l41 40 41 40 49-28 50-29z" stroke="#31CEFF" stroke-width="1.6" stroke-linecap="round" stroke-linejoin="round"/><path d="M191 348v9l41 40 41 41v-10m0 10l49-30 50-29v-8" stroke="#31CEFF" stroke-width="1.6" stroke-linecap="round" stroke-linejoin="round"/><path clip-rule="evenodd" d="M184 406l-14-5-12 7 1 12a1604 1604 0 0014 4l11-6v-12z" stroke="#31CEFF" stroke-width="1.6" stroke-linecap="round" stroke-linejoin="round"/><path clip-rule="evenodd" d="M171 409c-3 0-5 2-5 4s2 4 5 4 6-2 6-4-3-4-6-4zm-8-26l-14-4-11 6v12l14 4 11-6v-12z" stroke="#31CEFF" stroke-width="1.6" stroke-linecap="round" stroke-linejoin="round"/><path clip-rule="evenodd" d="M151 386c-3 0-6 2-6 4s2 3 5 3 6-2 6-3c0-2-2-4-5-4zm55 45l-14-5-12 7 1 12 14 4 11-6v-12z" stroke="#31CEFF" stroke-width="1.6" stroke-linecap="round" stroke-linejoin="round"/><path clip-rule="evenodd" d="M193 434c-3 0-5 2-5 4s2 4 5 4 6-2 6-4-3-4-6-4zm-49-72l-13-4-10 6v11l13 4 10-5v-12z" stroke="#31CEFF" stroke-width="1.6" stroke-linecap="round" stroke-linejoin="round"/><path clip-rule="evenodd" d="M132 365c-2 0-5 2-5 4s2 3 5 3 5-2 5-3c0-2-2-4-5-4zm100 92l-16-5-13 7 1 14a2675 2675 0 0016 5l12-7v-14z" stroke="#31CEFF" stroke-width="1.6" stroke-linecap="round" stroke-linejoin="round"/><path clip-rule="evenodd" d="M218 461c-4 0-7 2-7 4s3 4 7 4c3 0 6-2 6-4s-3-4-6-4zm-7-55l-15-15-9 5 14 15 10-5z" stroke="#31CEFF" stroke-width="1.6" stroke-linecap="round" stroke-linejoin="round"/><path clip-rule="evenodd" d="M213 408l-17-17-12 7 16 18 13-8zm10 13l-9-9-6 3 9 10 6-4z" stroke="#31CEFF" stroke-width="1.6" stroke-linecap="round" stroke-linejoin="round"/><path clip-rule="evenodd" d="M225 423l-11-11-8 4 11 12 8-5zm12 14l-9-10-6 3 9 10 6-3z" stroke="#31CEFF" stroke-width="1.6" stroke-linecap="round" stroke-linejoin="round"/><path clip-rule="evenodd" d="M239 438a835 835 0 01-11-11l-8 5 10 11 9-5zm11 13l-9-9-6 3 9 10 6-4z" stroke="#31CEFF" stroke-width="1.6" stroke-linecap="round" stroke-linejoin="round"/><path clip-rule="evenodd" d="M252 453l-11-11-8 4 11 12 8-5zm-60-65l-9-9-6 3 8 10 7-4z" stroke="#31CEFF" stroke-width="1.6" stroke-linecap="round" stroke-linejoin="round"/><path clip-rule="evenodd" d="M193 390l-10-11-8 4 10 12 8-5zm-68-40c-2 0-3 1-3 3 0 1 1 2 3 2l4-2c0-2-2-3-4-3zm41-20c-2 0-4 1-4 3 0 1 2 3 4 3s4-2 4-3c0-2-2-3-4-3zm-4-1l-7-7a554 554 0 00-5 3 560 560 0 007 8l5-4zm17 0l-4-4-6 3 4 4 6-3zm-34 3a479 479 0 01-9-3l-14 7v9l11 3 12-6v-10z" stroke="#31CEFF" stroke-width="1.6" stroke-linecap="round" stroke-linejoin="round"/><path clip-rule="evenodd" d="M133 334c-3 0-5 2-5 5 0 2 2 4 5 4s6-2 6-5c0-2-2-4-6-4zm37-9l-7-7-5 3 7 7 5-3zm104-57l-15-3-10 6v7l14 3 11-6v-7z" stroke="#31CEFF" stroke-width="1.6" stroke-linecap="round" stroke-linejoin="round"/><path clip-rule="evenodd" d="M262 269c-3 1-6 2-6 4s3 4 6 3c3 0 6-1 6-3s-3-4-6-4zm52 68l-16-4-13 6 3 13 16 4 12-6-2-13zm108 10l-17-4-13 6 4 12 18 4 11-6a667 667 0 01-3-12z" stroke="#31CEFF" stroke-width="1.6" stroke-linecap="round" stroke-linejoin="round"/><path clip-rule="evenodd" d="M408 350c-3 0-6 2-6 4 1 2 4 3 8 3 3 0 6-1 5-3 0-2-3-4-7-4zm-17-24l-16-4a856 856 0 00-12 7l4 11 17 3 11-6-4-11z" stroke="#31CEFF" stroke-width="1.6" stroke-linecap="round" stroke-linejoin="round"/><path clip-rule="evenodd" d="M378 329c-3 1-6 2-5 4 0 2 3 3 7 3 3 0 5-2 5-3 0-2-3-4-7-4zm-15-22l-15-3-11 6 3 11 16 3 10-6-3-11z" stroke="#31CEFF" stroke-width="1.6" stroke-linecap="round" stroke-linejoin="round"/><path clip-rule="evenodd" d="M351 311c-3 0-5 2-5 3 0 2 3 3 6 3s6-2 5-3c0-2-3-3-6-3zm-14-21l-15-3-10 6 3 10 15 2 10-5a489 489 0 01-3-10z" stroke="#31CEFF" stroke-width="1.6" stroke-linecap="round" stroke-linejoin="round"/><path clip-rule="evenodd" d="M325 293c-3 0-5 2-5 3 1 2 4 3 7 3s5-1 4-3c0-2-3-3-6-3zm-12-19l-14-3-10 6 2 9 14 2 10-5-2-9z" stroke="#31CEFF" stroke-width="1.6" stroke-linecap="round" stroke-linejoin="round"/><path clip-rule="evenodd" d="M302 277c-3 0-5 2-5 3 0 2 3 3 5 3 3 0 5-2 5-4 0-1-2-2-5-2zm114 94c-2 0-4 2-4 4s2 3 4 3 5-1 5-3-2-4-5-4zm-185-76a4086 4086 0 00-18-15h-5l-32 15-6 6 18 19h7l35-20 1-5z" stroke="#31CEFF" stroke-width="1.6" stroke-linecap="round" stroke-linejoin="round"/><path d="M170 301l7-3 34-17 16 14-4 3-2-2-5 3 2 2-14 8-3-3-4 3 2 2a241 241 0 00-5 4l-17-17m27 11v6m-5-4v7m19-17v6m5-9v6" stroke="#31CEFF" stroke-width="1.6" stroke-linecap="round" stroke-linejoin="round"/><path d="M214 303v3l-5 3v-3m-33-11l1 3m18 22l-1-5-6 5m43-25h-4l3 5m-17-20l-2 1-3-1" stroke="#31CEFF" stroke-width="1.6" stroke-linecap="round" stroke-linejoin="round"/><path d="M177 308l-55 28-1 39 13 4 4 6v12l14 4 6 7 1 12 14 4 7 9 1 12 14 4 8 10 1 14 16 5 40 5 41 5 61-38 61-38 2-53a675 675 0 01-3-12l-17-4-10-6-4-11a1641 1641 0 00-16-4l-9-4-3-11-15-3-8-4-3-10-15-3-7-4-2-9-14-3a1727 1727 0 01-40-6l-10 6-29 15" stroke="#31CEFF" stroke-width="1.6" stroke-linecap="round" stroke-linejoin="round"/><path clip-rule="evenodd" d="M241 290l-9-8-5 3 9 8 5-4zm8-5l-9-7-5 2 9 8 5-3z" stroke="#31CEFF" stroke-width="1.6" stroke-linecap="round" stroke-linejoin="round"/><path d="M174 309l19 20 40-23-4-5m-27 18l3 4m0-6l4 4m0-5l3 3m1-5l3 3m0-5l3 3m1-5l3 3" stroke="#31CEFF" stroke-width="1.6" stroke-linecap="round" stroke-linejoin="round"/><path clip-rule="evenodd" d="M186 318l-7-8-5 4 7 7 5-3z" stroke="#31CEFF" stroke-width="1.6" stroke-linecap="round" stroke-linejoin="round"/><path d="M144 362l42-21 14 1 1 1" stroke="#31CEFF" stroke-width="1.6" stroke-linecap="round" stroke-linejoin="round"/><path d="M156 332l-5 17 5 7" stroke="#31CEFF" stroke-width="1.6" stroke-linecap="round" stroke-linejoin="round"/><path d="M158 355l-4-7 5-17m264 81v6l-62 38-60 38v-6m0 6a11980 11980 0 01-81-9l-17-6 1-6m-23-28l-1 6 14 4 9 10m-44-45l-1 5 14 4 8 10m-42-42v5l14 3 6 7m-37-37v5l12 3 5 8" stroke="#31CEFF" stroke-width="1.6" stroke-linecap="round" stroke-linejoin="round"/><path clip-rule="evenodd" d="M310 308l-9-7-5 3 9 7 5-3zm47 35l-6-5-5 3a471 471 0 007 5l4-3zm6 3l-4-2-5 3a135 135 0 004 3l5-4zm10 8l-7-4-4 2 6 5 5-3zm5 4l-4-3-4 3 3 3 5-3zm-128 3l-5-4-9 5 4 4 10-5zm-20-18l-5-4-9 4 4 5 10-5zm6 5l-5-4-9 5 4 4 10-5zm8 8a261 261 0 01-5-4l-9 4 4 5 10-5zm12 10a194 194 0 01-5-4l-9 5 4 4 10-5zm6 6l-5-4a514 514 0 00-9 5l4 4 10-5zm6 5a195 195 0 01-5-4l-9 5 4 4 10-5zm12 11l-5-4-9 5 4 4 10-5zm6 5l-5-4-9 5 4 4 10-5zm6 6l-5-4-9 5 4 4 10-5zm-75-44l-4-4-8 5 4 3 8-4zm5 4l-4-3-8 4 4 4 8-5zm5 5l-4-3a929 929 0 01-8 4l4 4 8-5zm5 5l-4-3-8 4 4 3 8-4zm5 5l-4-4a553 553 0 01-8 4l4 4 8-4zm5 4a290 290 0 01-3-3 682 682 0 01-8 4l3 4 8-5zm11 10l-4-4-8 4 3 4 9-4zm5 4l-4-3a921 921 0 01-8 4l4 4 8-5zm5 5a186 186 0 01-4-4 703 703 0 01-8 5l4 3 8-4zm5 5l-4-4a392 392 0 01-8 4l4 4 8-4zm5 4l-3-3-8 4 3 4a973 973 0 008-5zm-84-41l-4-3-2 1 3 2-3 1-2-2-4 1 4 4 8-4zm5 6l-4-4-2 1 3 2-3 1-2-2-4 2 4 3 8-3zm5 5l-4-4-2 1 3 2-3 1-2-2-4 2 4 4 8-4zm5 5l-4-4-1 1 2 2-3 2-2-3-4 2 4 4 8-4zm5 5l-4-4-1 1 2 3-3 1a49 49 0 01-2-3l-4 2 4 4 8-4zm5 5l-4-3h-1l2 3-2 1-3-2-3 1 3 4 8-4zm5 6a200 200 0 01-4-4l-1 1 2 2-2 1a60 60 0 01-3-2l-3 2 3 3 8-3zm5 5l-3-4-2 1 2 2-2 1-3-2-3 2 3 4 8-4zm6 5l-4-4-2 1 2 2-2 2-3-3-3 2 3 4 9-4zm5 5l-4-3h-2l3 3-3 1-2-2-4 1 4 4 8-4zm5 6l-4-4-2 1 3 2-3 1-2-2-4 1 4 4 8-3zm5 5a123 123 0 01-4-4l-1 1 2 2-3 1-2-2-4 2 4 4 8-4zm5 5l-4-4-1 1 2 2-2 2-3-3-4 2a87 87 0 004 4l8-4zm5 5l-4-3h-1l2 3-2 1-3-3-3 2 3 4 8-4zm6 6l-4-4-2 1 2 2-2 1-3-2-3 1 3 4 9-3zm5 5l-4-4-2 1 3 2-3 1-2-2-4 2 4 4 8-4z" stroke="#31CEFF" stroke-width="1.6" stroke-linecap="round" stroke-linejoin="round"/><path d="M191 354l-9 5 41 42 43 43 55-33 55-32-4-3m-187-3h-9l-16 9m29-5h-12l-8 5v17m26-15h-7" stroke="#31CEFF" stroke-width="1.6" stroke-linecap="round" stroke-linejoin="round"/><path d="M175 383l-3 2 1 15m-4-1l1 3M173 400l13 4 1 14 5 6 17 5v14l6 7 19 5 1 15 29-16-6-6m3-2l40 42m-20-39l27 26m-3-27l16 16m4-23l16 15m-4-27a3265 3265 0 0117 15m3-22l16 14m-16-35a6769 6769 0 0032 27m-18-35l32 26" stroke="#31CEFF" stroke-width="1.6" stroke-linecap="round" stroke-linejoin="round"/><path d="M264 450l1-6 32 34h12l53-32 53-33 1-9-37-27-3 2m39 34v4m-106 61v5m-12-5v5m12 0h-12" stroke="#31CEFF" stroke-width="1.6" stroke-linecap="round" stroke-linejoin="round"/><path clip-rule="evenodd" d="M204 335l-5-5a294 294 0 00-5 3l4 5 6-3zm12-7l-4-4-6 3 4 4 6-3zm119 88a636 636 0 01-4-4l-6 3 4 4 6-3zm27-18a213 213 0 01-4-4l-5 3 4 4 5-3zm14-8a568 568 0 00-4-4l-5 3 4 4 5-3z" stroke="#31CEFF" stroke-width="1.6" stroke-linecap="round" stroke-linejoin="round"/><path d="M269 307l-10-8h-11l-25 14" stroke="#31CEFF" stroke-width="1.6" stroke-linecap="round" stroke-linejoin="round"/><path d="M266 309l-9-7h-9l-27 15-2-2m-3 13h8l30-16 2 2" stroke="#31CEFF" stroke-width="1.6" stroke-linecap="round" stroke-linejoin="round"/><path d="M262 311l-7-6h-6l-4 2m7 0l6 6m126 68l5-4-1-16-45-32-44-32m36 21l-31-22m-17 10l7 1 32 24 1 6m-23-41v-7m-5 8l-1-10" stroke="#31CEFF" stroke-width="1.6" stroke-linecap="round" stroke-linejoin="round"/><path clip-rule="evenodd" d="M292 340l3-2 14 11-3 2-11-2-3-9zm18 38l8 7-9 6-9-7 10-6zm-10-8l8 7-9 6-9-7 10-6zm-10-9l8 7-9 7-9-8 10-6zm-10-8l8 7-9 6-9-7 10-6zm-10-8l8 7-9 6a918 918 0 01-9-7l10-6zm-10-9l8 8-9 5a971 971 0 01-9-7l10-6zm-10-8l8 7a513 513 0 00-9 6 1396 1396 0 01-9-7l10-6zm5-37a799 799 0 01-5-5l-5 3a411 411 0 004 5l6-3z" stroke="#31CEFF" stroke-width="1.6" stroke-linecap="round" stroke-linejoin="round"/><path d="M125 67l68-25 61 36 61 36-92 43-95 44-55-45-54-46 65-27" stroke="#31CEFF" stroke-width="1.6" stroke-linecap="round" stroke-linejoin="round"/><path d="M19 110v6a34307 34307 0 00109 93v-8m0 8l96-45 91-44v-6" stroke="#31CEFF" stroke-width="1.6" stroke-linecap="round" stroke-linejoin="round"/><path clip-rule="evenodd" d="M159 90l-37-25-38 14 39 26 36-15z" stroke="#31CEFF" stroke-width="1.6" stroke-linecap="round" stroke-linejoin="round"/><path d="M84 79v4l39 27v-5m0 5l36-16v-4" stroke="#31CEFF" stroke-width="1.6" stroke-linecap="round" stroke-linejoin="round"/><path clip-rule="evenodd" d="M211 132l-42-28-39 15 43 30 38-17z" stroke="#31CEFF" stroke-width="1.6" stroke-linecap="round" stroke-linejoin="round"/><path d="M130 119v5l43 30v-5M173 154l39-17-1-5" stroke="#31CEFF" stroke-width="1.6" stroke-linecap="round" stroke-linejoin="round"/><path clip-rule="evenodd" d="M208 101l-18-12-15 5 19 13 14-6z" stroke="#31CEFF" stroke-width="1.6" stroke-linecap="round" stroke-linejoin="round"/><path d="M175 94l1 3 18 13v-3m0 3l14-6v-3" stroke="#31CEFF" stroke-width="1.6" stroke-linecap="round" stroke-linejoin="round"/><path clip-rule="evenodd" d="M50 118c5 0 9 2 9 5 1 3-4 5-9 5s-10-2-10-5 4-5 10-5zM49 115l4 1c0 1-1 2-3 2l-4-2 3-1z" stroke="#31CEFF" stroke-width="1.6" stroke-linecap="round" stroke-linejoin="round"/><path d="M46 116l-3 6" stroke="#31CEFF" stroke-width="1.6" stroke-linecap="round" stroke-linejoin="round"/><path clip-rule="evenodd" d="M50 119c4 0 7 1 7 4 0 2-3 3-7 3s-7-1-7-4c-1-2 3-3 7-3z" stroke="#31CEFF" stroke-width="1.6" stroke-linecap="round" stroke-linejoin="round"/><path d="M53 116l4 7" stroke="#31CEFF" stroke-width="1.6" stroke-linecap="round" stroke-linejoin="round"/><path clip-rule="evenodd" d="M71 110c5 0 9 2 10 5 0 3-4 5-10 5-5 0-9-2-10-5 0-3 4-5 10-5zM71 107l3 1c0 1-1 2-3 2l-4-2 4-1z" stroke="#31CEFF" stroke-width="1.6" stroke-linecap="round" stroke-linejoin="round"/><path d="M67 108l-3 6" stroke="#31CEFF" stroke-width="1.6" stroke-linecap="round" stroke-linejoin="round"/><path clip-rule="evenodd" d="M71 111c4 0 7 1 7 3 0 3-3 4-7 4s-7-2-7-4 3-4 7-3z" stroke="#31CEFF" stroke-width="1.6" stroke-linecap="round" stroke-linejoin="round"/><path d="M74 108l4 6" stroke="#31CEFF" stroke-width="1.6" stroke-linecap="round" stroke-linejoin="round"/><path clip-rule="evenodd" d="M69 132c6 1 10 3 10 6s-4 5-9 5-10-2-10-5 4-6 9-6z" stroke="#31CEFF" stroke-width="1.6" stroke-linecap="round" stroke-linejoin="round"/><path clip-rule="evenodd" d="M69 129l4 2-4 2c-2 0-3-1-3-2s1-2 3-2z" stroke="#31CEFF" stroke-width="1.6" stroke-linecap="round" stroke-linejoin="round"/><path d="M66 131l-4 6" stroke="#31CEFF" stroke-width="1.6" stroke-linecap="round" stroke-linejoin="round"/><path clip-rule="evenodd" d="M69 133c4 0 8 2 8 4s-3 4-7 4-7-2-8-4c0-2 3-4 7-4z" stroke="#31CEFF" stroke-width="1.6" stroke-linecap="round" stroke-linejoin="round"/><path d="M73 131l4 6" stroke="#31CEFF" stroke-width="1.6" stroke-linecap="round" stroke-linejoin="round"/><path clip-rule="evenodd" d="M90 124c6 0 10 3 10 6 0 2-4 5-9 5s-10-3-10-6 4-5 9-5zM90 121l4 2-4 1-3-1c0-1 1-2 3-2z" stroke="#31CEFF" stroke-width="1.6" stroke-linecap="round" stroke-linejoin="round"/><path d="M87 123l-3 6" stroke="#31CEFF" stroke-width="1.6" stroke-linecap="round" stroke-linejoin="round"/><path clip-rule="evenodd" d="M90 125c4 0 8 2 8 4s-3 4-7 4-7-2-7-4c-1-2 3-4 6-4z" stroke="#31CEFF" stroke-width="1.6" stroke-linecap="round" stroke-linejoin="round"/><path d="M94 123l4 6" stroke="#31CEFF" stroke-width="1.6" stroke-linecap="round" stroke-linejoin="round"/><path clip-rule="evenodd" d="M90 150c5 0 9 2 9 5 1 3-4 5-9 5s-10-2-10-5 4-6 10-6z" stroke="#31CEFF" stroke-width="1.6" stroke-linecap="round" stroke-linejoin="round"/><path clip-rule="evenodd" d="M89 146l4 2c0 1-1 2-3 2l-4-2c0-1 1-2 3-2z" stroke="#31CEFF" stroke-width="1.6" stroke-linecap="round" stroke-linejoin="round"/><path d="M86 148l-3 6" stroke="#31CEFF" stroke-width="1.6" stroke-linecap="round" stroke-linejoin="round"/><path clip-rule="evenodd" d="M90 150c4 0 7 2 7 4s-3 4-7 4-7-2-7-4 3-4 7-4z" stroke="#31CEFF" stroke-width="1.6" stroke-linecap="round" stroke-linejoin="round"/><path d="M93 148l4 6" stroke="#31CEFF" stroke-width="1.6" stroke-linecap="round" stroke-linejoin="round"/><path clip-rule="evenodd" d="M111 141c5 0 9 3 9 6 1 2-4 5-9 5s-10-3-10-6 4-5 10-5zM110 138l4 2-4 1-3-1c0-1 1-2 3-2z" stroke="#31CEFF" stroke-width="1.6" stroke-linecap="round" stroke-linejoin="round"/><path d="M107 140l-3 6" stroke="#31CEFF" stroke-width="1.6" stroke-linecap="round" stroke-linejoin="round"/><path clip-rule="evenodd" d="M111 142c3 0 7 2 7 4s-3 4-7 4-7-2-7-4 3-4 7-4z" stroke="#31CEFF" stroke-width="1.6" stroke-linecap="round" stroke-linejoin="round"/><path d="M114 140l4 6" stroke="#31CEFF" stroke-width="1.6" stroke-linecap="round" stroke-linejoin="round"/><path clip-rule="evenodd" d="M110 167c6 0 10 2 10 5 1 3-4 5-9 5s-10-2-10-5 4-6 9-5z" stroke="#31CEFF" stroke-width="1.6" stroke-linecap="round" stroke-linejoin="round"/><path clip-rule="evenodd" d="M110 163l4 2-4 2c-2 0-3-1-3-2s1-2 3-2z" stroke="#31CEFF" stroke-width="1.6" stroke-linecap="round" stroke-linejoin="round"/><path d="M107 165l-3 6" stroke="#31CEFF" stroke-width="1.6" stroke-linecap="round" stroke-linejoin="round"/><path clip-rule="evenodd" d="M111 167c3 0 7 2 7 4s-3 4-7 4-7-2-7-4c-1-2 3-4 7-4z" stroke="#31CEFF" stroke-width="1.6" stroke-linecap="round" stroke-linejoin="round"/><path d="M114 165l4 6" stroke="#31CEFF" stroke-width="1.6" stroke-linecap="round" stroke-linejoin="round"/><path clip-rule="evenodd" d="M131 158c6 0 10 3 10 5 0 3-4 6-9 6s-10-3-10-6 4-5 9-5zM131 155l4 2-4 1-3-1c0-1 1-2 3-2z" stroke="#31CEFF" stroke-width="1.6" stroke-linecap="round" stroke-linejoin="round"/><path d="M128 157l-3 6" stroke="#31CEFF" stroke-width="1.6" stroke-linecap="round" stroke-linejoin="round"/><path clip-rule="evenodd" d="M131 159c4 0 8 2 8 4s-3 4-7 4-7-2-7-4c-1-2 3-4 6-4z" stroke="#31CEFF" stroke-width="1.6" stroke-linecap="round" stroke-linejoin="round"/><path d="M135 157l4 6" stroke="#31CEFF" stroke-width="1.6" stroke-linecap="round" stroke-linejoin="round"/><path clip-rule="evenodd" d="M214 156l-8-6-12 6 9 6 11-6z" stroke="#31CEFF" stroke-width="1.6" stroke-linecap="round" stroke-linejoin="round"/><path d="M194 156v2l9 6-1-2M203 164l11-6v-2" stroke="#31CEFF" stroke-width="1.6" stroke-linecap="round" stroke-linejoin="round"/><path d="M194 158l-6 2 8 7 7-3" stroke="#31CEFF" stroke-width="1.6" stroke-linecap="round" stroke-linejoin="round"/><path clip-rule="evenodd" d="M230 132l-5-4-7 4 5 3 7-3z" stroke="#31CEFF" stroke-width="1.6" stroke-linecap="round" stroke-linejoin="round"/><path d="M218 132v1l5 3v-1m0 1l7-3a17 17 0 010-1" stroke="#31CEFF" stroke-width="1.6" stroke-linecap="round" stroke-linejoin="round"/><path d="M218 133l-3 1 5 4 3-2" stroke="#31CEFF" stroke-width="1.6" stroke-linecap="round" stroke-linejoin="round"/><path clip-rule="evenodd" d="M222 126l-5-3-7 3a449 449 0 005 4l7-4z" stroke="#31CEFF" stroke-width="1.6" stroke-linecap="round" stroke-linejoin="round"/><path d="M210 126v1l5 4v-1m0 1l7-4v-1" stroke="#31CEFF" stroke-width="1.6" stroke-linecap="round" stroke-linejoin="round"/><path d="M210 127l-4 2 5 4 4-2" stroke="#31CEFF" stroke-width="1.6" stroke-linecap="round" stroke-linejoin="round"/><path clip-rule="evenodd" d="M151 181a622 622 0 01-6-4l-8 4 6 4 8-4z" stroke="#31CEFF" stroke-width="1.6" stroke-linecap="round" stroke-linejoin="round"/><path d="M137 181v1l6 4v-1m0 1l8-4v-1" stroke="#31CEFF" stroke-width="1.6" stroke-linecap="round" stroke-linejoin="round"/><path d="M137 182l-4 2 6 4 4-2" stroke="#31CEFF" stroke-width="1.6" stroke-linecap="round" stroke-linejoin="round"/><path clip-rule="evenodd" d="M253 133l-5-3-7 4 5 3 7-4z" stroke="#31CEFF" stroke-width="1.6" stroke-linecap="round" stroke-linejoin="round"/><path d="M241 134v1l5 3v-1m0 1a685 685 0 017-4v-1" stroke="#31CEFF" stroke-width="1.6" stroke-linecap="round" stroke-linejoin="round"/><path d="M241 135l-3 1 5 4 3-2" stroke="#31CEFF" stroke-width="1.6" stroke-linecap="round" stroke-linejoin="round"/><path clip-rule="evenodd" d="M159 61a229 229 0 01-4-4 342 342 0 01-7 3l5 3 6-2z" stroke="#31CEFF" stroke-width="1.6" stroke-linecap="round" stroke-linejoin="round"/><path d="M148 60v1a506 506 0 005 2m0 1l6-2v-1M148 61l-3 1 4 4 4-2" stroke="#31CEFF" stroke-width="1.6" stroke-linecap="round" stroke-linejoin="round"/><path clip-rule="evenodd" d="M167 66l-5-3-6 2 4 4 7-3z" stroke="#31CEFF" stroke-width="1.6" stroke-linecap="round" stroke-linejoin="round"/><path d="M156 65v1l5 4a9 9 0 01-1-1m1 1l6-3v-1" stroke="#31CEFF" stroke-width="1.6" stroke-linecap="round" stroke-linejoin="round"/><path d="M156 66l-4 1 5 4 4-1" stroke="#31CEFF" stroke-width="1.6" stroke-linecap="round" stroke-linejoin="round"/><path clip-rule="evenodd" d="M174 71l-4-3-7 3a682 682 0 005 3l6-3z" stroke="#31CEFF" stroke-width="1.6" stroke-linecap="round" stroke-linejoin="round"/><path d="M163 71v1l5 3v-1" stroke="#31CEFF" stroke-width="1.6" stroke-linecap="round" stroke-linejoin="round"/><path d="M168 75l7-3-1-1m-11 1l-3 1 5 3 3-1" stroke="#31CEFF" stroke-width="1.6" stroke-linecap="round" stroke-linejoin="round"/><path clip-rule="evenodd" d="M182 77l-4-4-7 3 5 3 6-2z" stroke="#31CEFF" stroke-width="1.6" stroke-linecap="round" stroke-linejoin="round"/><path d="M171 76v1l5 3a8 8 0 010-1" stroke="#31CEFF" stroke-width="1.6" stroke-linecap="round" stroke-linejoin="round"/><path d="M176 80l6-2v-1m-11 0l-3 1 4 4 4-2" stroke="#31CEFF" stroke-width="1.6" stroke-linecap="round" stroke-linejoin="round"/><path clip-rule="evenodd" d="M218 119l-13-8-4 2 12 8 5-2zm7-3l-13-8-4 2 13 8 4-2zm-46-27l-12-9-4 1 12 9a322 322 0 014-1zm52 36l-8-5-4 2 8 5 4-2zm5-3l-7-4-4 1 8 5 3-2zm3 10l-7-5-4 1 8 5 3-2zm6-3l-7-5-4 1 8 6 3-2z" stroke="#31CEFF" stroke-width="1.6" stroke-linecap="round" stroke-linejoin="round"/><path d="M86 84c-4 1-7 4-9 8m12-5c-4 1-6 3-9 7" stroke="#31CEFF" stroke-width="1.6" stroke-linecap="round" stroke-linejoin="round"/><path d="M81 94l1 1-3 3-8-6 5-1 1 1m18-1c-4 1-6 4-9 7m13-5c-4 1-7 4-9 8" stroke="#31CEFF" stroke-width="1.6" stroke-linecap="round" stroke-linejoin="round"/><path d="M90 101l2 1-4 3-7-6 4-2 1 1m19-1c-4 2-7 4-9 8m13-5c-4 1-7 4-9 8" stroke="#31CEFF" stroke-width="1.6" stroke-linecap="round" stroke-linejoin="round"/><path d="M100 108l2 1-4 3a1691 1691 0 01-8-6l5-2 1 1m19 0c-4 1-6 4-9 8m13-6c-4 1-7 4-9 8" stroke="#31CEFF" stroke-width="1.6" stroke-linecap="round" stroke-linejoin="round"/><path d="M110 115l2 2-4 2-8-5 5-2 1 1m22-45h6l7 4-5 2m2 1a27 27 0 016 0l7 4-5 2m1 1l7-1 7 4a19 19 0 00-5 3m-15-16l1 3m9 4l1 2m9 4l9 5-7 3-4-3m3-3l-5 1" stroke="#31CEFF" stroke-width="1.6" stroke-linecap="round" stroke-linejoin="round"/><path clip-rule="evenodd" d="M131 129l2 1 1-2 4-1-3-1-4 1v2zm4 3l3 2v-2l4-2a97 97 0 01-2-1l-4 2-1 1zm5 4l2 1 1-2 4-1-2-2-4 2-1 2zm5 3l2 1 1-1 4-2-2-1-5 1v2zm4 3l3 2v-2l4-1-2-2-4 2-1 1zm5 4l2 1 1-2 4-1a97 97 0 01-2-2l-4 2-1 2zm5 3l2 1 1-1 4-2-2-1-5 1v2zm52-7l-2 1-1-2-4-3 2-1 4 3 1 2zm-5 2l-2 1-1-2-4-3 2-1 4 3 1 2zm-4 2l-3 1v-2l-4-3 2-1 4 3 1 2zm-5 2l-2 1-1-2-4-3 2-1 4 3 1 2zm-4 2l-3 1v-2l-4-3 2-1 4 3v2zm-5 2l-2 1-1-2-4-3 2-1 4 3 1 2zm-5 2l-2 1-1-2-4-3 3-1 4 3v2zm2-35c-3-4-10-6-16-4-5 1-7 6-3 10 3 5 10 6 16 5 5-2 7-7 3-11z" stroke="#31CEFF" stroke-width="1.6" stroke-linecap="round" stroke-linejoin="round"/><path clip-rule="evenodd" d="M183 119c-4-4-10-5-15-4-4 2-6 6-3 10s10 5 15 4c4-2 6-6 3-10z" stroke="#31CEFF" stroke-width="1.6" stroke-linecap="round" stroke-linejoin="round"/><path clip-rule="evenodd" d="M179 120c-2-3-7-4-11-3s-5 5-3 8c3 3 8 4 12 3 4-2 5-5 2-8z" stroke="#31CEFF" stroke-width="1.6" stroke-linecap="round" stroke-linejoin="round"/><path clip-rule="evenodd" d="M176 121c-2-3-6-4-9-3s-4 4-2 7c2 2 6 3 9 2s4-4 2-6z" stroke="#31CEFF" stroke-width="1.6" stroke-linecap="round" stroke-linejoin="round"/><path clip-rule="evenodd" d="M173 122c-1-2-4-3-6-2s-3 3-2 5c2 1 5 2 7 1 2 0 3-2 1-4zm-23-2l-3-2-5 2 3 2 5-2zm5 3l-3-2-5 2 3 3 5-3zm5 4l-3-3-5 3 3 2 5-2zm5 3l-3-2-5 2 3 3 5-3zm5 4l-3-3-5 3 3 2 5-2zm5 3l-3-2-5 2 3 2 5-2zm5 4l-3-3-5 3 3 2 5-2zm-69-66l-3-2-5 2 3 2 5-2zm5 3a93 93 0 01-4-2l-4 2 3 2 5-2zm4 3l-3-2-5 2 4 3 4-3zm5 4l-3-3-5 3 3 2 5-2zm5 3l-3-2-5 2 3 2 5-2zm5 3l-4-2-4 2 3 3 5-3zm5 4l-4-3-5 3 4 2 4-2zm-36-17l-4-2-4 2 3 2 5-2zm4 3l-3-2-5 2 4 3 4-3zm5 4l-3-3-5 3 3 2 5-2zm5 3l-3-2-5 2 3 2 5-2zm5 3l-4-2-4 2 3 2 5-2zm4 4l-3-3-5 3 4 2 4-2zm10-10l-3-3-5 3 3 2 5-2zm5 3l-4-2-4 2 3 2 5-2zm5 3l-4-2-5 2 4 2 5-2zm-26-23c-2 0-4 1-4 3l4 2c3 0 5-1 4-2 0-1-2-3-4-3z" stroke="#31CEFF" stroke-width="1.6" stroke-linecap="round" stroke-linejoin="round"/><path d="M245 129l51-24a5430 5430 0 01-17-10l-24 11-4-3 24-10a6854 6854 0 01-17-10l-24 10-5-2 24-10-15-10-24 10-5-3 24-9a30911 30911 0 01-36-22l-4 2 30 18-25 10 16 10 25-11 4 3-24 10 16 11 24-11 5 2-24 11 16 10 25-11 4 2-36 16a65782 65782 0 01-60-38l-5 2 59 38-5 3" stroke="#31CEFF" stroke-width="1.6" stroke-linecap="round" stroke-linejoin="round"/><path clip-rule="evenodd" d="M189 83l-1 1 1 1 2-1-2-1zm33 12l-4-2-4 2 4 2 4-2zm5 3l-4-2-4 2 4 3 4-3zm5 4l-3-3-5 3 4 2 4-2zm6 3l-4-2-4 2 3 2 5-2zm5 3l-4-2-4 2 4 2 4-2zm5 4l-3-3-5 2 4 3 4-2zm5 3l-3-2-4 2 3 2 4-2zm-62-39l-4-2-4 2 4 2 4-2zm5 3l-3-2-5 2 4 2 4-2zm6 3l-4-2-4 2 3 3 5-3zm5 4l-4-3-4 3 4 2 4-2zm5 3l-3-2-5 2 4 2 4-2z" stroke="#31CEFF" stroke-width="1.6" stroke-linecap="round" stroke-linejoin="round"/><path d="M265 84l104-51h47l68 36m-68-10l45 24M294 16l-81 35M321 6l-19 7m589 100l-110 78-15 1" stroke="#31CEFF" stroke-width="1.6" stroke-linecap="round" stroke-linejoin="round"/><path d="M910 122l-120 93-56-1v-9m189-77l-54 44v16l26 14m44-67l-14 13m-5 4l-8 7M671 41l34-19h45l148 63M172 311l-98-97v-25l19-9m36 153l-61-60m290-116h-36l-24 12v72l31 24-16 9" stroke="#31CEFF" stroke-width="1.6" stroke-linecap="round" stroke-linejoin="round"/><path d="M362 180h-30l-15 8v39l40 31v20l-20 12m-37-138l-21 10v47m0 10v12m-99 63l-21-21m204 34l86-52m-58 71l49-31M648 13l-18 9m249 76l-93-40m-7-4l-16-6m241 88l58 23v33l-39 42m59-67v33l-37 45m-24-122l27 11M626 467l-20 17h-13l-52-44v-85l-29-22v-53l25 19 5 1 4-4-1-25 1-6 5-6 71-46v-19l-15-9M460 365l30 28v68l27 27m6 6l10 10m-353-53l-46 29v17m330 26V419l-39-41M203 479l-23 16v19l20 22h81" stroke="#31CEFF" stroke-width="1.6" stroke-linecap="round" stroke-linejoin="round"/><path d="M423 418l19 16v51m-144 51h37M138 402l-34 21m942-37v43l-46 48h-48l-103-67h-64" stroke="#31CEFF" stroke-width="1.6" stroke-linecap="round" stroke-linejoin="round"/><path d="M1011 393v28l-17 18m100-97v52m-274 37h26l46 32M470 106l-26 13 20 12" stroke="#31CEFF" stroke-width="1.6" stroke-linecap="round" stroke-linejoin="round"/><path d="M466 112l-13 6 21 12m54-2l33 19v3l-38 22h-4l-13-8m-6-25l-16 8" stroke="#31CEFF" stroke-width="1.6" stroke-linecap="round" stroke-linejoin="round"/><path d="M532 136l19 11v3l-24 14m-27-20l-8 4 10 6m44-84l63-31 75 36m8 4l17 9" stroke="#31CEFF" stroke-width="1.6" stroke-linecap="round" stroke-linejoin="round"/><path d="M519 78l90-45 31 16M519 78l-22-12m-15 6l15 9m235 123l-8 5v-7l3-2v-33l-2-5-11-6-32-19" stroke="#31CEFF" stroke-width="1.6" stroke-linecap="round" stroke-linejoin="round"/><path d="M692 132l43 25 2 4v28m-35-64l26 15m-222 24v7l-44 29-4 5v8l17 12 1 38-27-19v11m63-79l-31 22m222 38l69 43m-89-28l135 85h41l23-19" stroke="#31CEFF" stroke-width="1.6" stroke-linecap="round" stroke-linejoin="round"/><path d="M242 67l114-54h66l87 42m145-26l45-24 57 1 152 62M68 169l-20 9v41l101 98m273 30l17-12h37l40 35v76l64 58h43l23-21m-491-56l-66 42v29m883 10h35l58-65v-68" stroke="#FFE600" stroke-width="7.8" stroke-linecap="round" stroke-linejoin="round" stroke-dasharray="0.08 23.37"/><path d="M919 339l-25 24m-99 203l86-79m-29 68l43-47h26M604 190l10 7v10l-35 24M464 131v6l-53 29-4 3-1 5v22l-3 3-17-12-4-6v-6l11 8m15-24l44-22-44-29m6 20l-19-13m169 54l-19 11v3l27 16h6l11-7" stroke="#31CEFF" stroke-width="1.6" stroke-linecap="round" stroke-linejoin="round"/><path d="M578 168h-4l-21 12v2l19 10M707 59l97 44 5 5v5l-5 44m-68-77l46 22M609 304l35 24h49l37 24v22m-47-123v-46m-21 61v-23m-53 61v-39l7-14 67-46" stroke="#31CEFF" stroke-width="1.6" stroke-linecap="round" stroke-linejoin="round"/><path d="M630 251l-10 7-4 8v22m-84-158l23-14h11l39 22m-39-15l50 28m502 108l37 18v32l-31 31m43-20l-47 51M104 57L1 98v30m55-70L6 78" stroke="#31CEFF" stroke-width="1.6" stroke-linecap="round" stroke-linejoin="round"/></svg>
