<svg width="130" height="130" viewBox="0 0 130 130" fill="none" xmlns="http://www.w3.org/2000/svg">
<rect x="30" y="30" width="70" height="60" fill="#9A1FE2"/>
<rect x="90" y="90" width="30" height="10" transform="rotate(90 90 90)" fill="#6120FE"/>
<rect width="30" height="10" transform="matrix(4.37114e-08 1 1 -4.37114e-08 40 90)" fill="#6120FE"/>
<rect x="120" y="40" width="10" height="10" fill="#31CEFF"/>
<rect x="80" y="10" width="10" height="10" fill="#31CEFF"/>
<rect x="40" y="10" width="10" height="10" fill="#31CEFF"/>
<rect x="120" y="70" width="10" height="10" fill="#31CEFF"/>
<rect x="40" y="20" width="50" height="80" fill="#9A1FE2"/>
<rect y="40" width="10" height="10" fill="#31CEFF"/>
<rect y="70" width="10" height="10" fill="#31CEFF"/>
<rect x="100" y="110" width="10" height="10" transform="rotate(90 100 110)" fill="#31CEFF"/>
<rect width="10" height="10" transform="matrix(4.37114e-08 1 1 -4.37114e-08 30 110)" fill="#31CEFF"/>
<rect x="100" y="50" width="30" height="10" fill="#6120FE"/>
<rect x="100" y="80" width="30" height="10" fill="#6120FE"/>
<rect y="50" width="30" height="10" fill="#6120FE"/>
<rect y="80" width="30" height="10" fill="#6120FE"/>
<rect x="50" y="50" width="30" height="20" fill="white"/>
<rect x="50" y="40" width="30" height="40" fill="white"/>
<rect x="60" y="50" width="20" height="20" fill="black"/>
</svg>
