<svg width="44" height="40" viewBox="0 0 44 40" fill="none" xmlns="http://www.w3.org/2000/svg">
<g clip-path="url(#clip0)">
<path d="M15.3765 0H27.6776V3.07703H33.8281V6.15381H36.9033V9.23073L39.9787 9.23083V18.4615H43.054V40H39.9787L39.9786 36.923H36.9033V33.8462H33.8281V36.923H30.753V40H24.6025L24.6023 33.8462H18.4517L18.4519 40H12.3013V36.923H9.22577V33.8462H6.15049V36.923H3.07529V39.9999H0V15.3845H3.0752V9.23083H6.15039V6.15381H9.22577V3.07703H15.3765V0Z" fill="#9A1FE2"/>
<path d="M18.4519 9.23071H12.3013V12.3077H9.22559V21.5385H12.3013V24.6153H18.4519V21.5386H21.5271V12.3078H18.4519V9.23071Z" fill="white"/>
<path d="M18.4504 9.09998H12.2998V15.2538H18.4504V9.09998Z" fill="#31CEFF"/>
<path d="M36.9035 9.23083H30.7529V12.3079H27.6777V21.5386H30.7529V24.6155H36.9035V21.5387H39.9787V12.3079H36.9035V9.23083Z" fill="white"/>
<path d="M36.9006 9.09998H30.75V15.2538H36.9006V9.09998Z" fill="#31CEFF"/>
</g>
<defs>
<clipPath id="clip0">
<rect width="44" height="40" fill="white"/>
</clipPath>
</defs>
</svg>
