<svg width="60" height="47" viewBox="0 0 60 47" fill="none" xmlns="http://www.w3.org/2000/svg">
<path fill-rule="evenodd" clip-rule="evenodd" d="M46.1538 47H41.5385V42.3H36.9231V37.6H32.3077V42.3H27.6923V37.6H23.0769V42.3H18.4615V47H13.8462V42.3H18.4615V37.6H9.23077V32.9H4.61538V28.2H0V23.5H4.61538V18.8H9.23077V14.1H23.0769V9.4H18.4615V4.7H13.8462V0H18.4615V4.7H23.0769V9.4H27.6923V14.1H32.3077V9.4H36.9231V4.7H41.5385V0H46.1538V4.7H41.5385V9.4H36.9231V14.1H50.7692V18.8H55.3846V23.5H60V28.2H55.3846V32.9H50.7692V37.6H41.5385V42.3H46.1538V47ZM23.0769 23.5V28.2H13.8462V23.5H23.0769ZM46.1538 23.5V28.2H36.9231V23.5H46.1538Z" fill="#31CEFF"/>
</svg>
