<svg width="60" height="47" viewBox="0 0 60 47" fill="none" xmlns="http://www.w3.org/2000/svg">
<path d="M41.4764 46.2205H46.0024V41.6945H41.4764V37.1686H36.9505V41.6946L41.4764 41.6945L41.4764 46.2205Z" fill="#31CEFF"/>
<path d="M23.3724 41.6946H18.8464V46.2205H14.3204V41.6945L18.8464 41.6946V37.1686H23.3724V41.6946Z" fill="#31CEFF"/>
<path d="M50.5285 37.1683H9.79456V32.6424H5.26868V28.1164H55.0546V32.6424H50.5285V37.1683Z" fill="#31CEFF"/>
<path d="M50.5285 14.5384V19.0644H9.79456V14.5384H23.3725V10.0126H27.8985V14.5384H32.4244V10.0126H36.9504V14.5384H50.5285Z" fill="#31CEFF"/>
<path fill-rule="evenodd" clip-rule="evenodd" d="M59.5806 23.5904V28.1164H0.742676V23.5904H5.26868V19.0646H55.0546V23.5904H59.5806ZM14.3204 28.1164H23.3724V23.5904H14.3204V28.1164ZM46.0025 28.1164H36.9506V23.5904H46.0025V28.1164Z" fill="#31CEFF"/>
<path d="M27.8985 41.6946H32.4245V37.1686H27.8985V41.6946Z" fill="#31CEFF"/>
<path d="M41.4764 10.0126V5.48659H36.9505L36.9504 10.0126L41.4764 10.0126Z" fill="#31CEFF"/>
<path d="M18.8463 10.0126L23.3725 10.0126L23.3723 5.48659H18.8463V10.0126Z" fill="#31CEFF"/>
<path d="M46.0024 0.960571V5.48656L41.4764 5.48659L41.4764 0.960571H46.0024Z" fill="#31CEFF"/>
<path d="M18.8463 5.48659L14.3204 5.48656V0.960571H18.8464L18.8463 5.48659Z" fill="#31CEFF"/>
</svg>
