<svg width="130" height="130" viewBox="0 0 130 130" fill="none" xmlns="http://www.w3.org/2000/svg">
<rect x="40" y="25" width="50" height="70" fill="#9A1FE2"/>
<rect x="30" y="35" width="70" height="60" fill="#9A1FE2"/>
<rect x="60" y="15" width="10" height="10" fill="#9A1FE2"/>
<rect x="120" y="35" width="10" height="10" fill="#31CEFF"/>
<rect y="35" width="10" height="10" fill="#31CEFF"/>
<rect x="120" y="75" width="10" height="10" fill="#31CEFF"/>
<rect x="80" y="115" width="10" height="10" transform="rotate(90 80 115)" fill="#31CEFF"/>
<rect width="10" height="10" transform="matrix(4.37114e-08 1 1 -4.37114e-08 50 115)" fill="#31CEFF"/>
<rect y="75" width="10" height="10" fill="#31CEFF"/>
<rect x="55" y="5" width="20" height="10" fill="#31CEFF"/>
<rect x="100" y="45" width="30" height="10" fill="#9A1FE2"/>
<rect y="45" width="30" height="10" fill="#9A1FE2"/>
<rect x="100" y="65" width="30" height="10" fill="#9A1FE2"/>
<rect x="90" y="95" width="30" height="10" transform="rotate(90 90 95)" fill="#9A1FE2"/>
<rect width="30" height="10" transform="matrix(4.37114e-08 1 1 -4.37114e-08 40 95)" fill="#9A1FE2"/>
<rect y="65" width="30" height="10" fill="#9A1FE2"/>
<rect x="40" y="45" width="50" height="10" fill="white"/>
<rect x="50" y="45" width="20" height="20" fill="white"/>
<rect x="60" y="45" width="20" height="20" fill="black"/>
</svg>
