<svg width="44" height="40" viewBox="0 0 44 40" fill="none" xmlns="http://www.w3.org/2000/svg">
<g clip-path="url(#clip0)">
<path d="M27.6776 0H15.3765V3.07703H9.22577V6.15381H6.15039V9.23083H3.0752V15.3845H0V39.9999H3.07529V36.923H6.15049V33.8462H9.22577V36.923H12.3013V40H18.4519L18.4517 33.8462H24.6023L24.6025 40H30.753V36.923H33.8281V33.8462H36.9033V36.923H39.9786L39.9787 40H43.054V18.4615H39.9787V9.23083H36.9033V6.15381H33.8281V3.07703H27.6776V0Z" fill="#31CEFF"/>
<path d="M18.4519 9.23071H12.3013V12.3077H9.22559V21.5385H12.3013V24.6153H18.4519V21.5386H21.5271V12.3078H18.4519V9.23071Z" fill="white"/>
<path d="M21.5271 15.3845H15.3765V21.5384H21.5271V15.3845Z" fill="#6120FE"/>
<path d="M36.9035 9.23083H30.7529V12.3079H27.6777V21.5386H30.7529V24.6155H36.9035V21.5387H39.9787V12.3079H36.9035V9.23083Z" fill="white"/>
<path d="M39.9787 15.3848H33.8281V21.5387H39.9787V15.3848Z" fill="#6120FE"/>
</g>
<defs>
<clipPath id="clip0">
<rect width="44" height="40" fill="white"/>
</clipPath>
</defs>
</svg>
