<svg width="60" height="42" viewBox="0 0 60 42" fill="none" xmlns="http://www.w3.org/2000/svg">
<path fill-rule="evenodd" clip-rule="evenodd" d="M32.3077 42H27.6923V37.3333H23.0769V32.6667H18.4615V37.3333H13.8462V42H4.61538V37.3333H13.8462V32.6667H18.4615V28H4.61538V23.3333H0V14H9.23077V9.33333H23.0769V4.66667H18.4615V0H23.0769V4.66667H27.6923V9.33333H32.3077V4.66667H36.9231V0H41.5385V4.66667H36.9231V9.33333H50.7692V14H60V23.3333H55.3846V28H41.5385V32.6667H46.1538V37.3333H55.3846V42H46.1538V37.3333H41.5385V32.6667H36.9231V37.3333H32.3077V42ZM32.3077 32.6667V37.3333H27.6923V32.6667H23.0769V28H27.6923V32.6667H32.3077ZM32.3077 32.6667H36.9231V28H32.3077V32.6667ZM23.0769 14V18.6667H13.8462V14H23.0769ZM46.1538 14V18.6667H36.9231V14H46.1538Z" fill="#31CEFF"/>
</svg>
