<svg width="130" height="130" viewBox="0 0 130 130" fill="none" xmlns="http://www.w3.org/2000/svg">
<rect x="40" y="25" width="50" height="60" fill="#9A1FE2"/>
<rect x="30" y="35" width="70" height="60" fill="#9A1FE2"/>
<rect x="110" y="55" width="10" height="10" fill="#31CEFF"/>
<rect x="80" y="15" width="10" height="20" fill="#31CEFF"/>
<rect x="40" y="15" width="10" height="20" fill="#31CEFF"/>
<rect x="10" y="55" width="10" height="10" fill="#31CEFF"/>
<rect x="100" y="65" width="20" height="10" fill="#9A1FE2"/>
<rect x="10" y="65" width="20" height="10" fill="#9A1FE2"/>
<rect x="40" y="45" width="20" height="10" fill="white"/>
<rect x="70" y="45" width="20" height="10" fill="white"/>
<rect x="50" y="45" width="10" height="10" fill="black"/>
<rect x="80" y="45" width="10" height="10" fill="black"/>
<rect y="85" width="130" height="20" fill="#6120FE"/>
<rect y="95" width="10" height="10" fill="#31CEFF"/>
<rect x="20" y="95" width="10" height="20" fill="#31CEFF"/>
<rect x="40" y="95" width="10" height="10" fill="#31CEFF"/>
<rect x="60" y="95" width="10" height="20" fill="#31CEFF"/>
<rect x="80" y="95" width="10" height="10" fill="#31CEFF"/>
<rect x="100" y="95" width="10" height="20" fill="#31CEFF"/>
<rect x="120" y="95" width="10" height="10" fill="#31CEFF"/>
</svg>
