<svg width="70" height="65" viewBox="0 0 70 65" fill="none" xmlns="http://www.w3.org/2000/svg">
<path d="M45 0H25V5H15V10H10V15H5V25H0V65H5V60H10V55H15V60H20V65H30V55H40V65H50V60H55V55H60V60H65V65H70V30H65V15H60V10H55V5H45V0Z" fill="#6120FE"/>
<rect x="25" y="20" width="10" height="10" fill="white"/>
<rect x="50" y="20" width="10" height="10" fill="white"/>
<rect x="30" y="35" width="5" height="5" fill="white"/>
<rect x="35" y="40" width="5" height="5" fill="white"/>
<rect x="25" y="40" width="5" height="5" fill="white"/>
<rect x="40" y="35" width="5" height="5" fill="white"/>
<rect x="45" y="40" width="5" height="5" fill="white"/>
<rect x="50" y="35" width="5" height="5" fill="white"/>
<rect x="55" y="40" width="5" height="5" fill="white"/>
</svg>
