<svg width="60" height="42" viewBox="0 0 60 42" fill="none" xmlns="http://www.w3.org/2000/svg">
<path fill-rule="evenodd" clip-rule="evenodd" d="M46.1538 42H41.5385V37.8H36.9231V33.6H32.3077V37.8H27.6923V33.6H23.0769V37.8H18.4615V42H13.8462V37.8H18.4615V33.6H9.23077V29.4H4.61538V25.2H0V21H4.61538V16.8H9.23077V12.6H23.0769V8.4H18.4615V4.2H13.8462V0H18.4615V4.2H23.0769V8.4H27.6923V12.6H32.3077V8.4H36.9231V4.2H41.5385V0H46.1538V4.2H41.5385V8.4H36.9231V12.6H50.7692V16.8H55.3846V21H60V25.2H55.3846V29.4H50.7692V33.6H41.5385V37.8H46.1538V42ZM23.0769 21V25.2H13.8462V21H23.0769ZM46.1538 21V25.2H36.9231V21H46.1538Z" fill="#9A1FE2"/>
</svg>
