<svg width="60" height="42" viewBox="0 0 60 42" fill="none" xmlns="http://www.w3.org/2000/svg">
<path d="M41.5387 0.540527H18.9087V5.06652H41.5387V0.540527Z" fill="#31CEFF"/>
<path d="M46.0645 9.59252V5.06653H14.3826V9.59252H46.0645Z" fill="#31CEFF"/>
<path d="M50.5905 14.1185H55.1166V18.6445H41.5386V14.1186H37.0126V18.6445H23.4347V14.1186H18.9087V18.6445H5.33069V14.1185H9.85657V9.59265H50.5905V14.1185Z" fill="#31CEFF"/>
<path d="M59.6426 23.1705V18.6445H0.804688V23.1705H5.33069V27.6964H55.1166V23.1705H59.6426Z" fill="#31CEFF"/>
<path d="M50.5905 27.6966V32.2225H55.1164V36.7485H50.5905L50.5905 32.2225L46.0645 32.2226V27.6966H50.5905Z" fill="#31CEFF"/>
<path d="M37.0126 27.6966H32.4866V32.2226H37.0126V27.6966Z" fill="#31CEFF"/>
<path d="M27.9607 27.6966H23.4347V32.2226H27.9607V27.6966Z" fill="#31CEFF"/>
<path d="M9.85653 27.6966H14.3825V32.2226H9.85661V36.7485H5.33061V32.2225L9.85661 32.2226L9.85653 27.6966Z" fill="#31CEFF"/>
<path d="M41.5386 36.7485V32.2225L37.0126 32.2226L37.0126 36.7485H41.5386Z" fill="#31CEFF"/>
<path d="M23.4347 32.2226L18.9087 32.2225V36.7485H23.4347L23.4347 32.2226Z" fill="#31CEFF"/>
<path d="M55.1164 36.7485L59.6427 36.7485V41.2745H55.1167L55.1164 36.7485Z" fill="#31CEFF"/>
<path d="M46.0645 41.2745V36.7485L41.5386 36.7485L41.5385 41.2745H46.0645Z" fill="#31CEFF"/>
<path d="M18.9087 36.7485L14.3825 36.7485V41.2745H18.9085L18.9087 36.7485Z" fill="#31CEFF"/>
<path d="M0.804698 36.7485L5.33061 36.7485L5.33069 41.2745H0.804698V36.7485Z" fill="#31CEFF"/>
</svg>
