<svg width="60" height="42" viewBox="0 0 60 42" fill="none" xmlns="http://www.w3.org/2000/svg">
<path fill-rule="evenodd" clip-rule="evenodd" d="M18.4615 0H41.5385V4.66667H46.1538V9.33333H50.7692V14H55.3846V18.6667H60V23.3333H55.3846V28H50.7692V32.6667H46.1538V28H36.9231V32.6667H32.3077V28H27.6923V32.6667H23.0769V28H13.8462V32.6667H9.23077V28H4.61538V23.3333H0V18.6667H4.61538V14H9.23077V9.33333H13.8462V4.66667H18.4615V0ZM23.0769 14H18.4615V18.6667H23.0769V14ZM41.5385 14H36.9231V18.6667H41.5385V14Z" fill="#6120FE"/>
<path d="M4.61538 37.3333V32.6667H9.23077V37.3333H4.61538Z" fill="#6120FE"/>
<path d="M4.61538 37.3333V42H0V37.3333H4.61538Z" fill="#6120FE"/>
<path d="M18.4615 37.3333V32.6667H23.0769V37.3333H18.4615Z" fill="#6120FE"/>
<path d="M18.4615 37.3333V42H13.8462V37.3333H18.4615Z" fill="#6120FE"/>
<path d="M41.5385 37.3333H36.9231V32.6667H41.5385V37.3333Z" fill="#6120FE"/>
<path d="M41.5385 37.3333H46.1538V42H41.5385V37.3333Z" fill="#6120FE"/>
<path d="M55.3846 37.3333H50.7692V32.6667H55.3846V37.3333Z" fill="#6120FE"/>
<path d="M55.3846 37.3333H60V42H55.3846V37.3333Z" fill="#6120FE"/>
</svg>
