<svg width="150" height="147" viewBox="0 0 150 147" fill="none" xmlns="http://www.w3.org/2000/svg">
<rect x="30" y="45" width="90" height="50" fill="#9A1FE2"/>
<rect x="90" y="35" width="10" height="10" fill="#9A1FE2"/>
<rect x="140" y="75" width="10" height="20" fill="#6120FE"/>
<rect y="75" width="10" height="20" fill="#6120FE"/>
<rect x="50" y="35" width="10" height="10" fill="#9A1FE2"/>
<rect width="30" height="10" transform="matrix(4.37114e-08 1 1 -4.37114e-08 50 95)" fill="#6120FE"/>
<rect width="30" height="10" transform="matrix(4.37114e-08 1 1 -4.37114e-08 90 95)" fill="#6120FE"/>
<rect width="10" height="10" transform="matrix(4.37114e-08 1 1 -4.37114e-08 40 115)" fill="#31CEFF"/>
<rect width="10" height="10" transform="matrix(4.37114e-08 1 1 -4.37114e-08 100 115)" fill="#31CEFF"/>
<rect width="10" height="10" transform="matrix(4.37114e-08 1 1 -4.37114e-08 140 85)" fill="#31CEFF"/>
<rect width="10" height="10" transform="matrix(4.37114e-08 1 1 -4.37114e-08 0 85)" fill="#31CEFF"/>
<rect x="85" y="25" width="20" height="10" fill="#6120FE"/>
<rect x="130" y="65" width="20" height="10" fill="#6120FE"/>
<rect y="65" width="20" height="10" fill="#6120FE"/>
<rect x="45" y="25" width="20" height="10" fill="#6120FE"/>
<rect x="20" y="55" width="110" height="30" fill="#9A1FE2"/>
<rect x="50" y="55" width="50" height="10" fill="white"/>
<rect x="66" y="55" width="20" height="10" fill="black"/>
</svg>
