<svg width="44" height="40" viewBox="0 0 44 40" fill="none" xmlns="http://www.w3.org/2000/svg">
<path d="M27.6776 0H15.3765V3.07692H27.6776V0Z" fill="#9A1FE2"/>
<path d="M33.8282 3.07703H9.22589V6.15381H6.15051V9.23073H36.9034V6.15381H33.8282V3.07703Z" fill="#9A1FE2"/>
<path d="M39.9788 9.23083H3.07532V36.923H6.15061V33.8462H9.22589V36.923H18.4518V33.8462H24.6024V36.923H33.8282V33.8462H36.9034V36.923H39.9787L39.9788 33.8462V40H43.0541V18.4615H39.9788V9.23083Z" fill="#9A1FE2"/>
<path d="M0 15.3845H3.07529V39.9999H0V15.3845Z" fill="#9A1FE2"/>
<path d="M12.3012 36.9231L18.4518 36.923L18.4518 40H12.3012V36.9231Z" fill="#9A1FE2"/>
<path d="M30.7529 36.9231L24.6024 36.923V40H30.7529V36.9231Z" fill="#9A1FE2"/>
<path d="M12.3011 9.23071H18.4517V12.3078H21.5269V21.5386H18.4517V24.6153H12.3011V9.23071Z" fill="white"/>
<path d="M9.22583 12.3077H12.3011V21.5385H9.22583V12.3077Z" fill="white"/>
<rect x="15.3765" y="15.3845" width="6.15059" height="6.15385" fill="#31CEFF"/>
<path d="M30.7528 9.23083H36.9034V12.3079H39.9786V21.5387H36.9034V24.6155H30.7528V9.23083Z" fill="white"/>
<path d="M27.6775 12.3079H30.7528V21.5386H27.6775V12.3079Z" fill="white"/>
<rect x="33.8281" y="15.3848" width="6.15059" height="6.15385" fill="#31CEFF"/>
</svg>
