<svg width="60" height="42" viewBox="0 0 60 42" fill="none" xmlns="http://www.w3.org/2000/svg">
<path d="M36.8204 5.22375H41.3464V0.697754H36.8204V5.22375Z" fill="#9A1FE2"/>
<path d="M36.8203 9.74976H32.2943V5.22377L36.8204 5.22375L36.8203 9.74976Z" fill="#9A1FE2"/>
<path d="M9.66528 14.2759H50.3992V9.74988H9.66528V14.2759Z" fill="#9A1FE2"/>
<path d="M5.13916 27.8535H54.9251V23.3281H59.4509V14.2761H45.8724V18.802H36.8204V14.2761H23.2431V18.802H14.1912V14.2761H0.613037V23.3281H5.13916V27.8535Z" fill="#9A1FE2"/>
<path d="M18.7174 32.3796H23.2434V27.8536H18.7174V32.3796Z" fill="#9A1FE2"/>
<path d="M32.2956 32.3796H27.7696V27.8536H32.2956V32.3796Z" fill="#9A1FE2"/>
<path d="M27.7696 41.4318H32.2956V36.9058H27.7696V41.4318Z" fill="#9A1FE2"/>
<path d="M27.7696 9.74976H23.2436V5.22377H27.7696V9.74976Z" fill="#9A1FE2"/>
<path d="M41.3464 32.3796H36.8204V27.8536H41.3464V32.3796Z" fill="#9A1FE2"/>
<path d="M18.7175 5.22375L23.2436 5.22377L23.2435 0.697754H18.7175V5.22375Z" fill="#9A1FE2"/>
<path d="M41.3465 36.9057H45.8725V32.3797L41.3464 32.3796L41.3465 36.9057Z" fill="#9A1FE2"/>
<path d="M54.9247 41.4318H45.8728L45.8725 36.9057L54.9247 36.9058V41.4318Z" fill="#9A1FE2"/>
<path d="M5.13916 41.4318H14.1911V36.9058H5.13916V41.4318Z" fill="#9A1FE2"/>
<path d="M36.8203 36.9057H32.2943V32.3797L36.8204 32.3796L36.8203 36.9057Z" fill="#9A1FE2"/>
<path d="M23.2435 36.9057L27.7696 36.9058V32.3796H23.2434L23.2435 36.9057Z" fill="#9A1FE2"/>
<path d="M14.1911 36.9058L18.7174 36.9057V32.3796L14.1914 32.3797L14.1911 36.9058Z" fill="#9A1FE2"/>
</svg>
