<svg width="42" height="42" viewBox="0 0 42 42" fill="none" xmlns="http://www.w3.org/2000/svg">
<path d="M12.3529 0V2.47059L7.41176 2.47059V4.94118H4.94118V7.41177H2.47059V9.88235H0V12.3529H4.94118V14.8235H9.88235V17.2941H14.8235V19.7647H19.7647V22.2353H14.8235V24.7059H9.88235V27.1765H4.94118V29.6471H0V32.1176H2.47059V34.5882H4.94118V37.0588H7.41176V39.5294H12.3529V42H27.1765L27.1765 39.5294H32.1176V37.0588H34.5882V34.5882H37.0588V32.1176H39.5294V27.1765H42V14.8235H39.5294V9.88235H37.0588V7.41176H34.5882V4.94118H32.1176V2.47059H19.7647L27.1765 2.47059L27.1765 0H12.3529Z" fill="#FFE600"/>
</svg>
