<svg width="145" height="75" viewBox="0 0 145 75" fill="none" xmlns="http://www.w3.org/2000/svg"><path d="M10 0v5H5v5H0v35h5v5h5v5h70v5h5v5h5v5h5v5h10V55h30v-5h5v-5h5V10h-5V5h-5V0H10z" fill="#E31CB8"/><path d="M10 0v5H5v5H0v30h5v5h5v5h70v5h5v5h5v5h5v5h5V50h30v-5h5v-5h5V10h-5V5h-5V0H10z" fill="#31CEFF"/><path d="M17 33V19h12v2h2v6h-2v2h-8v4h-4zm4-6h6v-6h-6v6zm18-2h2v2h-2v6h-4V23h4v2zm8-2v2h-6v-2h6zm4 10v-2h-2v-6h2v-2h10v2h2v4H53v2h8v2H51zm2-6h6v-2h-6v2zm12 6v-2h10v-2h-8v-2h-2v-2h2v-2h10v2h-8v2h8v2h2v2h-2v2H65zm16 0v-2h10v-2h-8v-2h-2v-2h2v-2h10v2h-8v2h8v2h2v2h-2v2H81zm32 0V23h2v-2h2v-2h6v2h2v2h2v10h-4v-4h-6v4h-4zm4-6h6v-4h-2v-2h-2v2h-2v4z" fill="#fff"/></svg>
