<svg width="145" height="75" viewBox="0 0 145 75" fill="none" xmlns="http://www.w3.org/2000/svg">
<path d="M10 0V5H5V10H0V45H5V50H10V55H80V60H85V65H90V70H95V75H105V55H135V50H140V45H145V10H140V5H135V0H10Z" fill="#E31CB8"/>
<path d="M10 0V5H5V10H0V40H5V45H10V50H80V55H85V60H90V65H95V70H100V50H130V45H135V40H140V10H135V5H130V0H10Z" fill="#31CEFF"/>
<path d="M17 33V19H29V21H31V27H29V29H21V33H17ZM21 27H27V21H21V27ZM39 25H41V27H39V33H35V23H39V25ZM47 23V25H41V23H47ZM51 33V31H49V25H51V23H61V25H63V29H53V31H61V33H51ZM53 27H59V25H53V27ZM65 33V31H75V29H67V27H65V25H67V23H77V25H69V27H77V29H79V31H77V33H65ZM81 33V31H91V29H83V27H81V25H83V23H93V25H85V27H93V29H95V31H93V33H81ZM113 33V23H115V21H117V19H123V21H125V23H127V33H123V29H117V33H113ZM117 27H123V23H121V21H119V23H117V27Z" fill="white"/>
</svg>
