<svg width="205" height="195" viewBox="0 0 205 195" fill="none" xmlns="http://www.w3.org/2000/svg">
<path d="M64.7368 0.789551V11.579H43.1579V22.3685H32.3684V33.158H21.5789V43.9474H10.7895V65.5264H0V130.263H10.7895V151.842H21.5789V162.632H32.3684V173.421H43.1579V184.211H64.7368V195H129.474V184.211H151.053V173.421H161.842V162.632H172.632V151.842H183.421V141.053H194.211V119.474H205V65.5264H194.211V43.9474H183.421V33.158H172.632V22.3685H161.842V11.579H64.7368L140.263 11.579V0.789551L64.7368 0.789551Z" fill="#E31CB8"/>
<path d="M64.7369 0.789554V11.579H43.158V173.421H151.053V162.632H161.842V22.3684H151.053V11.579H64.7369L129.474 11.579V0.789551L64.7369 0.789554Z" fill="#6120FE"/>
<path d="M10.7895 141.053H21.579L21.5789 151.842H32.3684V33.1579H21.5789V43.9475H10.7895V141.053Z" fill="#6120FE"/>
<path d="M172.632 43.9477H183.421L183.421 65.5265H194.21V119.474H183.421L183.421 141.053H172.632L172.632 151.842H161.842V33.1578H172.632L172.632 43.9477Z" fill="#6120FE"/>
<path d="M10.7895 65.5265H0V119.474H10.7895V65.5265Z" fill="#6120FE"/>
<path d="M64.7369 184.211V173.421H129.474V184.211H64.7369Z" fill="#6120FE"/>
<path d="M32.3684 162.632H43.1579V22.3684H32.3684V162.632Z" fill="#6120FE"/>
<path d="M115.5 125.8H94.9999C94.7999 125.8 94.5999 125.8 94.3999 125.9H116.1C116 125.8 115.8 125.8 115.5 125.8Z" fill="white"/>
<path d="M97.5 130.8H113V130.7H97.5V130.8Z" fill="white"/>
<path d="M174 141.5H118V130.8H153.7C158 130.8 160.2 125 160.2 119.2V47.1C160.2 41.3 158 35.5 153.7 35.5H49.7C45.4 35.5 43.2 41.3 43.2 47.1V119.3C43.2 125.1 45.4 130.9 49.7 130.9H92.5V141.5H31C29.6 141.5 28.5 142.6 28.5 144C28.5 145.4 29.6 146.5 31 146.5H58.5V171C58.5 172.4 59.6 173.5 61 173.5C62.4 173.5 63.5 172.4 63.5 171V146.5H174C175.4 146.5 176.5 145.4 176.5 144C176.5 142.6 175.4 141.5 174 141.5ZM58.5 125.8H50C49.5 125.3 48.3 123 48.3 119.2V47.1C48.3 43.3 49.4 41 50 40.5H58.5V125.8ZM113 141.2H97.5V130.8H113V141.2ZM63.5 125.8V40.5H153.6C154.2 41 155.3 43.3 155.3 47.1V119.3C155.3 123.1 154.2 125.4 153.6 125.9H63.5V125.8Z" fill="white"/>
<path d="M145.5 48.9H85.6C82.8 48.9 81 52.2 81 57.3V103C81 108.1 82.8 111.4 85.6 111.4H145.5C148.3 111.4 150.1 108.1 150.1 103V57.2C150.1 52.1 148.3 48.9 145.5 48.9ZM145.1 102.9C145.1 104.5 144.8 105.7 144.6 106.3H86.4C86.2 105.7 85.9 104.5 85.9 102.9V57.2C85.9 55.6 86.2 54.4 86.4 53.8H144.6C144.8 54.4 145.1 55.6 145.1 57.2V102.9Z" fill="white"/>
<path d="M166.5 158C166.5 159.4 165.4 160.5 164 160.5H95.5V175.5H132C133.4 175.5 134.5 176.6 134.5 178C134.5 179.4 133.4 180.5 132 180.5H93C91.6 180.5 90.5 179.4 90.5 178V158C90.5 156.6 91.6 155.5 93 155.5H164C165.4 155.5 166.5 156.6 166.5 158Z" fill="white"/>
<path d="M155.5 168C155.5 169.4 154.4 170.5 153 170.5H108C106.6 170.5 105.5 169.4 105.5 168C105.5 166.6 106.6 165.5 108 165.5H153C154.4 165.5 155.5 166.6 155.5 168Z" fill="white"/>
<path d="M151.8 116.8V117C151.8 119.6 150 121.6 147.7 121.6H136.9C134.9 121.6 133.3 120.1 132.9 118C132.5 120.1 130.6 121.7 128.4 121.7C125.8 121.7 123.8 119.6 123.8 117.1C123.8 114.6 125.9 112.5 128.4 112.5C130.6 112.5 132.4 114 132.9 116.1C133.2 113.9 134.9 112.3 137 112.3H147.8C150 112.2 151.8 114.2 151.8 116.8Z" fill="white"/>
<path d="M117.7 121.7C120.241 121.7 122.3 119.641 122.3 117.1C122.3 114.559 120.241 112.5 117.7 112.5C115.16 112.5 113.1 114.559 113.1 117.1C113.1 119.641 115.16 121.7 117.7 121.7Z" fill="white"/>
<path d="M134.2 66.6V77.7C134.2 79.9 132.2 81.7 129.5 81.7H129.4C126.8 81.7 124.7 80 124.7 77.7V66.6C124.7 64.4 126.7 62.6 129.4 62.6H129.5C132.1 62.7 134.2 64.4 134.2 66.6Z" fill="white"/>
<path d="M109.9 66.6V77.7C109.9 79.9 107.9 81.7 105.2 81.7H105.1C102.5 81.7 100.4 80 100.4 77.7V66.6C100.4 64.4 102.4 62.6 105.1 62.6H105.2C107.9 62.7 109.9 64.4 109.9 66.6Z" fill="white"/>
<path d="M126.3 83.2C126.3 87.8 122.5 91.3 117.7 91.3C112.9 91.3 109 87.7 109 83.2C109 81.6 110.2 79.9 112.8 79.9C114.8 79.9 116.4 81.3 116.4 83.2C116.4 84 116.9 84.4 117.6 84.4C118.3 84.4 119.1 83.9 119.1 83.2C119.1 81.3 120.6 79.9 122.7 79.9C124.8 79.9 126.3 81.3 126.3 83.2Z" fill="white"/>
</svg>
