<svg width="345" height="619" viewBox="0 0 345 619" fill="none" xmlns="http://www.w3.org/2000/svg">
<path fill-rule="evenodd" clip-rule="evenodd" d="M89.6644 101.505H235.695C238.701 101.505 241.206 104.01 241.206 107.016V150.6C241.206 153.605 238.701 156.11 235.695 156.11H89.6644C86.6586 156.11 84.1538 153.605 84.1538 150.6V144.588H104.443C107.699 144.588 110.204 136.573 110.204 126.804C110.204 116.785 107.699 108.769 104.443 108.769H84.1538V107.016C84.1538 104.01 86.6586 101.505 89.6644 101.505Z" stroke="#31CEFF" stroke-width="3.98309" stroke-linecap="round" stroke-linejoin="round"/>
<path d="M235.946 159.617H89.6644C86.621 159.617 84.1538 162.084 84.1538 165.128V208.711C84.1538 211.755 86.621 214.222 89.6644 214.222H235.946C238.989 214.222 241.456 211.755 241.456 208.711V165.128C241.456 162.084 238.989 159.617 235.946 159.617Z" stroke="#31CEFF" stroke-width="3.98309" stroke-linecap="round" stroke-linejoin="round"/>
<path d="M223.359 116.784H157.795C156.412 116.784 155.29 117.681 155.29 118.788V135.043C155.29 136.15 156.412 137.047 157.795 137.047H223.359C224.743 137.047 225.864 136.15 225.864 135.043V118.788C225.864 117.681 224.743 116.784 223.359 116.784Z" stroke="#31CEFF" stroke-width="3.98309" stroke-linecap="round" stroke-linejoin="round"/>
<path d="M216.917 124.299H164.558C163.451 124.299 162.554 124.523 162.554 124.8V129.346C162.554 129.623 163.451 129.847 164.558 129.847H216.917C218.024 129.847 218.921 129.623 218.921 129.346V124.8C218.921 124.523 218.024 124.299 216.917 124.299Z" stroke="#31CEFF" stroke-width="3.98309" stroke-linecap="round" stroke-linejoin="round"/>
<path d="M162.554 189.174C167.12 189.174 170.82 185.473 170.82 180.908C170.82 176.343 167.12 172.642 162.554 172.642C157.989 172.642 154.289 176.343 154.289 180.908C154.289 185.473 157.989 189.174 162.554 189.174Z" stroke="#31CEFF" stroke-width="3.98309" stroke-linecap="round" stroke-linejoin="round"/>
<path d="M162.554 185.416C164.906 185.416 166.812 183.398 166.812 180.908C166.812 178.418 164.906 176.399 162.554 176.399C160.202 176.399 158.296 178.418 158.296 180.908C158.296 183.398 160.202 185.416 162.554 185.416Z" stroke="#31CEFF" stroke-width="3.98309" stroke-linecap="round" stroke-linejoin="round"/>
<path d="M187.603 189.174C192.168 189.174 195.868 185.473 195.868 180.908C195.868 176.343 192.168 172.642 187.603 172.642C183.037 172.642 179.337 176.343 179.337 180.908C179.337 185.473 183.037 189.174 187.603 189.174Z" stroke="#31CEFF" stroke-width="3.98309" stroke-linecap="round" stroke-linejoin="round"/>
<path d="M187.602 185.416C189.954 185.416 191.861 183.398 191.861 180.908C191.861 178.418 189.954 176.399 187.602 176.399C185.251 176.399 183.344 178.418 183.344 180.908C183.344 183.398 185.251 185.416 187.602 185.416Z" stroke="#31CEFF" stroke-width="3.98309" stroke-linecap="round" stroke-linejoin="round"/>
<path d="M212.65 189.174C217.216 189.174 220.916 185.473 220.916 180.908C220.916 176.343 217.216 172.642 212.65 172.642C208.085 172.642 204.385 176.343 204.385 180.908C204.385 185.473 208.085 189.174 212.65 189.174Z" stroke="#31CEFF" stroke-width="3.98309" stroke-linecap="round" stroke-linejoin="round"/>
<path d="M212.65 185.416C215.002 185.416 216.908 183.398 216.908 180.908C216.908 178.418 215.002 176.399 212.65 176.399C210.298 176.399 208.392 178.418 208.392 180.908C208.392 183.398 210.298 185.416 212.65 185.416Z" stroke="#31CEFF" stroke-width="3.98309" stroke-linecap="round" stroke-linejoin="round"/>
<path fill-rule="evenodd" clip-rule="evenodd" d="M104.443 108.769H63.6143L73.6335 119.039V132.315L69.3753 144.588H104.443C107.699 144.588 110.204 136.573 110.204 126.804C110.204 116.785 107.699 108.769 104.443 108.769Z" stroke="#31CEFF" stroke-width="3.98309" stroke-linecap="round" stroke-linejoin="round"/>
<path d="M48.0841 133.817C50.2975 133.817 52.0918 130.34 52.0918 126.052C52.0918 121.764 50.2975 118.287 48.0841 118.287C45.8707 118.287 44.0764 121.764 44.0764 126.052C44.0764 130.34 45.8707 133.817 48.0841 133.817Z" stroke="#31CEFF" stroke-width="3.98309" stroke-linecap="round" stroke-linejoin="round"/>
<path d="M16.0229 225.744C17.8212 225.744 19.2791 222.716 19.2791 218.981C19.2791 215.246 17.8212 212.218 16.0229 212.218C14.2245 212.218 12.7666 215.246 12.7666 218.981C12.7666 222.716 14.2245 225.744 16.0229 225.744Z" stroke="#31CEFF" stroke-width="3.98309" stroke-linecap="round" stroke-linejoin="round"/>
<path d="M104.443 277.594C106.656 277.594 108.45 274.117 108.45 269.829C108.45 265.54 106.656 262.064 104.443 262.064C102.229 262.064 100.435 265.54 100.435 269.829C100.435 274.117 102.229 277.594 104.443 277.594Z" stroke="#31CEFF" stroke-width="3.98309" stroke-linecap="round" stroke-linejoin="round"/>
<path d="M253.479 247.536C255.277 247.536 256.735 244.508 256.735 240.773C256.735 237.037 255.277 234.01 253.479 234.01C251.681 234.01 250.223 237.037 250.223 240.773C250.223 244.508 251.681 247.536 253.479 247.536Z" stroke="#31CEFF" stroke-width="3.98309" stroke-linecap="round" stroke-linejoin="round"/>
<path fill-rule="evenodd" clip-rule="evenodd" d="M251.225 110.523H241.206V143.085H251.225C254.231 143.085 259.24 135.821 259.24 126.804C259.24 117.787 254.231 110.523 251.225 110.523Z" stroke="#31CEFF" stroke-width="3.98309" stroke-linecap="round" stroke-linejoin="round"/>
<path fill-rule="evenodd" clip-rule="evenodd" d="M149.529 254.048C149.529 257.054 157.044 259.809 166.312 259.809C175.329 259.809 182.843 257.054 182.843 254.048V214.221H149.529V254.048Z" stroke="#31CEFF" stroke-width="3.98309" stroke-linecap="round" stroke-linejoin="round"/>
<path fill-rule="evenodd" clip-rule="evenodd" d="M202.882 286.862C206.138 286.862 208.893 279.598 208.893 270.58C208.893 261.563 206.138 254.299 202.882 254.299H182.843C182.092 257.305 175.078 259.81 166.311 259.81C157.545 259.81 150.281 257.305 149.78 254.299H132.246C130.743 254.299 129.491 255.802 128.489 258.056L132.246 260.311L130.493 286.11C130.994 286.611 131.745 286.862 132.246 286.862H202.882Z" stroke="#31CEFF" stroke-width="3.98309" stroke-linecap="round" stroke-linejoin="round"/>
<path d="M156.643 87.1665L156.643 101.604L175.868 101.604L175.868 87.1665L156.643 87.1665Z" stroke="#31CEFF" stroke-width="3.98309" stroke-linecap="round" stroke-linejoin="round"/>
<path d="M76.3884 144.588L82.3999 157.363H64.6157L73.6331 132.315V119.039L62.3614 107.767H49.3364L46.5811 110.523L10.5117 213.721V222.488" stroke="#31CEFF" stroke-width="3.98309" stroke-linecap="round" stroke-linejoin="round"/>
<path d="M10.5117 222.238L19.7795 234.762H29.5483L40.5695 215.725H52.0917L47.3325 234.01H55.3479L82.3999 157.363" stroke="#31CEFF" stroke-width="3.98309" stroke-linecap="round" stroke-linejoin="round"/>
<path d="M49.3366 107.767L59.3559 118.288V131.814L19.7798 234.761" stroke="#31CEFF" stroke-width="3.98309" stroke-linecap="round" stroke-linejoin="round"/>
<path d="M252.227 110.773L255.232 107.767L270.011 104.26L278.026 110.522L295.81 230.503L286.292 230.002L284.789 224.241L266.754 228.75V234.511L261.745 238.769V253.297H253.228L247.968 242.777L241.957 199.443" stroke="#31CEFF" stroke-width="3.98309" stroke-linecap="round" stroke-linejoin="round"/>
<path d="M255.233 107.767L263.498 115.532L267.506 146.842L249.722 153.605L241.206 148.846L252.978 145.34L252.728 142.584" stroke="#31CEFF" stroke-width="3.98309" stroke-linecap="round" stroke-linejoin="round"/>
<path d="M263.499 115.532L278.277 111.273" stroke="#31CEFF" stroke-width="3.98309" stroke-linecap="round" stroke-linejoin="round"/>
<path d="M249.722 153.605L261.745 238.769" stroke="#31CEFF" stroke-width="3.98309" stroke-linecap="round" stroke-linejoin="round"/>
<path d="M59.356 118.287L73.6334 119.039" stroke="#31CEFF" stroke-width="3.98309" stroke-linecap="round" stroke-linejoin="round"/>
<path d="M59.356 131.813L73.6334 132.314" stroke="#31CEFF" stroke-width="3.98309" stroke-linecap="round" stroke-linejoin="round"/>
<path d="M252.978 145.339L267.506 146.842" stroke="#31CEFF" stroke-width="3.98309" stroke-linecap="round" stroke-linejoin="round"/>
<path d="M126.235 101.505V156.11" stroke="#31CEFF" stroke-width="3.98309" stroke-linecap="round" stroke-linejoin="round"/>
<path d="M126.235 159.617V214.222" stroke="#31CEFF" stroke-width="3.98309" stroke-linecap="round" stroke-linejoin="round"/>
<path d="M46.3307 215.725L47.3326 234.01L54.5965 240.272L50.0879 306.65L55.348 330.696L50.0879 334.704L36.0609 318.422L35.059 347.979L28.7969 349.232L13.0166 317.921L16.5233 351.736L22.2844 349.733L22.5349 336.457" stroke="#31CEFF" stroke-width="3.98309" stroke-linecap="round" stroke-linejoin="round"/>
<path d="M50.0881 334.703L39.5679 312.16L36.0612 318.422L32.0535 320.677L35.0592 347.979" stroke="#31CEFF" stroke-width="3.98309" stroke-linecap="round" stroke-linejoin="round"/>
<path d="M13.0166 317.921L18.7777 318.422L32.0532 348.48" stroke="#31CEFF" stroke-width="3.98309" stroke-linecap="round" stroke-linejoin="round"/>
<path d="M38.5659 219.231L32.5544 239.019L25.0399 241.775L12.5159 233.509L8.25766 237.517L2.74707 314.164L9.76055 346.977L13.0168 345.224L10.512 317.17L13.0168 317.921" stroke="#31CEFF" stroke-width="3.98309" stroke-linecap="round" stroke-linejoin="round"/>
<path d="M13.0166 345.224L16.5233 351.736" stroke="#31CEFF" stroke-width="3.98309" stroke-linecap="round" stroke-linejoin="round"/>
<path d="M12.5159 233.509L17.5255 231.505" stroke="#31CEFF" stroke-width="3.98309" stroke-linecap="round" stroke-linejoin="round"/>
<path d="M25.0401 241.775L18.7781 318.423" stroke="#31CEFF" stroke-width="3.98309" stroke-linecap="round" stroke-linejoin="round"/>
<path d="M10.512 317.17L2.74707 314.164" stroke="#31CEFF" stroke-width="3.98309" stroke-linecap="round" stroke-linejoin="round"/>
<path d="M18.7781 318.422L32.0536 320.677" stroke="#31CEFF" stroke-width="3.98309" stroke-linecap="round" stroke-linejoin="round"/>
<path d="M39.5679 312.16L50.0881 306.65" stroke="#31CEFF" stroke-width="3.98309" stroke-linecap="round" stroke-linejoin="round"/>
<path fill-rule="evenodd" clip-rule="evenodd" d="M295.811 230.503L286.293 230.002L280.031 225.494L270.262 227.998L270.011 233.008L262.497 238.268L261.745 263.316L294.057 292.873L312.343 292.122L323.614 311.409L328.874 311.659L330.628 302.642L332.131 301.891L337.892 300.889V294.627L338.894 292.372L342.651 291.621L332.381 264.068L295.811 230.503Z" stroke="#31CEFF" stroke-width="3.98309" stroke-linecap="round" stroke-linejoin="round"/>
<path d="M294.057 292.873L303.075 285.108L301.572 276.592L319.356 274.838L320.859 269.328L311.09 259.81L297.564 261.062L319.356 274.838" stroke="#31CEFF" stroke-width="3.98309" stroke-linecap="round" stroke-linejoin="round"/>
<path d="M297.564 261.062L301.572 276.592" stroke="#31CEFF" stroke-width="3.98309" stroke-linecap="round" stroke-linejoin="round"/>
<path d="M338.893 292.372L322.111 278.595L324.616 270.831L342.65 291.621" stroke="#31CEFF" stroke-width="3.98309" stroke-linecap="round" stroke-linejoin="round"/>
<path d="M332.381 264.068L324.616 270.831" stroke="#31CEFF" stroke-width="3.98309" stroke-linecap="round" stroke-linejoin="round"/>
<path d="M322.111 278.595L316.6 282.353L337.891 300.888" stroke="#31CEFF" stroke-width="3.98309" stroke-linecap="round" stroke-linejoin="round"/>
<path d="M330.627 302.642L314.346 287.613L316.601 282.353" stroke="#31CEFF" stroke-width="3.98309" stroke-linecap="round" stroke-linejoin="round"/>
<path d="M312.342 292.122L314.346 287.613L328.874 311.66" stroke="#31CEFF" stroke-width="3.98309" stroke-linecap="round" stroke-linejoin="round"/>
<path d="M311.09 259.81L332.381 264.068" stroke="#31CEFF" stroke-width="3.98309" stroke-linecap="round" stroke-linejoin="round"/>
<path d="M303.074 285.108L316.6 282.353" stroke="#31CEFF" stroke-width="3.98309" stroke-linecap="round" stroke-linejoin="round"/>
<path d="M132.246 286.861L147.025 296.881L135.002 296.63L130.242 290.619L132.246 260.31L117.468 251.293H102.689L100.185 255.05L85.9072 402.333L89.9149 411.601L95.9265 412.603L101.187 408.345L116.466 260.31" stroke="#31CEFF" stroke-width="3.98309" stroke-linecap="round" stroke-linejoin="round"/>
<path d="M132.246 260.31H116.466L102.689 251.293" stroke="#31CEFF" stroke-width="3.98309" stroke-linecap="round" stroke-linejoin="round"/>
<path d="M147.025 296.881L137.256 408.847L126.986 416.862L124.231 436.65L117.969 442.662H106.948L103.942 438.403L109.703 435.147L110.705 413.355L101.187 408.346" stroke="#31CEFF" stroke-width="3.98309" stroke-linecap="round" stroke-linejoin="round"/>
<path d="M205.887 256.803L214.654 251.293L229.933 250.792L246.966 399.578L244.712 408.595H239.953" stroke="#31CEFF" stroke-width="3.98309" stroke-linecap="round" stroke-linejoin="round"/>
<path d="M246.967 399.578L240.955 402.083L239.953 408.595L239.202 431.389L233.691 438.653H225.175L219.414 435.898L224.924 425.628L222.169 408.595L218.662 402.834L210.146 403.085L200.878 412.102L196.62 407.593L183.845 297.382L198.874 286.861L215.907 286.11L217.911 282.854L214.655 251.293" stroke="#31CEFF" stroke-width="3.98309" stroke-linecap="round" stroke-linejoin="round"/>
<path d="M198.874 286.862L210.146 403.085" stroke="#31CEFF" stroke-width="3.98309" stroke-linecap="round" stroke-linejoin="round"/>
<path d="M89.1632 435.898C91.3766 435.898 93.1709 432.421 93.1709 428.133C93.1709 423.844 91.3766 420.368 89.1632 420.368C86.9498 420.368 85.1555 423.844 85.1555 428.133C85.1555 432.421 86.9498 435.898 89.1632 435.898Z" stroke="#31CEFF" stroke-width="3.98309" stroke-linecap="round" stroke-linejoin="round"/>
<path d="M204.635 434.145C206.849 434.145 208.643 430.669 208.643 426.38C208.643 422.092 206.849 418.615 204.635 418.615C202.422 418.615 200.628 422.092 200.628 426.38C200.628 430.669 202.422 434.145 204.635 434.145Z" stroke="#31CEFF" stroke-width="3.98309" stroke-linecap="round" stroke-linejoin="round"/>
<path d="M30.0495 494.26C32.2628 494.26 34.0572 490.783 34.0572 486.495C34.0572 482.206 32.2628 478.73 30.0495 478.73C27.8361 478.73 26.0417 482.206 26.0417 486.495C26.0417 490.783 27.8361 494.26 30.0495 494.26Z" stroke="#31CEFF" stroke-width="3.98309" stroke-linecap="round" stroke-linejoin="round"/>
<path d="M167.313 556.379C169.527 556.379 171.321 552.903 171.321 548.615C171.321 544.326 169.527 540.85 167.313 540.85C165.1 540.85 163.306 544.326 163.306 548.615C163.306 552.903 165.1 556.379 167.313 556.379Z" stroke="#31CEFF" stroke-width="3.98309" stroke-linecap="round" stroke-linejoin="round"/>
<path d="M244.712 408.595L252.727 419.867V433.393L217.159 541.1L207.641 545.108L197.371 564.645H185.598L183.094 561.639L189.857 545.108L187.101 542.102H179.086L168.816 530.079V520.059L200.878 412.102L208.643 407.844H215.406L220.916 419.366V430.888L218.412 438.653L219.163 447.921H237.198L243.46 439.905L246.465 431.389V422.121L239.702 414.356" stroke="#31CEFF" stroke-width="3.98309" stroke-linecap="round" stroke-linejoin="round"/>
<path d="M170.068 531.582H165.059L161.552 537.092L156.542 582.68L180.589 610.483L191.359 616.495H208.392L216.408 610.984L213.652 542.603" stroke="#31CEFF" stroke-width="3.98309" stroke-linecap="round" stroke-linejoin="round"/>
<path d="M183.094 561.64L182.593 548.865L179.086 542.102" stroke="#31CEFF" stroke-width="3.98309" stroke-linecap="round" stroke-linejoin="round"/>
<path d="M165.059 531.582L175.329 543.605L178.084 549.366L180.589 610.483" stroke="#31CEFF" stroke-width="3.98309" stroke-linecap="round" stroke-linejoin="round"/>
<path d="M179.086 542.102L175.329 543.605" stroke="#31CEFF" stroke-width="3.98309" stroke-linecap="round" stroke-linejoin="round"/>
<path d="M178.084 549.366L182.593 548.865" stroke="#31CEFF" stroke-width="3.98309" stroke-linecap="round" stroke-linejoin="round"/>
<path d="M246.466 422.122L252.728 419.867" stroke="#31CEFF" stroke-width="3.98309" stroke-linecap="round" stroke-linejoin="round"/>
<path d="M246.466 431.39L252.728 433.394" stroke="#31CEFF" stroke-width="3.98309" stroke-linecap="round" stroke-linejoin="round"/>
<path d="M208.643 407.844L214.905 420.117V430.888L179.086 542.102" stroke="#31CEFF" stroke-width="3.98309" stroke-linecap="round" stroke-linejoin="round"/>
<path d="M214.905 420.117L220.917 419.366" stroke="#31CEFF" stroke-width="3.98309" stroke-linecap="round" stroke-linejoin="round"/>
<path d="M214.905 430.888H222.169" stroke="#31CEFF" stroke-width="3.98309" stroke-linecap="round" stroke-linejoin="round"/>
<path d="M233.691 438.654L237.198 447.922" stroke="#31CEFF" stroke-width="3.98309" stroke-linecap="round" stroke-linejoin="round"/>
<path d="M218.662 402.834L215.907 408.846" stroke="#31CEFF" stroke-width="3.98309" stroke-linecap="round" stroke-linejoin="round"/>
<path d="M130.743 413.856L134.751 415.609L137.005 434.896L134.751 442.661L78.1422 496.014L70.1268 495.012L53.8455 506.033L46.3311 507.285L42.0729 503.027L48.3349 498.769V495.513L42.8243 493.258L40.069 490.002L37.3137 463.451L89.9149 411.601L95.9264 412.603L103.942 417.362L106.447 433.644L103.942 438.403" stroke="#31CEFF" stroke-width="3.98309" stroke-linecap="round" stroke-linejoin="round"/>
<path d="M89.9145 411.601L98.9319 418.364L100.685 433.143L42.824 493.258" stroke="#31CEFF" stroke-width="3.98309" stroke-linecap="round" stroke-linejoin="round"/>
<path d="M100.685 433.143L106.446 433.644" stroke="#31CEFF" stroke-width="3.98309" stroke-linecap="round" stroke-linejoin="round"/>
<path d="M98.9319 418.365L103.942 417.363" stroke="#31CEFF" stroke-width="3.98309" stroke-linecap="round" stroke-linejoin="round"/>
<path d="M127.487 416.361L129.992 433.894L128.238 441.158L113.71 450.677H108.701L98.6814 445.917V443.914L103.942 438.403" stroke="#31CEFF" stroke-width="3.98309" stroke-linecap="round" stroke-linejoin="round"/>
<path d="M129.992 433.894L137.005 434.896" stroke="#31CEFF" stroke-width="3.98309" stroke-linecap="round" stroke-linejoin="round"/>
<path d="M128.238 441.158L134.75 442.661" stroke="#31CEFF" stroke-width="3.98309" stroke-linecap="round" stroke-linejoin="round"/>
<path d="M110.705 413.355L101.437 417.864" stroke="#31CEFF" stroke-width="3.98309" stroke-linecap="round" stroke-linejoin="round"/>
<path d="M207.641 545.108L205.387 564.395L200.377 569.655H186.6L183.344 566.148L183.094 561.64" stroke="#31CEFF" stroke-width="3.98309" stroke-linecap="round" stroke-linejoin="round"/>
<path d="M197.371 564.646L200.377 569.655" stroke="#31CEFF" stroke-width="3.98309" stroke-linecap="round" stroke-linejoin="round"/>
<path d="M205.387 564.396L198.624 562.392" stroke="#31CEFF" stroke-width="3.98309" stroke-linecap="round" stroke-linejoin="round"/>
<path d="M186.601 569.655L185.599 564.646" stroke="#31CEFF" stroke-width="3.98309" stroke-linecap="round" stroke-linejoin="round"/>
<path d="M262.496 238.268L297.564 261.062" stroke="#31CEFF" stroke-width="3.98309" stroke-linecap="round" stroke-linejoin="round"/>
<path d="M37.5636 467.709L32.3034 466.958L13.2668 483.239L22.0337 547.613L31.552 507.536L42.8237 493.258L45.579 494.26L42.0722 503.027" stroke="#31CEFF" stroke-width="3.98309" stroke-linecap="round" stroke-linejoin="round"/>
<path d="M75.1363 495.512V498.268L67.6218 510.541L54.8473 550.117L46.8319 555.628H31.5525L22.0342 547.613" stroke="#31CEFF" stroke-width="3.98309" stroke-linecap="round" stroke-linejoin="round"/>
<path d="M211.649 2.56494H114.212C112.137 2.56494 110.454 6.37785 110.454 11.0813V78.7113C110.454 83.4148 112.137 87.2277 114.212 87.2277H211.649C213.724 87.2277 215.406 83.4148 215.406 78.7113V11.0813C215.406 6.37785 213.724 2.56494 211.649 2.56494Z" stroke="#31CEFF" stroke-width="3.98309" stroke-linecap="round" stroke-linejoin="round"/>
<path d="M203.884 15.0889H147.776C146.669 15.0889 145.772 17.556 145.772 20.5995V63.4318C145.772 66.4752 146.669 68.9424 147.776 68.9424H203.884C204.99 68.9424 205.888 66.4752 205.888 63.4318V20.5995C205.888 17.556 204.99 15.0889 203.884 15.0889Z" stroke="#31CEFF" stroke-width="3.98309" stroke-linecap="round" stroke-linejoin="round"/>
<path d="M124.732 2.56494V87.2277" stroke="#31CEFF" stroke-width="3.98309" stroke-linecap="round" stroke-linejoin="round"/>
<path d="M187.853 78.7113C188.959 78.7113 189.857 77.8142 189.857 76.7075C189.857 75.6008 188.959 74.7036 187.853 74.7036C186.746 74.7036 185.849 75.6008 185.849 76.7075C185.849 77.8142 186.746 78.7113 187.853 78.7113Z" stroke="#31CEFF" stroke-width="3.98309" stroke-linecap="round" stroke-linejoin="round"/>
<path d="M206 74.4529H195.868C195.038 74.4529 194.365 75.35 194.365 76.4567V76.6333C194.365 77.74 195.038 78.6372 195.868 78.6372H206C206.83 78.6372 207.502 77.74 207.502 76.6333V76.4567C207.502 75.35 206.83 74.4529 206 74.4529Z" stroke="#31CEFF" stroke-width="3.98309" stroke-linecap="round" stroke-linejoin="round"/>
<path d="M177.834 78.7113C178.941 78.7113 179.838 77.8142 179.838 76.7075C179.838 75.6008 178.941 74.7036 177.834 74.7036C176.727 74.7036 175.83 75.6008 175.83 76.7075C175.83 77.8142 176.727 78.7113 177.834 78.7113Z" stroke="#31CEFF" stroke-width="3.98309" stroke-linecap="round" stroke-linejoin="round"/>
<path d="M186.781 29.4138L186.781 39.8077C186.781 40.5652 187.688 41.1792 188.806 41.1792H188.94C190.059 41.1792 190.965 40.5652 190.965 39.8077L190.965 29.4138C190.965 28.6563 190.059 28.0422 188.94 28.0422L188.806 28.0422C187.688 28.0422 186.781 28.6563 186.781 29.4138Z" stroke="#31CEFF" stroke-width="3.98309" stroke-linecap="round" stroke-linejoin="round"/>
<path d="M164.065 29.4138L164.065 39.8077C164.065 40.5652 164.971 41.1792 166.09 41.1792H166.224C167.342 41.1792 168.249 40.5652 168.249 39.8077L168.249 29.4138C168.249 28.6563 167.342 28.0422 166.224 28.0422L166.09 28.0422C164.971 28.0422 164.065 28.6563 164.065 29.4138Z" stroke="#31CEFF" stroke-width="3.98309" stroke-linecap="round" stroke-linejoin="round"/>
<path fill-rule="evenodd" clip-rule="evenodd" d="M172.073 44.8962C172.073 44.3953 172.573 44.1448 173.325 44.1448C173.826 44.1448 174.327 44.3953 174.327 44.8962C174.327 46.9001 175.83 48.403 177.834 48.403C179.837 48.403 181.591 46.9001 181.591 44.8962C181.591 44.3953 182.092 44.1448 182.593 44.1448C183.094 44.1448 183.595 44.3953 183.595 44.8962C183.595 47.902 181.09 50.1563 177.834 50.1563C174.828 50.1563 172.073 47.902 172.073 44.8962Z" stroke="#31CEFF" stroke-width="3.98309" stroke-linecap="round" stroke-linejoin="round"/>
</svg>
