<svg version="1.1" id="Слой_1" xmlns="http://www.w3.org/2000/svg" x="0" y="0" viewBox="0 0 205 195" xml:space="preserve"><style>.st1{fill:#6120fe}.st2{fill:#fff}</style><path d="M64.7.8v10.8H43.2v10.8H32.4v10.8H21.6V44H10.8v21.6H0v64.7h10.8v21.6h10.8v10.8h10.8v10.8h10.8v10.8h21.6V195h64.7v-10.8h21.6v-10.8h10.8v-10.8h10.8v-10.8h10.8V141h10.8v-21.6H205V65.5h-10.8V43.9h-10.8V33.2h-10.8V22.4h-10.8V11.6H64.7h75.5V.8H64.7z" fill="#e31cb8"/><path class="st1" d="M183.4 65.5V43.9h-10.8V33.2h-10.8V22.4h-10.7V11.6h-21.6V.8H64.7v10.8H43.2v161.8h21.5v10.8h64.8v-10.8h21.6v-10.8h10.7v-10.8h10.8v-10.7h10.8v-21.6h10.8v-54zM32.4 33.2H21.6v10.7H10.8v21.6H0v54h10.8v21.6h10.8v10.7h10.8v10.8h10.8V22.4H32.4z"/><g><path class="st2" d="M169 141.5h-56v-10.7h35.7c4.3 0 6.5-5.8 6.5-11.6V47.1c0-5.8-2.2-11.6-6.5-11.6h-104c-4.3 0-6.5 5.8-6.5 11.6v72.2c0 5.8 2.2 11.6 6.5 11.6h42.8v10.6H26a2.5 2.5 0 00-2.5 2.5c0 1.4 1.1 2.5 2.5 2.5h27.5V171c0 1.4 1.1 2.5 2.5 2.5s2.5-1.1 2.5-2.5v-24.5H169c1.4 0 2.5-1.1 2.5-2.5s-1.1-2.5-2.5-2.5zM53.5 125.8H45c-.5-.5-1.7-2.8-1.7-6.6V47.1c0-3.8 1.1-6.1 1.7-6.6h8.5v85.3zm54.5 15.4H92.5v-10.4H108v10.4zm2.5-15.4H90l-.6.1H58.5V40.5h90.1c.6.5 1.7 2.8 1.7 6.6v72.2c0 3.8-1.1 6.1-1.7 6.6h-37.5l-.6-.1z"/><path class="st2" d="M145.1 103V57.2c0-5.1-1.8-8.3-4.6-8.3H80.6c-2.8 0-4.6 3.3-4.6 8.4V103c0 5.1 1.8 8.4 4.6 8.4h59.9c2.8 0 4.6-3.3 4.6-8.4zm-5-.1a11 11 0 01-.5 3.4H81.4a11 11 0 01-.5-3.4V57.2c0-1.6.3-2.8.5-3.4h58.2c.2.6.5 1.8.5 3.4v45.7zM159 155.5H88a2.5 2.5 0 00-2.5 2.5v20c0 1.4 1.1 2.5 2.5 2.5h39c1.4 0 2.5-1.1 2.5-2.5s-1.1-2.5-2.5-2.5H90.5v-15H159c1.4 0 2.5-1.1 2.5-2.5s-1.1-2.5-2.5-2.5z"/><path class="st2" d="M148 165.5h-45a2.5 2.5 0 00-2.5 2.5c0 1.4 1.1 2.5 2.5 2.5h45c1.4 0 2.5-1.1 2.5-2.5s-1.1-2.5-2.5-2.5zM142.8 112.3H132c-2.1 0-3.8 1.6-4.1 3.8a4.6 4.6 0 100 1.9c.4 2.1 2 3.6 4 3.6h10.8c2.3 0 4.1-2 4.1-4.6v-.2c0-2.6-1.8-4.6-4-4.5z"/><circle transform="rotate(-45 112.7 117.1)" class="st2" cx="112.7" cy="117.1" r="4.6"/><path class="st2" d="M124.5 62.6c-2.8 0-4.8 1.8-4.8 4v11.1c0 2.3 2.1 4 4.7 4h.1c2.7 0 4.7-1.8 4.7-4V66.6c0-2.2-2.1-3.9-4.7-4zM104.9 66.6c0-2.2-2-3.9-4.7-4h-.1c-2.7 0-4.7 1.8-4.7 4v11.1c0 2.3 2.1 4 4.7 4h.1c2.7 0 4.7-1.8 4.7-4V66.6zM117.7 79.9c-2.1 0-3.6 1.4-3.6 3.3 0 .7-.8 1.2-1.5 1.2s-1.2-.4-1.2-1.2c0-1.9-1.6-3.3-3.6-3.3-2.6 0-3.8 1.7-3.8 3.3 0 4.5 3.9 8.1 8.7 8.1s8.6-3.5 8.6-8.1c0-1.9-1.5-3.3-3.6-3.3z"/></g></svg>
