<?xml version="1.0" encoding="utf-8"?>
<!-- Generator: Adobe Illustrator 24.0.1, SVG Export Plug-In . SVG Version: 6.00 Build 0)  -->
<svg version="1.1" id="Слой_1" xmlns="http://www.w3.org/2000/svg" xmlns:xlink="http://www.w3.org/1999/xlink" x="0px" y="0px"
	 viewBox="0 0 205 195" style="enable-background:new 0 0 205 195;" xml:space="preserve">
<style type="text/css">
	.st0{fill:#E31CB8;}
	.st1{fill:#6120FE;}
	.st2{fill:#FFFFFF;}
</style>
<path class="st0" d="M64.7,0.8v10.8H43.2v10.8H32.4v10.8H21.6v10.8H10.8v21.6H0v64.7h10.8v21.6h10.8v10.8h10.8v10.8h10.8v10.8h21.6
	V195h64.7v-10.8h21.6v-10.8h10.8v-10.8h10.8v-10.8h10.8v-10.8h10.8v-21.6H205V65.5h-10.8V43.9h-10.8V33.2h-10.8V22.4h-10.8V11.6
	H64.7h75.5V0.8H64.7z"/>
<g>
	<polygon class="st1" points="183.4,65.5 183.4,43.9 172.6,43.9 172.6,33.2 161.8,33.2 161.8,22.4 151.1,22.4 151.1,11.6 
		129.5,11.6 129.5,0.8 64.7,0.8 64.7,11.6 43.2,11.6 43.2,173.4 64.7,173.4 64.7,184.2 129.5,184.2 129.5,173.4 151.1,173.4 
		151.1,162.6 161.8,162.6 161.8,151.8 172.6,151.8 172.6,141.1 183.4,141.1 183.4,119.5 194.2,119.5 194.2,65.5 	"/>
	<polygon class="st1" points="32.4,33.2 21.6,33.2 21.6,43.9 10.8,43.9 10.8,65.5 0,65.5 0,119.5 10.8,119.5 10.8,141.1 21.6,141.1 
		21.6,151.8 32.4,151.8 32.4,162.6 43.2,162.6 43.2,22.4 32.4,22.4 	"/>
</g>
<g>
	<path class="st2" d="M169,141.5h-56v-10.7h35.7c4.3,0,6.5-5.8,6.5-11.6V47.1c0-5.8-2.2-11.6-6.5-11.6h-104c-4.3,0-6.5,5.8-6.5,11.6
		v72.2c0,5.8,2.2,11.6,6.5,11.6h42.8v10.6H26c-1.4,0-2.5,1.1-2.5,2.5c0,1.4,1.1,2.5,2.5,2.5h27.5V171c0,1.4,1.1,2.5,2.5,2.5
		s2.5-1.1,2.5-2.5v-24.5H169c1.4,0,2.5-1.1,2.5-2.5C171.5,142.6,170.4,141.5,169,141.5z M53.5,125.8H45c-0.5-0.5-1.7-2.8-1.7-6.6
		V47.1c0-3.8,1.1-6.1,1.7-6.6h8.5V125.8z M108,141.2H92.5v-10.4H108V141.2z M110.5,125.8H90c-0.2,0-0.4,0-0.6,0.1H58.5v-0.1V40.5
		h90.1c0.6,0.5,1.7,2.8,1.7,6.6v72.2c0,3.8-1.1,6.1-1.7,6.6h-37.5C111,125.8,110.8,125.8,110.5,125.8z"/>
	<path class="st2" d="M145.1,103V57.2c0-5.1-1.8-8.3-4.6-8.3H80.6c-2.8,0-4.6,3.3-4.6,8.4V103c0,5.1,1.8,8.4,4.6,8.4h59.9
		C143.3,111.4,145.1,108.1,145.1,103z M140.1,102.9c0,1.6-0.3,2.8-0.5,3.4H81.4c-0.2-0.6-0.5-1.8-0.5-3.4V57.2
		c0-1.6,0.3-2.8,0.5-3.4h58.2c0.2,0.6,0.5,1.8,0.5,3.4V102.9z"/>
	<path class="st2" d="M159,155.5H88c-1.4,0-2.5,1.1-2.5,2.5v20c0,1.4,1.1,2.5,2.5,2.5h39c1.4,0,2.5-1.1,2.5-2.5
		c0-1.4-1.1-2.5-2.5-2.5H90.5v-15H159c1.4,0,2.5-1.1,2.5-2.5C161.5,156.6,160.4,155.5,159,155.5z"/>
	<path class="st2" d="M148,165.5h-45c-1.4,0-2.5,1.1-2.5,2.5c0,1.4,1.1,2.5,2.5,2.5h45c1.4,0,2.5-1.1,2.5-2.5
		C150.5,166.6,149.4,165.5,148,165.5z"/>
	<path class="st2" d="M142.8,112.3H132c-2.1,0-3.8,1.6-4.1,3.8c-0.5-2.1-2.3-3.6-4.5-3.6c-2.5,0-4.6,2.1-4.6,4.6s2,4.6,4.6,4.6
		c2.2,0,4.1-1.6,4.5-3.7c0.4,2.1,2,3.6,4,3.6h10.8c2.3,0,4.1-2,4.1-4.6v-0.2C146.8,114.2,145,112.2,142.8,112.3z"/>
	
		<ellipse transform="matrix(0.7071 -0.7071 0.7071 0.7071 -49.7931 113.9887)" class="st2" cx="112.7" cy="117.1" rx="4.6" ry="4.6"/>
	<path class="st2" d="M124.5,62.6L124.5,62.6c-2.8,0-4.8,1.8-4.8,4v11.1c0,2.3,2.1,4,4.7,4h0.1c2.7,0,4.7-1.8,4.7-4V66.6
		C129.2,64.4,127.1,62.7,124.5,62.6z"/>
	<path class="st2" d="M104.9,66.6c0-2.2-2-3.9-4.7-4h-0.1c-2.7,0-4.7,1.8-4.7,4v11.1c0,2.3,2.1,4,4.7,4h0.1c2.7,0,4.7-1.8,4.7-4
		V66.6z"/>
	<path class="st2" d="M117.7,79.9c-2.1,0-3.6,1.4-3.6,3.3c0,0.7-0.8,1.2-1.5,1.2c-0.7,0-1.2-0.4-1.2-1.2c0-1.9-1.6-3.3-3.6-3.3
		c-2.6,0-3.8,1.7-3.8,3.3c0,4.5,3.9,8.1,8.7,8.1s8.6-3.5,8.6-8.1C121.3,81.3,119.8,79.9,117.7,79.9z"/>
</g>
</svg>
