<svg width="105" height="105" viewBox="0 0 105 105" fill="none" xmlns="http://www.w3.org/2000/svg">
<path d="M10 0H95V5H105V100H100V105L10 105V0Z" fill="#E31CB8"/>
<path d="M95 0H5V5H0V95H5V100H95V95H100V5H95V0Z" fill="#FFE600"/>
<path d="M10 10H20V20H10V10Z" fill="#E31CB8"/>
<path d="M67 20H32V25H27V45H37V25H62V40H57V45H47V65H57V50H67V45H72V25H67V20Z" fill="#E31CB8"/>
<path d="M57 70H47V80H57V70Z" fill="#E31CB8"/>
<path d="M20 80H10V90H20V80Z" fill="#E31CB8"/>
<path d="M80 10H90V20H80V10Z" fill="#E31CB8"/>
<path d="M90 80H80V90H90V80Z" fill="#E31CB8"/>
</svg>
