<svg width="135" height="95" viewBox="0 0 135 95" fill="none" xmlns="http://www.w3.org/2000/svg">
<path d="M69.5457 15.0435H65.4548V18.8035H61.3639V26.3236H57.273V33.8437H53.1821V41.3638H20.4548V52.644L28.6366 52.6439V56.404H36.8184V60.164H45.0003V67.6841H40.9093V75.2042H36.8184V82.7243H32.7275V94.0045H40.9093V90.2444H49.0912V86.4844H57.273V82.7243H65.4548V78.9643H69.5457V82.7243H77.7275V86.4844H85.9093V90.2444H94.0911V94.0045H102.273V82.7243H98.182V75.2042H94.0911V67.6841H90.0002V60.164H98.182V56.404L106.364 56.404V52.6439H114.546V41.3638H81.8184V33.8437H77.7275V26.3236H73.6366V18.8035H69.5457V15.0435Z" fill="#FFE600"/>
<path fill-rule="evenodd" clip-rule="evenodd" d="M69.5457 15.0435H65.4548V18.8035H61.3639V26.3236H57.273V33.8437H53.1821V41.3638H20.4548V52.6439H28.6366V56.404H36.8184V60.164H45.0003V67.6841H40.9093V75.2042H36.8184V82.7243H32.7275V94.0045H40.9093V90.2444H49.0912V86.4844H57.273V82.7243H65.4548V78.9643H69.5457V82.7243H77.7275V86.4844H85.9093V90.2444H94.0911V94.0045H102.273V82.7243H98.182V75.2042H94.0911V67.6841H90.0002V60.164H98.182V56.404H106.364V52.6439H114.546V41.3638H81.8184V33.8437H77.7275V26.3236H73.6366V18.8035H69.5457V15.0435ZM69.5457 18.8035V26.3236H73.6366V33.8437H77.7275V41.3638H81.8184V45.1238H110.455V48.8839H106.364V52.6439H98.182V56.404H90.0002V60.164H85.9093V67.6841H90.0002V75.2042H94.0911V82.7243H98.182V90.2444H94.0911V86.4844H85.9093V82.7243H77.7275V78.9643H69.5457V75.2042H65.4548V78.9643H57.273V82.7243H49.0912V86.4844H40.9093V90.2444H36.8184V82.7243H40.9093V75.2042H45.0003V67.6841H49.0912V60.164H45.0003V56.404H36.8184V52.6439H28.6366V48.8839H24.5457V45.1238H53.1821V41.3638H57.273V33.8437H61.3639V26.3236H65.4548V18.8035H69.5457Z" fill="#6120FE"/>
<path fill-rule="evenodd" clip-rule="evenodd" d="M69.545 0.00488281H65.4541V7.52498H69.545V0.00488281ZM28.6366 9.78076H24.5457V13.5408H28.6365V17.3001H32.7274V13.54H28.6366V9.78076ZM106.364 9.78076H110.455V13.5408H106.364V9.78076ZM102.272 13.5401H106.363V17.3002H102.272V13.5401ZM135 44.374V48.1341H126.818V44.374H135ZM8.18188 48.1341V44.374H7.9155e-05L7.89761e-05 48.1341H8.18188Z" fill="white"/>
</svg>
