<?xml version="1.0" encoding="utf-8"?>
<!-- Generator: Adobe Illustrator 24.0.1, SVG Export Plug-In . SVG Version: 6.00 Build 0)  -->
<svg version="1.1" id="Слой_1" xmlns="http://www.w3.org/2000/svg" xmlns:xlink="http://www.w3.org/1999/xlink" x="0px" y="0px"
	 viewBox="0 0 426 158" style="enable-background:new 0 0 426 158;" xml:space="preserve">
<style type="text/css">
	.st0{fill:#6120FE;}
	.st1{fill:#E31CB8;}
	.st2{fill:#FFE600;}
</style>
<path class="st0" d="M43.8,6h-6v6v9.9h-9.9h-6v6v9.9H12H6v6v70.4v6h6h9.9v9.9v6h6h9.9v9.9v6h6h338.3h6v-6v-9.9h9.9h6v-6v-9.9h9.9h6
	v-6V43.8v-6h-6h-9.9v-9.9v-6h-6h-9.9V12V6h-6H43.8z"/>
<path class="st1" d="M394.2,158H31.8v-15.9H15.9v-15.9H0V31.8h15.9V15.9h15.9V0h362.3v15.9h15.9v15.9H426v94.4h-15.9v15.9h-15.9V158
	z M43.8,146h338.3v-15.9h15.9v-15.9H414V43.8h-15.9V27.9h-15.9V12H43.8v15.9H27.9v15.9H12v70.4h15.9v15.9h15.9V146z"/>
<path class="st1" d="M220.4,100.1v-5.8h-5.8V59.7h11.5v23.1h5.8V59.7h5.8v23.1h5.8V59.7h11.5v34.6h-5.8v5.8h-5.8v-5.8h-5.8v-5.8H232
	v5.8h-5.8v5.8H220.4z"/>
<path class="st1" d="M268.9,100.1v-5.8h-5.8V65.5h5.8v-5.8h28.9v5.8h5.8v28.9h-5.8v5.8H268.9z M274.7,94.3H292V65.5h-17.3V94.3z"/>
<path class="st1" d="M311.6,100.1V59.7h11.5v5.8h5.8v5.8h5.8V77h5.8V59.7H352v40.4h-11.5V88.6h-5.8v-5.8h-5.8V77h-5.8v23.1H311.6z"
	/>
<path class="st1" d="M371.6,88.6V59.7H389V77h-5.8v11.5H371.6z M371.6,100.1v-5.8h11.5v5.8H371.6z"/>
<path class="st1" d="M53.6,100.1V82.8h-5.8V77h-5.8V59.7h11.5V77h11.5V59.7h11.5V77H71v5.8h-5.8v17.3H53.6z"/>
<path class="st1" d="M90.6,100.1v-5.8h-5.8V65.5h5.8v-5.8h28.9v5.8h5.8v28.9h-5.8v5.8H90.6z M96.4,94.3h17.3V65.5H96.4V94.3z"/>
<path class="st1" d="M139.1,100.1v-5.8h-5.8V59.7h11.5v34.6h17.3V59.7h11.5v34.6h-5.8v5.8H139.1z"/>
<g>
	<path class="st2" d="M216.4,96.1v-5.8h-5.8V55.7h11.5v23.1h5.8V55.7h5.8v23.1h5.8V55.7h11.5v34.6h-5.8v5.8h-5.8v-5.8h-5.8v-5.8H228
		v5.8h-5.8v5.8H216.4z"/>
	<path class="st2" d="M264.9,96.1v-5.8h-5.8V61.5h5.8v-5.8h28.9v5.8h5.8v28.9h-5.8v5.8H264.9z M270.7,90.3H288V61.5h-17.3V90.3z"/>
	<path class="st2" d="M307.6,96.1V55.7h11.5v5.8h5.8v5.8h5.8V73h5.8V55.7H348v40.4h-11.5V84.6h-5.8v-5.8h-5.8V73h-5.8v23.1H307.6z"
		/>
	<path class="st2" d="M367.6,84.6V55.7H385V73h-5.8v11.5H367.6z M367.6,96.1v-5.8h11.5v5.8H367.6z"/>
	<path class="st2" d="M49.6,96.1V78.8h-5.8V73h-5.8V55.7h11.5V73h11.5V55.7h11.5V73H67v5.8h-5.8v17.3H49.6z"/>
	<path class="st2" d="M86.6,96.1v-5.8h-5.8V61.5h5.8v-5.8h28.9v5.8h5.8v28.9h-5.8v5.8H86.6z M92.4,90.3h17.3V61.5H92.4V90.3z"/>
	<path class="st2" d="M135.1,96.1v-5.8h-5.8V55.7h11.5v34.6h17.3V55.7h11.5v34.6h-5.8v5.8H135.1z"/>
</g>
</svg>
