<svg version="1.1" id="Слой_1" xmlns="http://www.w3.org/2000/svg" x="0" y="0" viewBox="0 0 426 158" xml:space="preserve"><style>.st1{fill:#e31cb8}.st2{fill:#ffe600}</style><path d="M43.8 6h-6v15.9H21.9v15.9H6v82.4h15.9v15.9h15.9V152h350.3v-15.9H404v-15.9h15.9V37.8H404V21.9h-15.9V6H43.8z" fill="#6120fe"/><path class="st1" d="M394.2 158H31.8v-15.9H15.9v-15.9H0V31.8h15.9V15.9h15.9V0h362.3v15.9H410v15.9h16v94.4h-15.9v15.9h-15.9V158zM43.8 146h338.3v-15.9H398v-15.9h16V43.8h-15.9V27.9h-15.9V12H43.8v15.9H27.9v15.9H12v70.4h15.9v15.9h15.9V146z"/><path class="st1" d="M220.4 100.1v-5.8h-5.8V59.7h11.5v23.1h5.8V59.7h5.8v23.1h5.8V59.7H255v34.6h-5.8v5.8h-5.8v-5.8h-5.8v-5.8H232v5.8h-5.8v5.8h-5.8zM268.9 100.1v-5.8h-5.8V65.5h5.8v-5.8h28.9v5.8h5.8v28.9h-5.8v5.8h-28.9zm5.8-5.8H292V65.5h-17.3v28.8zM311.6 100.1V59.7h11.5v5.8h5.8v5.8h5.8V77h5.8V59.7H352v40.4h-11.5V88.6h-5.8v-5.8h-5.8V77h-5.8v23.1h-11.5zM371.6 88.6V59.7H389V77h-5.8v11.5h-11.6zm0 11.5v-5.8h11.5v5.8h-11.5zM53.6 100.1V82.8h-5.8V77H42V59.7h11.5V77H65V59.7h11.5V77H71v5.8h-5.8v17.3H53.6zM90.6 100.1v-5.8h-5.8V65.5h5.8v-5.8h28.9v5.8h5.8v28.9h-5.8v5.8H90.6zm5.8-5.8h17.3V65.5H96.4v28.8zM139.1 100.1v-5.8h-5.8V59.7h11.5v34.6h17.3V59.7h11.5v34.6h-5.8v5.8h-28.7z"/><path class="st2" d="M216.4 96.1v-5.8h-5.8V55.7h11.5v23.1h5.8V55.7h5.8v23.1h5.8V55.7H251v34.6h-5.8v5.8h-5.8v-5.8h-5.8v-5.8H228v5.8h-5.8v5.8h-5.8zM264.9 96.1v-5.8h-5.8V61.5h5.8v-5.8h28.9v5.8h5.8v28.9h-5.8v5.8h-28.9zm5.8-5.8H288V61.5h-17.3v28.8zM307.6 96.1V55.7h11.5v5.8h5.8v5.8h5.8V73h5.8V55.7H348v40.4h-11.5V84.6h-5.8v-5.8h-5.8V73h-5.8v23.1h-11.5zM367.6 84.6V55.7H385V73h-5.8v11.5h-11.6zm0 11.5v-5.8h11.5v5.8h-11.5zM49.6 96.1V78.8h-5.8V73H38V55.7h11.5V73H61V55.7h11.5V73H67v5.8h-5.8v17.3H49.6zM86.6 96.1v-5.8h-5.8V61.5h5.8v-5.8h28.9v5.8h5.8v28.9h-5.8v5.8H86.6zm5.8-5.8h17.3V61.5H92.4v28.8zM135.1 96.1v-5.8h-5.8V55.7h11.5v34.6h17.3V55.7h11.5v34.6h-5.8v5.8h-28.7z"/></svg>
