<svg width="145" height="55" viewBox="0 0 145 55" fill="none" xmlns="http://www.w3.org/2000/svg"><path d="M10 5V0h125v5h5v5h5v35h-5v5h-5v5H10v-5H5v-5H0V10h5V5h5z" fill="#E31CB8"/><path d="M10 5V0h120v5h5v5h5v30h-5v5h-5v5H10v-5H5v-5H0V10h5V5h5z" fill="#FFE600"/><path d="M29 36v-3.1h-3V14h6v12.6h3.1V14h3v12.6h3V14h6.1v18.9h-3V36h-3v-3.1h-3v-3.2H35V33h-3V36h-3zM53.3 36v-3.1h-3V17h3V14h15.2v3.1h3V33h-3V36H53.3zm3-3.1h9.1V17h-9V33zM77.6 36v-3.1h-3V14h6v12.6h3V14h3v12.6h3.1V14h6v18.9h-3V36h-3v-3.1h-3v-3.2h-3V33h-3V36h-3.1zM104.9 29.7V14h9.1v9.4h-3v6.3h-6.1zm0 6.3v-3.1h6V36h-6z" fill="#9A1FE2"/></svg>
