<svg width="133" height="51" viewBox="0 0 133 51" fill="none" xmlns="http://www.w3.org/2000/svg"><path d="M123.8 46.4V51H9.2v-4.6H4.6v-4.7H0V9.3h4.6V4.6h4.6V0h114.6v4.6h4.6v4.7h4.6v32.4h-4.6v4.7h-4.6z" fill="#FFE600"/><path d="M123.8 46.4V51h-110v-4.6H9.2v-4.7H4.6V14h4.6V9.3h4.6V4.6h110v4.7h4.6v4.6h4.6v27.8h-4.6v4.7h-4.6z" fill="#E31CB8"/><path d="M30.6 38.4v-3h-2.8V18h5.6v11.6h2.8V18H39v11.6h2.8V18h5.5v17.5h-2.8v2.9h-2.7v-3H39v-2.8h-2.8v2.9h-2.8v2.9h-2.8zM52.9 38.4v-3h-2.8V21H53v-3h14v3h2.7v14.6h-2.8v2.9H53zm2.8-3H64V21h-8.3v14.6zM75.2 38.4v-3h-2.8V18h5.5v11.6h2.8V18h2.8v11.6h2.8V18h5.6v17.5H89v2.9h-2.8v-3h-2.8v-2.8h-2.8v2.9H78v2.9h-2.7zM100.2 32.6V18h8.4v8.7h-2.8v5.9h-5.6zm0 5.8v-3h5.6v3h-5.6z" fill="#fff"/></svg>
