<svg width="133" height="51" viewBox="0 0 133 51" fill="none" xmlns="http://www.w3.org/2000/svg"><path d="M9.2 4.6V0h114.6v4.6h4.6v4.7h4.6v32.4h-4.6v4.7h-4.6V51H9.2v-4.6H4.6v-4.7H0V9.3h4.6V4.6h4.6z" fill="#FFE600"/><path d="M9.2 4.6V0h110v4.6h4.6v4.7h4.6V37h-4.6v4.6h-4.6v4.7H9.2v-4.7H4.6v-4.6H0V9.3h4.6V4.6h4.6z" fill="#E31CB8"/><path d="M26.6 33.4v-3h-2.8V13h5.6v11.6h2.8V13H35v11.6h2.8V13h5.5v17.5h-2.8v2.9h-2.7v-3H35v-2.8h-2.8v2.9h-2.8v2.9h-2.8zM48.9 33.4v-3h-2.8V16H49v-3h14v3h2.7v14.6h-2.8v2.9H49zm2.8-3H60V16h-8.3v14.6zM71.2 33.4v-3h-2.8V13h5.5v11.6h2.8V13h2.8v11.6h2.8V13h5.6v17.5H85v2.9h-2.8v-3h-2.8v-2.8h-2.8v2.9H74v2.9h-2.7zM96.2 27.6V13h8.4v8.7h-2.8v5.9h-5.6zm0 5.8v-3h5.6v3h-5.6z" fill="#fff"/></svg>
