<svg width="133" height="51" viewBox="0 0 133 51" fill="none" xmlns="http://www.w3.org/2000/svg">
<path d="M9.17241 4.63636V0L123.828 0V4.63636H128.414V9.27273H133V41.7273H128.414V46.3636L123.828 46.3636V51H9.17241V46.3636H4.58621V41.7273H0L0 9.27273H4.58621V4.63636H9.17241Z" fill="#FFE600"/>
<path d="M9.17241 4.63636V0L119.241 0V4.63636H123.828V9.27273H128.414V37.0909L123.828 37.0909V41.7273H119.241V46.3636H9.17241V41.7273H4.58621V37.0909H0L0 9.27273H4.58621V4.63636H9.17241Z" fill="#E31CB8"/>
<path d="M26.6315 33.3818V30.4675H23.8481V12.9818H29.4149V24.639H32.1982V12.9818H34.9816V24.639H37.7649V12.9818H43.3316V30.4675H40.5483V33.3818H37.7649V30.4675L34.9816 30.4675V27.5532H32.1982V30.4675H29.4149V33.3818H26.6315Z" fill="white"/>
<path d="M48.8983 33.3818V30.4675H46.115V15.8961H48.8983V12.9818L62.8151 12.9818V15.8961H65.5984V30.4675L62.8151 30.4675V33.3818H48.8983ZM51.6817 30.4675H60.0317V15.8961L51.6817 15.8961V30.4675Z" fill="white"/>
<path d="M71.1652 33.3818V30.4675H68.3818V12.9818L73.9485 12.9818V24.639H76.7319V12.9818H79.5152V24.639H82.2986V12.9818L87.8653 12.9818V30.4675H85.0819V33.3818H82.2986V30.4675H79.5152V27.5532H76.7319V30.4675H73.9485V33.3818H71.1652Z" fill="white"/>
<path d="M96.2153 27.5532V12.9818H104.565V21.7247H101.782V27.5532H96.2153ZM96.2153 33.3818V30.4675H101.782V33.3818H96.2153Z" fill="white"/>
</svg>
