<svg width="133" height="51" viewBox="0 0 133 51" fill="none" xmlns="http://www.w3.org/2000/svg">
<path d="M123.828 46.3636V51H9.17241V46.3636H4.5862V41.7273H-2.20537e-06V9.27273H4.5862V4.63636L9.17241 4.63636V-5.36442e-07H123.828V4.63636H128.414V9.27273H133V41.7273H128.414V46.3636H123.828Z" fill="#FFE600"/>
<path d="M123.828 46.3636V51H13.7586V46.3636H9.17242V41.7273H4.58621V13.9091L9.17242 13.9091V9.27273H13.7586V4.63636H123.828V9.27273H128.414V13.9091H133V41.7273H128.414V46.3636H123.828Z" fill="#E31CB8"/>
<path d="M30.6315 38.3818V35.4675H27.8481V17.9818H33.4149V29.639H36.1982V17.9818H38.9816V29.639H41.7649V17.9818H47.3316V35.4675H44.5483V38.3818H41.7649V35.4675H38.9816V32.5532H36.1982V35.4675H33.4149V38.3818H30.6315Z" fill="white"/>
<path d="M52.8983 38.3818V35.4675H50.115V20.8961H52.8983V17.9818H66.8151V20.8961H69.5984V35.4675L66.8151 35.4675V38.3818H52.8983ZM55.6817 35.4675H64.0317V20.8961H55.6817V35.4675Z" fill="white"/>
<path d="M75.1652 38.3818V35.4675H72.3818V17.9818H77.9485V29.639H80.7319V17.9818H83.5152V29.639H86.2986V17.9818H91.8653V35.4675H89.0819V38.3818H86.2986V35.4675H83.5152V32.5532H80.7319V35.4675H77.9485V38.3818H75.1652Z" fill="white"/>
<path d="M100.215 32.5532V17.9818H108.565V26.7247H105.782V32.5532H100.215ZM100.215 38.3818V35.4675H105.782V38.3818H100.215Z" fill="white"/>
</svg>
