<svg width="180" height="108" viewBox="0 0 180 108" fill="none" xmlns="http://www.w3.org/2000/svg">
<path d="M86.7058 6.29137C87.5457 4.3445 88.9604 2.70012 90.761 1.57805C92.5616 0.455971 94.6621 -0.0903254 96.7818 0.0121832C99.0253 0.00357855 101.21 0.726753 103.005 2.07183C104.799 3.41691 106.105 5.31038 106.724 7.46455C107.224 9.04134 107.349 10.7125 107.09 12.346C106.832 13.9795 106.197 15.5306 105.235 16.8766C104.273 18.2227 103.011 19.3269 101.549 20.102C100.086 20.8772 98.4635 21.3019 96.8085 21.3428C94.802 21.4284 92.8131 20.9361 91.0787 19.9245C89.3443 18.9128 87.9376 17.4245 87.0261 15.6368C86.3721 14.5436 86.6791 13.997 87.8001 13.6504C90.0823 12.9572 92.3644 12.2373 94.6465 11.5174C95.0613 11.3855 95.4694 11.2271 96.0308 11.0092C96.2641 10.9186 96.524 10.8177 96.8219 10.7041L86.7058 6.29137Z" fill="white"/>
<path d="M103.855 29.3409L113.317 33.2203V33.6603L108.513 35.2201L103.615 36.8199C104.202 40.4994 109.113 44.7655 114.078 44.3122C120.364 43.739 124.101 39.7795 124.501 33.1804C124.795 28.501 120.671 23.4616 115.159 22.795C112.811 22.4455 110.414 22.9027 108.36 24.092C106.307 25.2812 104.718 27.1319 103.855 29.3409Z" fill="white"/>
<path fill-rule="evenodd" clip-rule="evenodd" d="M179.979 95.9866V83.5082C179.979 80.002 179.939 76.4691 179.872 72.9096L179.875 72.7902C179.966 68.2504 179.974 67.8829 174.748 67.8036C169.766 67.7591 164.784 67.7739 159.802 67.7887H159.8C157.309 67.7961 154.818 67.8036 152.327 67.8036C150.205 67.8036 149.19 68.7634 149.19 70.8698V94.2268C149.195 94.8645 149.239 95.5012 149.324 96.1332C149.591 97.9863 150.338 98.6529 152.167 98.6529H177.31C177.672 98.7012 178.04 98.6655 178.386 98.5486C178.732 98.4316 179.046 98.2367 179.304 97.9787C179.562 97.7208 179.758 97.4069 179.875 97.0614C179.992 96.7159 180.027 96.3481 179.979 95.9866ZM174.067 75.4292V83.2682C174.067 84.0143 174.065 84.7604 174.063 85.5071V85.5147C174.057 87.3807 174.052 89.2505 174.08 91.1339C174.094 92.2671 173.667 92.7337 172.479 92.7337H156.784C155.69 92.747 155.223 92.3604 155.223 91.2539V75.2559C155.209 74.1361 155.716 73.8028 156.784 73.8028H172.479C173.68 73.7894 174.067 74.3094 174.067 75.4292Z" fill="white"/>
<path d="M49.5111 88.2941V80.2952L58.9465 80.3218V82.1482C58.9781 83.6567 59.0081 85.1666 59.0381 86.6775L59.0383 86.6833C59.0972 89.644 59.1561 92.6086 59.2268 95.5732C59.2049 95.9727 59.2651 96.3725 59.4037 96.7479C59.5423 97.1233 59.7563 97.4664 60.0326 97.7562C60.3088 98.0459 60.6415 98.2761 61.0102 98.4326C61.3788 98.589 61.7756 98.6685 62.1762 98.6661C62.9467 98.6248 63.6711 98.2861 64.1964 97.7215C64.7218 97.1569 65.0071 96.4105 64.9921 95.6398C65.0811 91.0982 65.1656 86.5699 65.2457 82.0549V80.3885H74.8413V95.5332C74.8546 97.5462 75.9223 98.6794 77.6439 98.6794C79.3655 98.6794 80.4331 97.5729 80.4331 95.5332V77.6288C80.4198 75.0958 79.4989 74.1759 76.9232 74.1759H67.4744C67.3057 74.1759 67.1367 74.174 66.9677 74.172C65.118 74.1506 63.2789 74.1292 62.0561 76.6823C61.7909 75.878 61.2552 75.1903 60.5399 74.7358C59.8247 74.2814 58.974 74.0883 58.1324 74.1893H46.9353C46.4837 74.133 46.0252 74.1805 45.5948 74.3281C45.1643 74.4757 44.7733 74.7195 44.4515 75.041C44.1297 75.3624 43.8856 75.7531 43.7379 76.183C43.5901 76.613 43.5426 77.0711 43.5989 77.5222V82.1616C43.6069 83.521 43.6113 84.8804 43.6157 86.2394V86.2427C43.626 89.4141 43.6363 92.5836 43.6923 95.7465C43.6706 96.121 43.7255 96.496 43.8537 96.8486C43.9819 97.2012 44.1807 97.524 44.438 97.7973C44.6953 98.0705 45.0057 98.2885 45.3502 98.4379C45.6947 98.5873 46.066 98.6649 46.4416 98.6661C46.8311 98.6646 47.2163 98.5847 47.5741 98.4311C47.932 98.2775 48.2552 98.0533 48.5243 97.772C48.7934 97.4907 49.003 97.1581 49.1404 96.794C49.2779 96.43 49.3404 96.0419 49.3242 95.6532C49.3402 95.1626 49.3573 94.6719 49.3744 94.1813C49.4427 92.2189 49.5111 90.2565 49.5111 88.2941Z" fill="white"/>
<path fill-rule="evenodd" clip-rule="evenodd" d="M145.734 89.3344H127.49V92.7073H145.707C145.707 93.1705 145.717 93.6063 145.726 94.0237C145.744 94.8077 145.76 95.5268 145.707 96.2402C145.709 96.5376 145.651 96.8324 145.536 97.1069C145.422 97.3814 145.253 97.63 145.04 97.8378C144.827 98.0456 144.574 98.2084 144.297 98.3165C144.019 98.4245 143.723 98.4755 143.425 98.4666H123.9C123.567 98.4968 123.232 98.4539 122.917 98.341C122.602 98.2282 122.316 98.048 122.079 97.813C121.841 97.5781 121.657 97.2942 121.541 96.9811C121.425 96.6679 121.378 96.3332 121.405 96.0002V76.6694C121.401 76.3428 121.463 76.0187 121.586 75.7163C121.71 75.4138 121.893 75.139 122.124 74.9081C122.355 74.6771 122.63 74.4946 122.933 74.3712C123.236 74.2479 123.56 74.1862 123.887 74.1897C130.231 74.1275 136.579 74.1275 142.931 74.1897C143.322 74.169 143.712 74.2342 144.074 74.3808C144.437 74.5273 144.763 74.7515 145.029 75.0377C145.295 75.3238 145.495 75.6648 145.614 76.0366C145.734 76.4084 145.77 76.8019 145.721 77.1893C145.741 80.1248 145.738 83.0677 145.736 86.1455C145.735 87.1913 145.734 88.2526 145.734 89.3344ZM139.782 80.2556H127.477V83.2952H139.782V80.2556Z" fill="white"/>
<path fill-rule="evenodd" clip-rule="evenodd" d="M89.9264 100.468L89.9264 100.467C89.9504 99.8837 89.975 99.2844 90.0023 98.666C90.7096 98.666 91.3902 98.666 91.9908 98.6526C96.5283 98.586 101.053 98.5193 105.59 98.426C105.96 98.4741 106.336 98.4397 106.691 98.3253C107.046 98.2109 107.371 98.0193 107.643 97.7643C107.914 97.5093 108.126 97.1972 108.263 96.8506C108.4 96.504 108.458 96.1314 108.433 95.7597C108.522 89.5827 108.566 83.4057 108.566 77.2287C108.603 76.4765 108.345 75.7394 107.847 75.1743C107.348 74.6092 106.649 74.2606 105.897 74.2025H86.7059C86.3974 74.1789 86.0874 74.2181 85.7947 74.3179C85.5019 74.4177 85.2326 74.5759 85.0029 74.7828C84.7732 74.9898 84.5881 75.2413 84.4587 75.5219C84.3293 75.8026 84.2584 76.1066 84.2502 76.4155V105.478C84.2883 106.176 84.5991 106.831 85.1157 107.303C85.6324 107.774 86.3136 108.024 87.0128 107.998C87.7123 107.972 88.3759 107.682 88.8709 107.188C89.3658 106.693 89.6555 106.03 89.682 105.332C89.7913 103.753 89.8562 102.174 89.9264 100.468ZM102.561 80.3083V92.5867L90.0556 92.6267V80.3083H102.561Z" fill="white"/>
<path d="M6.11082 73.8157V92.6932H7.81907C13.9047 92.6932 19.977 92.6932 26.0627 92.8265C27.2168 92.6982 28.3835 92.9017 29.4258 93.4131C29.8287 93.7998 30.146 94.2665 30.3575 94.7831C30.5689 95.2997 30.6698 95.8548 30.6536 96.4127C30.6536 97.7459 29.4659 98.4525 28.0512 98.4925C27.5676 98.5061 27.0403 98.5276 26.4918 98.5499C25.4359 98.5929 24.3004 98.6391 23.2467 98.6391H3.72193C1.11952 98.6658 0.0385122 97.6126 0.0251664 94.9862V71.3226C-0.0323294 70.8858 0.0089882 70.4416 0.146077 70.0228C0.283166 69.6041 0.512536 69.2213 0.817299 68.9028C1.12206 68.5843 1.49446 68.3381 1.90707 68.1824C2.31968 68.0267 2.76199 67.9654 3.20145 68.0031H27.6775C28.0741 67.9617 28.475 68.0046 28.8538 68.1288C29.2327 68.2531 29.5809 68.4559 29.8758 68.724C30.1707 68.9921 30.4055 69.3195 30.5648 69.6846C30.7242 70.0498 30.8045 70.4444 30.8004 70.8427C30.8004 72.3892 29.586 73.4424 27.6775 73.509L7.96588 73.8157H6.11082Z" fill="white"/>
<path d="M97.1157 57.1642L87.3466 60.6571H87.2932C88.2019 63.017 89.9202 64.9776 92.1418 66.1893C94.3633 67.4009 96.9436 67.7847 99.4221 67.2723C101.901 66.7598 104.116 65.3843 105.674 63.3913C107.231 61.3982 108.03 58.9173 107.926 56.391C107.837 53.9525 106.897 51.6219 105.269 49.803C103.641 47.9842 101.427 46.7917 99.0108 46.4323C96.6208 45.9854 94.1496 46.3939 92.0312 47.5861C89.9127 48.7783 88.2825 50.6779 87.4267 52.9514L97.1157 56.6443V57.1642Z" fill="white"/>
<path d="M59.5474 16.1965C60.4232 13.7537 62.173 11.7211 64.4597 10.4904C66.7464 9.25963 69.4082 8.91779 71.9322 9.53073C74.526 10.0183 76.8471 11.4483 78.4475 13.5448C80.0479 15.6413 80.8143 18.2556 80.5987 20.8833C80.3831 23.511 79.2008 25.9658 77.2799 27.774C75.3591 29.5822 72.8359 30.6155 70.1973 30.6747C65.206 30.888 60.5483 27.8884 59.7876 23.8755L69.2097 20.2493V19.7427L59.5474 16.1965Z" fill="white"/>
<path d="M69.7565 48.7522L60.0142 52.3384C60.6833 54.0918 61.8036 55.6377 63.2621 56.8203C64.7206 58.0028 66.4656 58.78 68.3209 59.0734C70.1762 59.3668 72.0762 59.1661 73.829 58.4914C75.5818 57.8168 77.1254 56.6921 78.304 55.231C79.4826 53.7698 80.2544 52.024 80.5415 50.1696C80.8287 48.3152 80.621 46.418 79.9394 44.6694C79.2578 42.9209 78.1265 41.3829 76.6596 40.2108C75.1927 39.0386 73.4423 38.2738 71.5849 37.9936C69.2053 37.6042 66.7641 38.0468 64.6732 39.2466C62.5823 40.4463 60.9697 42.3299 60.1076 44.5794L69.7565 48.2589V48.7522Z" fill="white"/>
<path d="M112.063 83.0812V71.0828C112.01 70.2856 112.268 69.4988 112.783 68.8875C113.298 68.2761 114.03 67.8876 114.825 67.8032C115.656 67.8447 116.437 68.2128 116.997 68.8273C117.557 69.4417 117.851 70.2526 117.815 71.0828V95.3463C117.856 95.7643 117.809 96.1862 117.678 96.5852C117.546 96.9842 117.333 97.3515 117.052 97.6637C116.771 97.9759 116.428 98.2263 116.044 98.3988C115.661 98.5714 115.246 98.6623 114.825 98.6659C114.432 98.6365 114.048 98.5273 113.698 98.345C113.348 98.1627 113.038 97.9111 112.788 97.6056C112.539 97.3 112.354 96.9468 112.245 96.5676C112.137 96.1883 112.106 95.791 112.156 95.3997V83.1212L112.063 83.0812Z" fill="white"/>
<path d="M34.2301 77.3358V86.148H34.3236C34.3236 87.221 34.3148 88.3072 34.3059 89.4003C34.2881 91.6073 34.27 93.8422 34.3236 96.0534C34.375 96.7389 34.6749 97.3822 35.167 97.8629C35.6591 98.3435 36.3097 98.6285 36.9969 98.6645C37.6842 98.7004 38.3611 98.4849 38.9007 98.0583C39.4404 97.6316 39.8059 97.0231 39.9288 96.3466C39.9955 89.8941 39.9955 83.455 39.9955 77.0158C40.0054 76.6305 39.9351 76.2473 39.7891 75.8905C39.6432 75.5337 39.4247 75.211 39.1475 74.9428C38.8703 74.6747 38.5404 74.4669 38.1787 74.3327C37.817 74.1984 37.4313 74.1406 37.0461 74.1628C36.6484 74.1739 36.2572 74.2663 35.8967 74.4344C35.5362 74.6025 35.2141 74.8426 34.9501 75.14C34.6862 75.4374 34.4862 75.7857 34.3623 76.1634C34.2385 76.541 34.1935 76.9401 34.2301 77.3358Z" fill="white"/>
<path d="M37.2197 70.5628C36.8237 70.6161 36.4208 70.5799 36.0407 70.4569C35.6606 70.3339 35.313 70.1273 35.0235 69.8522C34.734 69.5771 34.5101 69.2406 34.3682 68.8675C34.2262 68.4944 34.17 68.0942 34.2035 67.6965C34.1888 67.2986 34.2558 66.9018 34.4003 66.5306C34.5449 66.1595 34.7639 65.8218 35.0439 65.5383C35.3239 65.2549 35.659 65.0316 36.0286 64.8824C36.3982 64.7331 36.7944 64.6609 37.193 64.6702C37.5913 64.6734 37.9849 64.7568 38.3502 64.9154C38.7155 65.074 39.045 65.3046 39.3191 65.5933C39.5932 65.882 39.8062 66.223 39.9454 66.5958C40.0845 66.9686 40.147 67.3657 40.129 67.7632C40.1498 68.1455 40.0879 68.5278 39.9475 68.8841C39.8072 69.2404 39.5916 69.5623 39.3156 69.8279C39.0395 70.0936 38.7094 70.2967 38.3478 70.4235C37.9861 70.5503 37.6013 70.5978 37.2197 70.5628Z" fill="white"/>
</svg>
