<svg width="180" height="108" viewBox="0 0 180 108" fill="none" xmlns="http://www.w3.org/2000/svg"><path d="M86.7 6.3a10.4 10.4 0 0110-6.3 10.3 10.3 0 0110 7.5 10.6 10.6 0 01-9.9 13.8 10.5 10.5 0 01-9.8-5.7c-.6-1-.3-1.6.8-2l6.8-2L96 11c.3 0 .5-.2.8-.3l-10-4.4zM103.9 29.3l9.4 4v.4l-4.8 1.5-4.9 1.6c.6 3.7 5.5 8 10.5 7.5 6.3-.6 10-4.5 10.4-11.1.3-4.7-3.8-9.7-9.3-10.4a10.5 10.5 0 00-11.3 6.5z" fill="#fff"/><path fill-rule="evenodd" clip-rule="evenodd" d="M180 96V83.5l-.1-10.6v-.1c0-4.5 0-5-5.2-5h-22.4c-2 0-3.1 1-3.1 3v23.4l.1 2c.3 1.8 1 2.5 2.9 2.5h25.1A2.4 2.4 0 00180 96zm-6-20.6V91.1c0 1.2-.3 1.6-1.5 1.6h-15.7c-1.1 0-1.6-.3-1.6-1.4v-16c0-1.2.5-1.5 1.6-1.5h15.7c1.2 0 1.6.5 1.6 1.6z" fill="#fff"/><path d="M49.5 88.3v-8H59v1.8l.1 4.6.2 8.9a3 3 0 003 3 3 3 0 002.8-3l.2-13.5v-1.7h9.6v15.1c0 2 1.1 3.2 2.8 3.2 1.8 0 2.8-1.1 2.8-3.2V77.6c0-2.5-.9-3.4-3.5-3.4H67c-1.9 0-3.7 0-5 2.5a3.7 3.7 0 00-3.9-2.5H47a3 3 0 00-3.3 3.3v8.7a657.9 657.9 0 00.3 10.6 2.8 2.8 0 003.7 1.6 2.9 2.9 0 001.7-2.7v-1.5l.2-6z" fill="#fff"/><path fill-rule="evenodd" clip-rule="evenodd" d="M145.7 89.3h-18.2v3.4h18.2V94a22.9 22.9 0 01-.2 3.1 2.2 2.2 0 01-2 1.4h-19.6a2.3 2.3 0 01-2.5-2.5V76.7a2.5 2.5 0 012.5-2.5 971.8 971.8 0 0120.2.2 2.7 2.7 0 011.6 2.8v12.1zm-6-9h-12.2v3h12.3v-3zM90 100.5v-1.8h2a2309 2309 0 0014.7-.4 2.5 2.5 0 001.7-2.5l.2-18.6a2.9 2.9 0 00-2.7-3H86.7a2.3 2.3 0 00-2.4 2.2v29A2.7 2.7 0 0087 108a2.8 2.8 0 002.7-2.7l.2-4.8zm12.6-20.2v12.3H90V80.3h12.5z" fill="#fff"/><path d="M6.1 73.8v18.9h1.7l18.3.1c1.1-.1 2.3.1 3.3.6a4 4 0 011.3 3c0 1.3-1.2 2-2.6 2l-1.6.1-3.3.1H3.7c-2.6 0-3.7-1-3.7-3.6V71.3A3 3 0 013.2 68h24.5a2.8 2.8 0 013.1 2.8c0 1.6-1.2 2.6-3.1 2.7L8 73.8H6zM97.1 57.2l-9.8 3.5a10.7 10.7 0 1018-10.9c-1.7-1.8-3.9-3-6.3-3.4A10.4 10.4 0 0087.4 53l9.7 3.6v.6zM59.5 16.2A10.5 10.5 0 0172 9.5a10.7 10.7 0 01-1.7 21.2c-5 .2-9.7-2.8-10.4-6.8l9.4-3.7v-.5l-9.7-3.5zM69.8 48.8L60 52.3a10.7 10.7 0 10.1-7.7l9.7 3.7v.5zM112 83V71a3 3 0 012.8-3.2 3.2 3.2 0 013 3.3v24.2a3 3 0 01-3 3.4 3 3 0 01-2.6-3.3V83.1h-.1zM34.2 77.3v8.8h.1v10a2.8 2.8 0 005.6.2L40 77a2.8 2.8 0 00-3-2.8 3 3 0 00-2.8 3.1zM37.2 70.6a2.7 2.7 0 01-3-2.9 3 3 0 013-3 3 3 0 013 3 2.7 2.7 0 01-3 2.9z" fill="#fff"/></svg>
