<svg width="50" height="50" viewBox="0 0 50 50" fill="none" xmlns="http://www.w3.org/2000/svg">
<mask id="mask0" mask-type="alpha" maskUnits="userSpaceOnUse" x="0" y="0" width="50" height="50">
<path d="M11.1111 2.94108H16.6667V0H33.3333V2.94108H38.8889V5.88243H41.6667V8.82351H44.4444V11.7646H47.2222V17.647H50V32.353H47.2222V38.2354H44.4444V41.1765H41.6667V44.1176H38.8889V47.0589H33.3333V50H16.6667V47.0589H11.1111V44.1176H8.33333V41.1765H5.55556V38.2354H2.77778V32.353H0V17.647H2.77778V11.7646H5.55556V8.82351H8.33333V5.88243H11.1111V2.94108Z" fill="white"/>
</mask>
<g mask="url(#mask0)">
<rect x="-4" y="-3" width="57" height="57" fill="#E31CB8"/>
<path d="M25.5 12C18.6074 12 13 17.6074 13 24.4999C13 31.3923 18.6074 36.9997 25.5 36.9997C32.3926 36.9997 38 31.3923 38 24.4999C38 17.6074 32.3926 12 25.5 12ZM33.6457 17.8952C35.049 19.6226 35.913 21.8029 35.9848 24.1795C33.3854 23.6414 31.0316 23.7046 28.9536 24.112C28.5774 23.2321 28.1879 22.3939 27.7948 21.6016C30.0578 20.6268 32.0278 19.3816 33.6457 17.8952ZM32.2376 16.4641C30.6316 17.93 28.7705 19.0154 26.8648 19.8167C25.466 17.2589 24.1277 15.3327 23.3125 14.2381C24.0184 14.0877 24.7499 14.007 25.5 14.007C28.0632 14.007 30.4134 14.9321 32.2376 16.4641ZM21.2854 14.8936C21.901 15.6913 23.3674 17.6886 24.9425 20.5304C20.9838 21.8201 17.1427 22.0374 15.2969 22.0576C16.0663 18.8437 18.3169 16.2011 21.2854 14.8936ZM15.018 24.0697C15.0378 24.0697 15.0569 24.0698 15.0771 24.0698C16.3525 24.0698 18.6892 23.9841 21.4401 23.4825C23.0096 23.1963 24.4978 22.811 25.8943 22.3336C26.2578 23.0582 26.6192 23.8224 26.9697 24.6235C25.0143 25.253 23.3654 26.1589 22.0592 27.0583C19.8689 28.5666 18.3345 30.24 17.4966 31.2747C15.9453 29.4452 15.007 27.0807 15.007 24.4999C15.007 24.3556 15.0121 24.2126 15.018 24.0697ZM18.9429 32.6829C19.6642 31.7747 21.1324 30.1216 23.2562 28.6711C24.6995 27.6852 26.1927 26.9528 27.7299 26.4721C28.6218 28.7839 29.3833 31.3383 29.8373 34.0505C28.5142 34.6537 27.0465 34.9927 25.5 34.9927C23.0204 34.9927 20.7406 34.1264 18.9429 32.6829ZM31.6837 32.9698C31.2158 30.4789 30.518 28.1367 29.7114 25.9962C31.6956 25.6614 33.7464 25.7304 35.8526 26.2035C35.3984 28.9719 33.858 31.3781 31.6837 32.9698Z" fill="white"/>
</g>
</svg>
