<svg width="50" height="50" viewBox="0 0 50 50" fill="none" xmlns="http://www.w3.org/2000/svg">
<mask id="mask0" mask-type="alpha" maskUnits="userSpaceOnUse" x="0" y="0" width="50" height="50">
<path d="M11.1111 2.94108H16.6667V0H33.3333V2.94108H38.8889V5.88243H41.6667V8.82351H44.4444V11.7646H47.2222V17.647H50V32.353H47.2222V38.2354H44.4444V41.1765H41.6667V44.1176H38.8889V47.0589H33.3333V50H16.6667V47.0589H11.1111V44.1176H8.33333V41.1765H5.55556V38.2354H2.77778V32.353H0V17.647H2.77778V11.7646H5.55556V8.82351H8.33333V5.88243H11.1111V2.94108Z" fill="white"/>
</mask>
<g mask="url(#mask0)">
<rect x="-2" y="-1" width="53" height="53" fill="#6120FE"/>
<path fill-rule="evenodd" clip-rule="evenodd" d="M15.5 13H35.5C36.875 13 38 14.125 38 15.5V35.5C38 36.875 36.875 38 35.5 38H15.5C14.125 38 13 36.875 13 35.5V15.5C13 14.125 14.125 13 15.5 13ZM35.3039 18.0818L33.7394 19.5754C33.6054 19.6757 33.5368 19.8453 33.5654 20.0108V30.9901C33.5368 31.1547 33.6062 31.3243 33.7402 31.4254L35.268 32.9182V33.2451H27.5784V32.9174L29.1634 31.3871C29.317 31.2338 29.317 31.1857 29.317 30.9518V22.0807L24.911 33.2166H24.3154L19.1912 22.0807V29.5437C19.1462 29.8593 19.2516 30.1731 19.4747 30.3998L21.5335 32.8855V33.2125H15.6961V32.8897L17.7549 30.3998C17.9739 30.174 18.0752 29.8544 18.0188 29.5437V20.9157C18.0425 20.6768 17.9494 20.4396 17.7712 20.2774L15.9436 18.0818V17.7549H21.6266L26.0212 27.3491L29.884 17.7549H35.3039V18.0818Z" fill="white"/>
</g>
</svg>
